<svg width="22" height="22" viewBox="0 0 22 22" fill="none" xmlns="http://www.w3.org/2000/svg">
<path d="M6.811 11.263C6.73002 11.2549 6.63284 11.2549 6.54376 11.263C4.61645 11.1982 3.08594 9.61908 3.08594 7.67557C3.08594 5.69157 4.68933 4.08008 6.68143 4.08008C8.66543 4.08008 10.2769 5.69157 10.2769 7.67557C10.2688 9.61908 8.73831 11.1982 6.811 11.263Z" stroke="#474747" stroke-width="1.51206" stroke-linecap="round" stroke-linejoin="round"/>
<path d="M2.76665 14.2501C0.806949 15.562 0.806949 17.6998 2.76665 19.0036C4.99359 20.4936 8.64577 20.4936 10.8727 19.0036C12.8324 17.6917 12.8324 15.5539 10.8727 14.2501C8.65387 12.7682 5.00169 12.7682 2.76665 14.2501Z" stroke="#474747" stroke-width="1.51206" stroke-linecap="round" stroke-linejoin="round"/>
<mask id="path-3-inside-1_12829_165942" fill="white">
<path d="M14.4274 11.4301C14.219 11.4301 14.0185 11.374 13.8341 11.2538C13.4733 11.0214 13.2809 10.6207 13.329 10.196L13.4894 8.96182C12.407 8.0803 11.7656 6.77405 11.7656 5.40369C11.7656 3.841 12.5834 2.3825 13.9544 1.50899C14.7802 0.972065 15.7583 0.683594 16.7765 0.683594C19.5425 0.683594 21.7874 2.7992 21.7874 5.40369C21.7874 6.46151 21.4026 7.50333 20.6971 8.32875C19.7911 9.42664 18.4361 10.0677 16.9449 10.1158L14.9886 11.2778C14.8123 11.382 14.6198 11.4301 14.4274 11.4301ZM16.7685 1.88566C15.9828 1.88566 15.2292 2.10202 14.5958 2.51874C13.5695 3.17587 12.9602 4.2497 12.9602 5.40369C12.9602 6.51761 13.5054 7.53539 14.4675 8.19253C14.6519 8.32075 14.7481 8.53709 14.7241 8.76148L14.5477 10.1319L16.4638 8.99391C16.5601 8.93781 16.6643 8.90572 16.7685 8.90572C17.9471 8.90572 19.0615 8.40089 19.767 7.54341C20.2962 6.91833 20.5768 6.18102 20.5768 5.39567C20.5768 3.46434 18.8691 1.88566 16.7685 1.88566Z"/>
</mask>
<path d="M13.8341 11.2538L14.5658 10.1314L14.5597 10.1274L13.8341 11.2538ZM13.329 10.196L12.0003 10.0234C11.9994 10.0306 11.9985 10.0379 11.9977 10.0452L13.329 10.196ZM13.4894 8.96182L14.8181 9.13445C14.8779 8.67429 14.6953 8.21596 14.3355 7.92293L13.4894 8.96182ZM13.9544 1.50899L14.6744 2.63903L14.6848 2.63229L13.9544 1.50899ZM20.6971 8.32875L19.6786 7.45818C19.6735 7.46407 19.6685 7.47 19.6636 7.47597L20.6971 8.32875ZM16.9449 10.1158L16.9017 8.77665C16.6756 8.78394 16.4551 8.84834 16.2606 8.96385L16.9449 10.1158ZM14.9886 11.2778L15.67 12.4315L15.6729 12.4298L14.9886 11.2778ZM14.5958 2.51874L15.3183 3.64709C15.323 3.64411 15.3276 3.6411 15.3322 3.63806L14.5958 2.51874ZM14.4675 8.19253L15.2324 7.09243L15.2232 7.08612L14.4675 8.19253ZM14.7241 8.76148L16.053 8.93252C16.0542 8.92312 16.0553 8.9137 16.0563 8.90428L14.7241 8.76148ZM14.5477 10.1319L13.2188 9.96081C13.1534 10.469 13.3836 10.9701 13.8118 11.2515C14.24 11.533 14.7912 11.5455 15.2318 11.2839L14.5477 10.1319ZM16.4638 8.99391L15.7889 7.8364L15.7797 7.84189L16.4638 8.99391ZM19.767 7.54341L18.7444 6.67771C18.7404 6.68248 18.7364 6.68728 18.7324 6.6921L19.767 7.54341ZM20.5768 5.39567H19.2369H20.5768ZM14.4274 10.0902C14.4445 10.0902 14.4694 10.0927 14.4982 10.1011C14.5272 10.1096 14.5504 10.1214 14.5658 10.1314L13.1024 12.3762C13.5108 12.6424 13.9668 12.7699 14.4274 12.7699V10.0902ZM14.5597 10.1274C14.5849 10.1437 14.6154 10.1739 14.637 10.219C14.6587 10.2644 14.6645 10.3107 14.6604 10.3468L11.9977 10.0452C11.8915 10.9829 12.3251 11.8755 13.1086 12.3802L14.5597 10.1274ZM14.6577 10.3686L14.8181 9.13445L12.1607 8.78919L12.0003 10.0234L14.6577 10.3686ZM14.3355 7.92293C13.5518 7.28462 13.1055 6.35368 13.1055 5.40369H10.4258C10.4258 7.19442 11.2623 8.87598 12.6433 10.0007L14.3355 7.92293ZM13.1055 5.40369C13.1055 4.31897 13.6722 3.27749 14.6744 2.63898L13.2344 0.379002C11.4946 1.4875 10.4258 3.36302 10.4258 5.40369H13.1055ZM14.6848 2.63229C15.2883 2.23986 16.0117 2.02345 16.7765 2.02345V-0.656262C15.5049 -0.656262 14.2721 -0.295731 13.224 0.385695L14.6848 2.63229ZM16.7765 2.02345C18.879 2.02345 20.4476 3.61334 20.4476 5.40369H23.1273C23.1273 1.98506 20.2061 -0.656262 16.7765 -0.656262V2.02345ZM20.4476 5.40369C20.4476 6.13773 20.1797 6.8719 19.6786 7.45818L21.7155 9.19931C22.6255 8.13475 23.1273 6.78529 23.1273 5.40369H20.4476ZM19.6636 7.47597C19.0182 8.25806 18.0337 8.74015 16.9017 8.77665L16.9881 11.455C18.8386 11.3953 20.5639 10.5952 21.7305 9.18153L19.6636 7.47597ZM16.2606 8.96385L14.3044 10.1259L15.6729 12.4298L17.6292 11.2678L16.2606 8.96385ZM14.3072 10.1242C14.3481 10.1 14.3931 10.0902 14.4274 10.0902V12.7699C14.8466 12.7699 15.2764 12.664 15.67 12.4315L14.3072 10.1242ZM16.7685 0.545809C15.7371 0.545809 14.7244 0.830282 13.8593 1.39942L15.3322 3.63806C15.7339 3.37376 16.2285 3.22552 16.7685 3.22552V0.545809ZM13.8733 1.39039C12.4888 2.27688 11.6204 3.76238 11.6204 5.40369H14.3001C14.3001 4.73703 14.6503 4.07486 15.3183 3.64709L13.8733 1.39039ZM11.6204 5.40369C11.6204 6.97774 12.3989 8.40216 13.7118 9.29893L15.2232 7.08612C14.612 6.66863 14.3001 6.05748 14.3001 5.40369H11.6204ZM13.7026 9.29258C13.4748 9.13419 13.365 8.86861 13.3918 8.61867L16.0563 8.90428C16.1312 8.20556 15.829 7.50731 15.2324 7.09247L13.7026 9.29258ZM13.3952 8.59043L13.2188 9.96081L15.8766 10.3029L16.053 8.93252L13.3952 8.59043ZM15.2318 11.2839L17.148 10.1459L15.7797 7.84189L13.8635 8.97983L15.2318 11.2839ZM17.1387 10.1514C17.0669 10.1932 16.9407 10.2456 16.7685 10.2456V7.56586C16.3878 7.56586 16.0532 7.68239 15.789 7.83644L17.1387 10.1514ZM16.7685 10.2456C18.3175 10.2456 19.8231 9.58405 20.8017 8.39472L18.7324 6.6921C18.2999 7.21773 17.5766 7.56586 16.7685 7.56586V10.2456ZM20.7897 8.40911C21.5111 7.55695 21.9167 6.51698 21.9167 5.39567H19.2369C19.2369 5.84506 19.0813 6.27972 18.7444 6.67771L20.7897 8.40911ZM21.9167 5.39567C21.9167 2.62468 19.5053 0.545809 16.7685 0.545809V3.22552C18.2329 3.22552 19.2369 4.304 19.2369 5.39567H21.9167Z" fill="#474747" mask="url(#path-3-inside-1_12829_165942)"/>
<path d="M14.9922 4.43359H18.2213" stroke="#474747" stroke-width="1.33986" stroke-linecap="round"/>
<path d="M16.0625 6.58789L18.2152 6.58789" stroke="#474747" stroke-width="1.33986" stroke-linecap="round"/>
</svg>
