<svg width="19" height="19" viewBox="0 0 19 19" fill="none" xmlns="http://www.w3.org/2000/svg">
<ellipse cx="6.21398" cy="3.1879" rx="2.55773" ry="2.60782" fill="#D9D9D9"/>
<path d="M8.02171 3.1879C8.02171 4.22772 7.19871 5.04572 6.21398 5.04572C5.22924 5.04572 4.40625 4.22772 4.40625 3.1879C4.40625 2.14807 5.22924 1.33008 6.21398 1.33008C7.19871 1.33008 8.02171 2.14807 8.02171 3.1879Z" stroke="#000001" stroke-opacity="0.91" stroke-width="1.5"/>
<ellipse cx="6.21398" cy="15.9731" rx="2.55773" ry="2.60782" fill="#D9D9D9"/>
<path d="M8.02171 15.9731C8.02171 17.0129 7.19871 17.8309 6.21398 17.8309C5.22924 17.8309 4.40625 17.0129 4.40625 15.9731C4.40625 14.9332 5.22924 14.1152 6.21398 14.1152C7.19871 14.1152 8.02171 14.9332 8.02171 15.9731Z" stroke="#000001" stroke-opacity="0.91" stroke-width="1.5"/>
<ellipse cx="12.7921" cy="3.1879" rx="2.55773" ry="2.60782" fill="#D9D9D9"/>
<path d="M14.5998 3.1879C14.5998 4.22772 13.7768 5.04572 12.7921 5.04572C11.8074 5.04572 10.9844 4.22772 10.9844 3.1879C10.9844 2.14807 11.8074 1.33008 12.7921 1.33008C13.7768 1.33008 14.5998 2.14807 14.5998 3.1879Z" stroke="#000001" stroke-opacity="0.91" stroke-width="1.5"/>
<ellipse cx="12.7921" cy="15.9731" rx="2.55773" ry="2.60782" fill="#D9D9D9"/>
<path d="M14.4498 15.9731C14.4498 16.9328 13.6913 17.6809 12.7921 17.6809C11.8929 17.6809 11.1344 16.9328 11.1344 15.9731C11.1344 15.0133 11.8929 14.2652 12.7921 14.2652C13.6913 14.2652 14.4498 15.0133 14.4498 15.9731Z" stroke="#000001" stroke-opacity="0.91" stroke-width="1.8"/>
<ellipse cx="2.55773" cy="9.58048" rx="2.55773" ry="2.60782" fill="#D9D9D9"/>
<path d="M4.36546 9.58048C4.36546 10.6203 3.54246 11.4383 2.55773 11.4383C1.57299 11.4383 0.75 10.6203 0.75 9.58048C0.75 8.54065 1.57299 7.72266 2.55773 7.72266C3.54246 7.72266 4.36546 8.54065 4.36546 9.58048Z" stroke="#000001" stroke-opacity="0.91" stroke-width="1.5"/>
<ellipse cx="9.86242" cy="9.58048" rx="2.55773" ry="2.60782" fill="#D9D9D9"/>
<path d="M11.6701 9.58048C11.6701 10.6203 10.8471 11.4383 9.86242 11.4383C8.87768 11.4383 8.05469 10.6203 8.05469 9.58048C8.05469 8.54065 8.87768 7.72266 9.86242 7.72266C10.8471 7.72266 11.6701 8.54065 11.6701 9.58048Z" stroke="#000001" stroke-opacity="0.91" stroke-width="1.5"/>
<ellipse cx="16.4405" cy="9.58048" rx="2.55773" ry="2.60782" fill="#D9D9D9"/>
<path d="M18.2483 9.58048C18.2483 10.6203 17.4253 11.4383 16.4405 11.4383C15.4558 11.4383 14.6328 10.6203 14.6328 9.58048C14.6328 8.54065 15.4558 7.72266 16.4405 7.72266C17.4253 7.72266 18.2483 8.54065 18.2483 9.58048Z" stroke="#000001" stroke-opacity="0.91" stroke-width="1.5"/>
</svg>
