<svg width="20" height="17" viewBox="0 0 20 17" fill="none" xmlns="http://www.w3.org/2000/svg">
<mask id="path-1-inside-1_12829_165928" fill="white">
<path d="M9.26562 6.88476C9.26562 7.71319 8.59405 8.38477 7.76563 8.38477H1.50238C0.673957 8.38477 0.00238419 7.71319 0.00238419 6.88477V2.30575C0.00238419 1.47732 0.673957 0.805749 1.50238 0.805749H7.76563C8.59405 0.805749 9.26562 1.47732 9.26562 2.30575V6.88476Z"/>
</mask>
<path d="M9.26562 6.88476C9.26562 7.71319 8.59405 8.38477 7.76563 8.38477H1.50238C0.673957 8.38477 0.00238419 7.71319 0.00238419 6.88477V2.30575C0.00238419 1.47732 0.673957 0.805749 1.50238 0.805749H7.76563C8.59405 0.805749 9.26562 1.47732 9.26562 2.30575V6.88476Z" stroke="#474747" stroke-width="3" mask="url(#path-1-inside-1_12829_165928)"/>
<mask id="path-2-inside-2_12829_165928" fill="white">
<path d="M9.26562 15.3066C9.26562 16.1351 8.59405 16.8066 7.76563 16.8066H1.50238C0.673957 16.8066 0.00238419 16.1351 0.00238419 15.3066V10.7276C0.00238419 9.8992 0.673957 9.22762 1.50238 9.22762H7.76563C8.59405 9.22762 9.26562 9.8992 9.26562 10.7276V15.3066Z"/>
</mask>
<path d="M9.26562 15.3066C9.26562 16.1351 8.59405 16.8066 7.76563 16.8066H1.50238C0.673957 16.8066 0.00238419 16.1351 0.00238419 15.3066V10.7276C0.00238419 9.8992 0.673957 9.22762 1.50238 9.22762H7.76563C8.59405 9.22762 9.26562 9.8992 9.26562 10.7276V15.3066Z" stroke="#474747" stroke-width="3" mask="url(#path-2-inside-2_12829_165928)"/>
<mask id="path-3-inside-3_12829_165928" fill="white">
<path d="M19.3672 6.88476C19.3672 7.71319 18.6956 8.38477 17.8672 8.38477H11.6039C10.7755 8.38477 10.1039 7.71319 10.1039 6.88477V2.30575C10.1039 1.47732 10.7755 0.805749 11.6039 0.805749H17.8672C18.6956 0.805749 19.3672 1.47732 19.3672 2.30575V6.88476Z"/>
</mask>
<path d="M19.3672 6.88476C19.3672 7.71319 18.6956 8.38477 17.8672 8.38477H11.6039C10.7755 8.38477 10.1039 7.71319 10.1039 6.88477V2.30575C10.1039 1.47732 10.7755 0.805749 11.6039 0.805749H17.8672C18.6956 0.805749 19.3672 1.47732 19.3672 2.30575V6.88476Z" stroke="#474747" stroke-width="3" mask="url(#path-3-inside-3_12829_165928)"/>
<mask id="path-4-inside-4_12829_165928" fill="white">
<path d="M19.3672 15.3066C19.3672 16.1351 18.6956 16.8066 17.8672 16.8066H11.6039C10.7755 16.8066 10.1039 16.1351 10.1039 15.3066V10.7276C10.1039 9.8992 10.7755 9.22762 11.6039 9.22762H17.8672C18.6956 9.22762 19.3672 9.8992 19.3672 10.7276V15.3066Z"/>
</mask>
<path d="M19.3672 15.3066C19.3672 16.1351 18.6956 16.8066 17.8672 16.8066H11.6039C10.7755 16.8066 10.1039 16.1351 10.1039 15.3066V10.7276C10.1039 9.8992 10.7755 9.22762 11.6039 9.22762H17.8672C18.6956 9.22762 19.3672 9.8992 19.3672 10.7276V15.3066Z" stroke="#474747" stroke-width="3" mask="url(#path-4-inside-4_12829_165928)"/>
</svg>
