<svg width="20" height="21" viewBox="0 0 20 21" fill="none" xmlns="http://www.w3.org/2000/svg">
<path d="M6.28906 6.58815V1.99945C6.28906 1.7495 6.49169 1.54688 6.74164 1.54688H13.7777C14.0276 1.54688 14.2302 1.7495 14.2302 1.99945V6.58815" stroke="#292929" stroke-width="1.35774"/>
<path d="M4.17647 6.58974H10.2647H16.3529M6.84883 11.6744H13.2825M1 7.96463V5.66742C1 5.41747 1.20263 5.21484 1.45258 5.21484H18.5474C18.7974 5.21484 19 5.41747 19 5.66742V8.88123V19.0954C19 19.3454 18.7974 19.548 18.5474 19.548H16.8824H3.92441H1.45258C1.20263 19.548 1 19.3454 1 19.0954V7.96463ZM3.57023 16.214H16.4298C16.6797 16.214 16.8824 16.0114 16.8824 15.7614V8.41721C16.8824 8.16726 16.6797 7.96463 16.4298 7.96463H3.57023C3.32027 7.96463 3.11765 8.16726 3.11765 8.41721V15.7614C3.11765 16.0114 3.32027 16.214 3.57023 16.214Z" stroke="#292929" stroke-width="1.2"/>
</svg>
