<svg width="20" height="20" viewBox="0 0 20 20" fill="none" xmlns="http://www.w3.org/2000/svg">
<path fill-rule="evenodd" clip-rule="evenodd" d="M11.5997 9.11523C11.9091 9.11523 12.16 9.36606 12.16 9.67547V10.884H12.85C13.1086 10.884 13.3182 11.0936 13.3182 11.3522C13.3182 11.6107 13.1086 11.8203 12.85 11.8203H12.16V12.5769H12.85C13.1086 12.5769 13.3182 12.7865 13.3182 13.045C13.3182 13.3036 13.1086 13.5132 12.85 13.5132H12.16V14.6766C12.16 15.0397 11.8656 15.334 11.5025 15.334C11.2867 15.334 11.0846 15.2281 10.9618 15.0506L9.89833 13.5132H8.17604V14.7707C8.17604 15.0818 7.92386 15.334 7.61277 15.334C7.30168 15.334 7.04949 15.0818 7.04949 14.7707V13.5132H6.43689C6.17834 13.5132 5.96875 13.3036 5.96875 13.045C5.96875 12.7865 6.17834 12.5769 6.43689 12.5769H7.04949V11.8203H6.43689C6.17834 11.8203 5.96875 11.6107 5.96875 11.3522C5.96875 11.0936 6.17834 10.884 6.43689 10.884H7.04949V9.77642C7.04949 9.41126 7.34552 9.11523 7.71068 9.11523C7.92793 9.11523 8.13131 9.22195 8.25476 9.40072L9.27904 10.884H11.0395V9.67547C11.0395 9.36606 11.2903 9.11523 11.5997 9.11523ZM8.17604 12.5769H9.25065L8.72726 11.8203H8.17604V12.5769ZM11.0395 12.5769H10.4481L9.92558 11.8203H11.0395V12.5769Z" fill="#292929"/>
<path d="M10.6466 1.90234H4.91193C4.47737 1.90234 4.06062 2.07497 3.75334 2.38225C3.44606 2.68952 3.27344 3.10628 3.27344 3.54083V16.6487C3.27344 17.0833 3.44606 17.5001 3.75334 17.8073C4.06062 18.1146 4.47737 18.2872 4.91193 18.2872H14.7429C15.1774 18.2872 15.5942 18.1146 15.9014 17.8073C16.2087 17.5001 16.3813 17.0833 16.3813 16.6487V7.63706L10.6466 1.90234Z" stroke="#292929" stroke-width="1.40442" stroke-linecap="round" stroke-linejoin="round"/>
<path d="M10.6484 1.90234V7.63705H16.3831" stroke="#292929" stroke-width="1.40442" stroke-linecap="round" stroke-linejoin="round"/>
</svg>
