<svg width="19" height="20" viewBox="0 0 19 20" fill="none" xmlns="http://www.w3.org/2000/svg">
<path d="M14.2466 6.5225C14.1991 6.51459 14.1436 6.51459 14.0961 6.5225C13.0036 6.48292 12.1328 5.58833 12.1328 4.48C12.1328 3.34792 13.0432 2.4375 14.1753 2.4375C15.3074 2.4375 16.2178 3.35583 16.2178 4.48C16.2099 5.58833 15.3391 6.48292 14.2466 6.5225Z" stroke="#292D32" stroke-width="1.5" stroke-linecap="round" stroke-linejoin="round"/>
<path d="M13.43 12.286C14.5146 12.468 15.71 12.278 16.5492 11.716C17.6654 10.9718 17.6654 9.75263 16.5492 9.00846C15.7021 8.44638 14.4908 8.25637 13.4062 8.44637" stroke="#292D32" stroke-width="1.5" stroke-linecap="round" stroke-linejoin="round"/>
<path d="M4.72906 6.5225C4.77656 6.51459 4.83198 6.51459 4.87948 6.5225C5.97198 6.48292 6.84281 5.58833 6.84281 4.48C6.84281 3.34792 5.9324 2.4375 4.80031 2.4375C3.66823 2.4375 2.75781 3.35583 2.75781 4.48C2.76573 5.58833 3.63656 6.48292 4.72906 6.5225Z" stroke="#292D32" stroke-width="1.5" stroke-linecap="round" stroke-linejoin="round"/>
<path d="M5.54229 12.286C4.45771 12.468 3.26229 12.278 2.42313 11.716C1.30688 10.9718 1.30688 9.75263 2.42313 9.00846C3.27021 8.44638 4.48146 8.25637 5.56604 8.44637" stroke="#292D32" stroke-width="1.5" stroke-linecap="round" stroke-linejoin="round"/>
<path d="M9.49656 12.4366C9.44906 12.4286 9.39365 12.4286 9.34615 12.4366C8.25365 12.397 7.38281 11.5024 7.38281 10.3941C7.38281 9.26198 8.29323 8.35156 9.42531 8.35156C10.5574 8.35156 11.4678 9.2699 11.4678 10.3941C11.4599 11.5024 10.5891 12.4049 9.49656 12.4366Z" stroke="#292D32" stroke-width="1.5" stroke-linecap="round" stroke-linejoin="round"/>
<path d="M7.19656 14.9302C6.08031 15.6743 6.08031 16.8935 7.19656 17.6377C8.46323 18.4847 10.5374 18.4847 11.8041 17.6377C12.9203 16.8935 12.9203 15.6743 11.8041 14.9302C10.5453 14.091 8.46323 14.091 7.19656 14.9302Z" stroke="#292D32" stroke-width="1.5" stroke-linecap="round" stroke-linejoin="round"/>
</svg>
