<svg width="20" height="20" viewBox="0 0 20 20" fill="none" xmlns="http://www.w3.org/2000/svg">
<path d="M6.28906 6.10573V1.51703C6.28906 1.26708 6.49169 1.06445 6.74164 1.06445H13.7777C14.0276 1.06445 14.2302 1.26708 14.2302 1.51703V6.10573" stroke="#292D32" stroke-width="1.35774"/>
<path d="M4.17647 6.10536H10.2647H16.3529M6.84883 11.19H13.2825M1 7.48026V5.18305C1 4.9331 1.20263 4.73047 1.45258 4.73047H18.5474C18.7974 4.73047 19 4.9331 19 5.18305V8.39685V18.611C19 18.861 18.7974 19.0636 18.5474 19.0636H16.8824H3.92441H1.45258C1.20263 19.0636 1 18.861 1 18.611V7.48026ZM3.57023 15.7296H16.4298C16.6797 15.7296 16.8824 15.527 16.8824 15.277V7.93284C16.8824 7.68288 16.6797 7.48026 16.4298 7.48026H3.57023C3.32027 7.48026 3.11765 7.68288 3.11765 7.93284V15.277C3.11765 15.527 3.32027 15.7296 3.57023 15.7296Z" stroke="#292D32" stroke-width="1.2"/>
</svg>
