<svg width="19" height="20" viewBox="0 0 19 20" fill="none" xmlns="http://www.w3.org/2000/svg">
<path d="M9.5 5.1875H17.4167" stroke="#474747" stroke-width="1.5" stroke-miterlimit="10" stroke-linecap="round" stroke-linejoin="round"/>
<path d="M11.2575 2.375H15.6592C17.0683 2.375 17.4167 2.72333 17.4167 4.11667V7.37042C17.4167 8.76375 17.0683 9.11208 15.6592 9.11208H11.2575C9.84833 9.11208 9.5 8.76375 9.5 7.37042V4.11667C9.5 2.72333 9.84833 2.375 11.2575 2.375Z" stroke="#474747" stroke-width="1.5" stroke-linecap="round" stroke-linejoin="round"/>
<path d="M1.58301 14.2969H9.49967" stroke="#474747" stroke-width="1.5" stroke-miterlimit="10" stroke-linecap="round" stroke-linejoin="round"/>
<path d="M3.34051 11.4766H7.74217C9.15134 11.4766 9.49967 11.8249 9.49967 13.2182V16.472C9.49967 17.8653 9.15134 18.2136 7.74217 18.2136H3.34051C1.93134 18.2136 1.58301 17.8653 1.58301 16.472V13.2182C1.58301 11.8249 1.93134 11.4766 3.34051 11.4766Z" stroke="#474747" stroke-width="1.5" stroke-linecap="round" stroke-linejoin="round"/>
<path d="M17.4167 12.6641C17.4167 15.7278 14.9387 18.2057 11.875 18.2057L12.7062 16.8203" stroke="#474747" stroke-width="1.5" stroke-linecap="round" stroke-linejoin="round"/>
<path d="M1.58301 7.91667C1.58301 4.85292 4.06092 2.375 7.12467 2.375L6.29343 3.76042" stroke="#474747" stroke-width="1.5" stroke-linecap="round" stroke-linejoin="round"/>
</svg>
