<svg width="19" height="20" viewBox="0 0 19 20" fill="none" xmlns="http://www.w3.org/2000/svg">
<path d="M9.5 5.22363H17.4167" stroke="#474747" stroke-width="1.5" stroke-miterlimit="10" stroke-linecap="round" stroke-linejoin="round"/>
<path d="M11.2575 2.40527H15.6592C17.0683 2.40527 17.4167 2.75361 17.4167 4.14694V7.40069C17.4167 8.79402 17.0683 9.14236 15.6592 9.14236H11.2575C9.84833 9.14236 9.5 8.79402 9.5 7.40069V4.14694C9.5 2.75361 9.84833 2.40527 11.2575 2.40527Z" stroke="#474747" stroke-width="1.5" stroke-linecap="round" stroke-linejoin="round"/>
<path d="M1.58594 14.3281H9.5026" stroke="#474747" stroke-width="1.5" stroke-miterlimit="10" stroke-linecap="round" stroke-linejoin="round"/>
<path d="M3.34344 11.5098H7.7451C9.15427 11.5098 9.5026 11.8581 9.5026 13.2514V16.5052C9.5026 17.8985 9.15427 18.2469 7.7451 18.2469H3.34344C1.93427 18.2469 1.58594 17.8985 1.58594 16.5052V13.2514C1.58594 11.8581 1.93427 11.5098 3.34344 11.5098Z" stroke="#474747" stroke-width="1.5" stroke-linecap="round" stroke-linejoin="round"/>
<path d="M17.4167 12.6973C17.4167 15.761 14.9387 18.2389 11.875 18.2389L12.7062 16.8535" stroke="#474747" stroke-width="1.5" stroke-linecap="round" stroke-linejoin="round"/>
<path d="M1.58594 7.94694C1.58594 4.88319 4.06385 2.40527 7.1276 2.40527L6.29636 3.79069" stroke="#474747" stroke-width="1.5" stroke-linecap="round" stroke-linejoin="round"/>
</svg>
