<svg width="65" height="32" viewBox="0 0 65 32" fill="none" xmlns="http://www.w3.org/2000/svg">
<g clip-path="url(#clip0_394_282)">
<path d="M12.1342 19.5168L12.6673 24.6354H15.8933L13.6273 6.66602H9.73469L0.75 24.6354H4.05606L6.50909 19.5168H12.1342ZM7.49514 17.1168L9.65469 12.6381C10.1882 11.5716 10.6412 10.3186 11.1212 9.22556H11.1747C11.2547 10.2921 11.3612 11.6781 11.4677 12.6646L11.9742 17.1172L7.49514 17.1168ZM26.2362 21.7828C25.5962 22.0758 24.6897 22.3958 23.4901 22.3958C21.7575 22.3958 20.6375 21.3028 20.6375 19.3568C20.6375 16.6368 22.5301 13.8646 25.5162 13.8646C26.3962 13.8646 27.0092 14.0512 27.4892 14.2642L28.2892 11.8651C27.7827 11.6251 26.7692 11.3581 25.6227 11.3581C20.8241 11.3581 17.385 15.1707 17.385 19.7033C17.385 22.8224 19.3845 24.9019 22.6371 24.9019C24.2901 24.9019 25.5962 24.5289 26.3697 24.1554L26.2362 21.7828ZM33.4055 24.9289C37.8046 24.9289 40.8707 21.1428 40.8707 16.7172C40.8707 13.8646 39.0577 11.3581 35.5651 11.3581C31.1399 11.3581 28.0734 15.1707 28.0734 19.5698C28.0734 22.6624 30.0999 24.9289 33.379 24.9289H33.4055ZM33.779 22.5289C32.2065 22.5289 31.273 21.2763 31.273 19.4898C31.273 17.0637 32.713 13.7577 35.1921 13.7577C37.0581 13.7577 37.6716 15.4107 37.6716 16.7437C37.6716 19.3298 36.1251 22.5293 33.8055 22.5293H33.779V22.5289ZM44.7889 24.6354L45.7754 19.4102C46.2819 16.6372 47.6949 14.3977 49.9079 14.3977C50.121 14.3977 50.3345 14.3977 50.4945 14.4242L51.1075 11.3851C50.8945 11.3851 50.6545 11.3581 50.441 11.3581C48.6814 11.3581 47.2419 12.6381 46.3619 14.3707H46.2819C46.4154 13.4381 46.4954 12.5316 46.5754 11.6516H43.8828C43.7493 12.7981 43.5628 14.7977 43.2158 16.6372L41.6967 24.6354H44.7889ZM53.5253 24.6354L54.6449 18.6368C55.2049 15.5972 57.0179 13.8912 58.4039 13.8912C59.6305 13.8912 60.0305 14.6642 60.0305 15.7572C60.0305 16.2637 59.9505 16.8237 59.8705 17.3037L58.4839 24.6354H61.6035L63.0165 17.0637C63.1495 16.4237 63.2565 15.5177 63.2565 14.9307C63.2565 12.4781 61.8165 11.3581 59.9505 11.3581C58.1374 11.3581 56.4844 12.2381 55.2849 13.9712H55.2314L55.5249 11.6516H52.7518C52.5923 12.7716 52.4053 14.1312 52.0853 15.6772L50.4058 24.6354H53.5253Z" fill="black"/>
</g>
<defs>
<clipPath id="clip0_394_282">
<rect width="64" height="32" fill="white" transform="translate(0.289062)"/>
</clipPath>
</defs>
</svg>
