<svg width="56" height="56" viewBox="0 0 56 56" fill="none" xmlns="http://www.w3.org/2000/svg">
<rect x="2" y="2" width="52" height="52" rx="26" fill="#BAE7C9"/>
<rect x="2" y="2" width="52" height="52" rx="26" stroke="#DCFCE7" stroke-width="4"/>
<path d="M28 28C26.9 28 25.9583 27.6083 25.175 26.825C24.3917 26.0417 24 25.1 24 24C24 22.9 24.3917 21.9583 25.175 21.175C25.9583 20.3917 26.9 20 28 20C29.1 20 30.0417 20.3917 30.825 21.175C31.6083 21.9583 32 22.9 32 24C32 25.1 31.6083 26.0417 30.825 26.825C30.0417 27.6083 29.1 28 28 28ZM20 36V33.2C20 32.6333 20.1458 32.1125 20.4375 31.6375C20.7292 31.1625 21.1167 30.8 21.6 30.55C22.6333 30.0333 23.6833 29.6458 24.75 29.3875C25.8167 29.1292 26.9 29 28 29C29.1 29 30.1833 29.1292 31.25 29.3875C32.3167 29.6458 33.3667 30.0333 34.4 30.55C34.8833 30.8 35.2708 31.1625 35.5625 31.6375C35.8542 32.1125 36 32.6333 36 33.2V36H20ZM22 34H34V33.2C34 33.0167 33.9542 32.85 33.8625 32.7C33.7708 32.55 33.65 32.4333 33.5 32.35C32.6 31.9 31.6917 31.5625 30.775 31.3375C29.8583 31.1125 28.9333 31 28 31C27.0667 31 26.1417 31.1125 25.225 31.3375C24.3083 31.5625 23.4 31.9 22.5 32.35C22.35 32.4333 22.2292 32.55 22.1375 32.7C22.0458 32.85 22 33.0167 22 33.2V34ZM28 26C28.55 26 29.0208 25.8042 29.4125 25.4125C29.8042 25.0208 30 24.55 30 24C30 23.45 29.8042 22.9792 29.4125 22.5875C29.0208 22.1958 28.55 22 28 22C27.45 22 26.9792 22.1958 26.5875 22.5875C26.1958 22.9792 26 23.45 26 24C26 24.55 26.1958 25.0208 26.5875 25.4125C26.9792 25.8042 27.45 26 28 26Z" fill="#344054"/>
</svg>
