<svg width="64" height="64" viewBox="0 0 64 64" fill="none" xmlns="http://www.w3.org/2000/svg">
<rect width="64" height="64" rx="32" fill="#D4FFC6"/>
<path d="M33.3594 8.47021C23.9194 8.47021 16.2554 16.118 16.2554 25.5409C16.2554 27.8965 16.7344 30.1434 17.6002 32.1861C18.0328 33.2075 18.5621 34.1782 19.1769 35.0863C19.2112 35.1407 19.2561 35.1877 19.3089 35.2244C19.3618 35.2612 19.4215 35.287 19.4844 35.3002C19.5474 35.3134 19.6124 35.3139 19.6756 35.3015C19.7387 35.2891 19.7988 35.2641 19.8521 35.2281C19.9054 35.192 19.9509 35.1456 19.986 35.0916C20.021 35.0376 20.0448 34.9771 20.056 34.9138C20.0672 34.8504 20.0656 34.7854 20.0512 34.7227C20.0368 34.66 20.0099 34.6008 19.9721 34.5486C19.392 33.6915 18.8925 32.7757 18.4842 31.8121C17.6675 29.8851 17.2159 27.7668 17.2159 25.5411C17.2159 16.6383 24.4374 9.43099 33.3594 9.43099C42.2813 9.43099 49.5026 16.6383 49.5026 25.5411C49.5026 26.2675 49.4511 26.9823 49.3608 27.6829L47.6623 25.3618C47.6158 25.2962 47.5535 25.2433 47.4812 25.208C47.4089 25.1728 47.3289 25.1563 47.2485 25.16C47.1611 25.1639 47.0765 25.1917 47.0037 25.2402C46.931 25.2887 46.8729 25.3562 46.8356 25.4354C46.7984 25.5145 46.7835 25.6023 46.7925 25.6893C46.8016 25.7763 46.8342 25.8592 46.8869 25.929L49.1935 29.0816C49.2306 29.1687 49.2927 29.2429 49.3718 29.2949C49.451 29.3468 49.5437 29.3742 49.6383 29.3736C49.6425 29.3737 49.6466 29.3737 49.6508 29.3736C49.6503 29.3736 49.6513 29.3736 49.6508 29.3736C49.7176 29.3719 49.7846 29.3563 49.845 29.3278C49.9054 29.2992 49.9592 29.2584 50.0029 29.208L52.9866 26.6362C53.0608 26.5741 53.1145 26.491 53.1407 26.3979C53.1669 26.3047 53.1643 26.2058 53.1333 26.1141C53.1023 26.0224 53.0443 25.9422 52.9669 25.8841C52.8895 25.8259 52.7964 25.7925 52.6997 25.7882C52.5749 25.7826 52.4528 25.8258 52.3594 25.9087L50.3291 27.6591C50.4148 26.965 50.46 26.2583 50.46 25.5415C50.46 16.1186 42.7961 8.47084 33.3562 8.47084L33.3594 8.47021ZM35.6406 15.6628C35.555 15.6593 35.4701 15.6788 35.3947 15.7191C35.3192 15.7595 35.2558 15.8192 35.2112 15.8923L27.9156 25.8391C27.8631 25.9106 27.8314 25.9953 27.8241 26.0837C27.8168 26.1722 27.8342 26.2609 27.8742 26.3401C27.9143 26.4192 27.9755 26.4858 28.0511 26.5323C28.1267 26.5787 28.2136 26.6034 28.3024 26.6035H32.3666L30.6379 33.1638C30.6353 33.1723 30.633 33.1809 30.6308 33.1895C30.6036 33.3029 30.6186 33.4223 30.6729 33.5255C30.7272 33.6286 30.8173 33.7085 30.9262 33.7502C31.0351 33.7918 31.1554 33.7925 31.2647 33.7519C31.374 33.7114 31.4649 33.6325 31.5203 33.5299L38.8029 23.6C38.8554 23.5284 38.887 23.4437 38.8942 23.3552C38.9015 23.2667 38.8841 23.178 38.8439 23.0989C38.8038 23.0197 38.7425 22.9532 38.6669 22.9068C38.5913 22.8604 38.5042 22.8358 38.4155 22.8358H34.3513L36.0704 16.3128C36.1138 16.1995 36.1126 16.0739 36.0672 15.9613C36.0217 15.8488 35.9353 15.7577 35.8254 15.7062C35.8252 15.7062 35.8256 15.7063 35.8254 15.7062C35.8148 15.7017 35.8034 15.6973 35.7925 15.6936C35.7861 15.6911 35.7796 15.6887 35.7731 15.6865C35.769 15.6846 35.7649 15.6828 35.7607 15.6811C35.7501 15.6784 35.7393 15.676 35.7285 15.674C35.7284 15.674 35.7286 15.674 35.7285 15.674C35.7004 15.6673 35.6714 15.6631 35.6425 15.6616L35.6406 15.6628ZM34.5095 18.4733L33.2643 23.1964C33.2427 23.2741 33.2409 23.3559 33.2593 23.4344C33.2776 23.5128 33.3154 23.5854 33.3691 23.6455C33.4228 23.7055 33.4908 23.751 33.5668 23.7779C33.6428 23.8048 33.7243 23.8121 33.8038 23.7992H37.468L32.2091 30.9686L33.452 26.2537C33.4526 26.2513 33.4531 26.249 33.4537 26.2466C33.4743 26.1729 33.4769 26.0954 33.4615 26.0206C33.4461 25.9457 33.413 25.8756 33.365 25.8161C33.3171 25.7565 33.2555 25.7093 33.1856 25.6784C33.1157 25.6474 33.0395 25.6336 32.9631 25.638C32.9459 25.6389 32.9287 25.6407 32.9116 25.6434H29.2479L34.5095 18.4733ZM46.9442 33.2142C46.1494 33.2142 45.3542 33.5165 44.7488 34.1201L38.9985 39.854C38.4183 38.6897 37.2148 37.8881 35.8257 37.8887L23.5495 37.8923C22.831 37.8601 22.0253 37.8729 21.2759 38.3113L18.3713 40.005C17.958 38.7764 16.7947 37.8887 15.4274 37.8887C13.7161 37.8887 12.3223 39.2786 12.3223 40.9881V51.4665C12.3223 53.1759 13.7161 54.5666 15.4274 54.5666C17.1388 54.5666 18.5324 53.1759 18.5324 51.4665V50.2778C18.9882 50.2391 19.4612 50.35 19.9787 50.5131C19.9793 50.5135 19.9799 50.5138 19.9805 50.5142L31.2707 54.1147C31.9434 54.3294 32.626 54.2578 33.2187 54.0219C33.6094 53.8697 33.9754 53.6377 34.2899 53.3237L49.1381 38.5052C50.3487 37.2969 50.3487 35.3289 49.1381 34.1206C48.5328 33.5166 47.739 33.2141 46.9442 33.2142ZM46.9441 34.1668C47.4907 34.1668 48.0376 34.3783 48.4605 34.7999C49.3063 35.644 49.3063 36.9806 48.4605 37.8247L33.6124 52.643C33.486 52.7694 33.3481 52.8764 33.2031 52.9641C33.1921 52.9701 33.1814 52.9766 33.1709 52.9835C33.0516 53.0517 32.9272 53.1104 32.7989 53.1568C32.572 53.2354 32.3348 53.2748 32.0965 53.2748C32.0704 53.2751 32.0443 53.2775 32.0185 53.282C31.8658 53.2748 31.7136 53.2498 31.564 53.202L20.2914 49.6063C20.285 49.6038 20.2786 49.6014 20.2721 49.5992C19.9259 49.4902 19.5556 49.3871 19.167 49.3388C18.9607 49.313 18.7486 49.3066 18.5326 49.3194V41.0207C18.5562 41.0118 18.579 41.001 18.6009 40.9885L21.7597 39.1461C22.2586 38.8554 22.8488 38.8283 23.5284 38.8579C23.5326 38.858 23.5367 38.858 23.5409 38.8579C23.5432 38.858 23.5456 38.8581 23.548 38.8581L35.825 38.8546C37.0532 38.8539 38.0649 39.6856 38.3352 40.8214C38.3368 40.8279 38.3386 40.8344 38.3405 40.8408C38.3856 41.029 38.407 41.2256 38.407 41.4274C38.407 42.8624 37.2637 44.0037 35.8244 44.0037H26.7197C26.6561 44.0029 26.593 44.0147 26.534 44.0385C26.4751 44.0622 26.4214 44.0975 26.3761 44.1422C26.3309 44.1868 26.295 44.2401 26.2704 44.2987C26.2459 44.3574 26.2333 44.4204 26.2333 44.4839C26.2333 44.5475 26.2459 44.6105 26.2704 44.6692C26.295 44.7278 26.3309 44.781 26.3761 44.8257C26.4214 44.8704 26.4751 44.9056 26.534 44.9294C26.593 44.9532 26.6561 44.965 26.7197 44.9642H35.8244C37.7781 44.9642 39.3668 43.3788 39.3668 41.4274C39.3668 41.2437 39.3543 41.0632 39.328 40.8866L45.4285 34.8027C45.852 34.3804 46.3985 34.1696 46.9453 34.1696L46.9441 34.1668ZM15.4274 38.8492C16.6244 38.8492 17.5719 39.7951 17.5719 40.9881V51.4665C17.5719 52.6595 16.6244 53.606 15.4274 53.606C14.2305 53.606 13.283 52.6595 13.283 51.4665V40.9881C13.283 39.7951 14.2305 38.8492 15.4274 38.8492Z" fill="black"/>
</svg>
