<svg width="64" height="64" viewBox="0 0 64 64" fill="none" xmlns="http://www.w3.org/2000/svg">
<rect width="64" height="64" rx="32" fill="#D4FFC6"/>
<g clip-path="url(#clip0_318_51762)">
<path d="M52.7262 24.6996C52.3824 24.4199 51.8793 24.4703 51.6004 24.8121C51.3199 25.1539 51.3707 25.6578 51.7121 25.9379C53.4199 27.3359 54.3996 29.4008 54.3996 31.6023C54.3996 35.6469 51.1098 40.5371 47.0652 40.5371L26.1145 38.9371C25.6723 38.9371 25.3145 39.2953 25.3145 39.7371C25.3145 40.1789 25.6723 40.5371 26.1145 40.5371H47.0652C51.9918 40.5371 55.9996 36.5289 55.9996 31.6023C55.9996 28.9191 54.8066 26.4031 52.7262 24.6996Z" fill="black"/>
<path d="M22.8359 40.5364C23.2781 40.5364 23.6359 40.1782 23.6359 39.7364C23.6359 39.2946 23.2781 38.9364 22.8359 38.9364H16.9344C12.8898 38.9364 9.59999 35.6462 9.59999 31.6017C9.59999 28.5392 11.5375 25.7735 14.4211 24.7196C14.8211 24.5732 15.0359 24.1392 14.9102 23.7321C14.6297 22.8224 14.4875 21.8751 14.4875 20.9165C14.4875 15.6579 18.7656 11.3798 24.0234 11.3798C28.2352 11.3798 31.8984 14.0821 33.1375 18.1044C33.2273 18.3946 33.4734 18.6095 33.7734 18.6583C34.0734 18.7083 34.3742 18.5829 34.5516 18.3356C36.0562 16.2431 38.4844 14.9938 41.0516 14.9938H41.1031C43.2602 14.9938 45.2844 15.8661 46.8078 17.454C48.3297 19.0407 49.1437 21.1825 49.0406 23.3302C49.0195 23.7716 49.3602 24.1462 49.8016 24.1677C50.2484 24.1829 50.6187 23.8482 50.6391 23.4067C50.7625 20.822 49.7875 18.2485 47.9625 16.3466C46.1336 14.4407 43.7 13.3935 41.1086 13.3935C38.4781 13.3935 35.9774 14.4489 34.1672 16.3103C32.3828 12.3528 28.4648 9.77979 24.0234 9.77979C17.8828 9.77979 12.8875 14.7759 12.8875 20.9165C12.8875 21.7896 12.9891 22.6552 13.1891 23.4985C10.057 24.9481 8 28.1173 8 31.6017C8 36.5282 12.0078 40.5364 16.9344 40.5364L22.8359 40.5364Z" fill="black"/>
<path d="M28.1152 28.1558C28.1152 30.8429 30.3012 33.0292 32.9887 33.0292C35.6762 33.0292 37.8621 30.8429 37.8621 28.1558C37.8621 25.4687 35.6762 23.2827 32.9887 23.2827C30.3012 23.2827 28.1152 25.4687 28.1152 28.1558ZM36.2621 28.1558C36.2621 29.9608 34.7934 31.4292 32.9887 31.4292C31.184 31.4292 29.7152 29.9608 29.7152 28.1558C29.7152 26.3511 31.184 24.8827 32.9887 24.8827C34.7934 24.8827 36.2621 26.3511 36.2621 28.1558Z" fill="black"/>
<path d="M25.1352 24.8837C25.6375 24.8837 26.1188 24.9942 26.5664 25.2118C26.9641 25.4067 27.4422 25.2399 27.6359 24.8431C27.8289 24.4458 27.6641 23.9669 27.2664 23.7735C26.5992 23.4485 25.882 23.2837 25.1352 23.2837C22.4477 23.2837 20.2617 25.4696 20.2617 28.1567C20.2617 30.8439 22.4477 33.0302 25.1352 33.0302C25.8922 33.0302 26.6172 32.861 27.2922 32.5278C27.6883 32.3321 27.8508 31.8524 27.6547 31.4563C27.4586 31.0603 26.9805 30.8978 26.5828 31.0935C26.1313 31.3169 25.6438 31.4302 25.1352 31.4302C23.3305 31.4302 21.8617 29.9618 21.8617 28.1567C21.8617 26.3521 23.3305 24.8837 25.1352 24.8837Z" fill="black"/>
<path d="M38.9574 35.5371C38.7793 35.78 38.7528 36.1027 38.8895 36.3714C39.0254 36.6402 39.3012 36.8093 39.6028 36.8093H42.9379C43.3801 36.8093 43.7379 36.4511 43.7379 36.0093C43.7379 35.5675 43.3801 35.2093 42.9379 35.2093H41.1793L43.2106 32.432C43.6792 31.6892 43.6713 30.7126 43.2285 29.9503C42.8207 29.2492 42.1035 28.8226 41.2707 28.8093C39.9098 28.8093 38.8028 29.9164 38.8028 31.2773C38.8028 31.7191 39.1606 32.0773 39.6028 32.0773C40.0449 32.0773 40.4028 31.7191 40.4028 31.2773C40.4028 30.7988 40.7918 30.4097 41.2848 30.4097C41.6012 30.4148 41.7723 30.6285 41.8457 30.7554C41.9574 30.946 42.0223 31.248 41.8832 31.5371L38.9574 35.5371Z" fill="black"/>
<path d="M22.032 43.0234C21.2555 43.0234 20.5102 43.2352 19.8461 43.6402C19.182 43.2352 18.4367 43.0234 17.6602 43.0234C15.3062 43.0234 13.3906 44.9387 13.3906 47.293C13.3906 49.6469 15.3062 51.5621 17.6602 51.5621C18.4367 51.5621 19.182 51.3504 19.8461 50.9453C20.5102 51.3504 21.2555 51.5621 22.032 51.5621C24.3859 51.5621 26.3016 49.6469 26.3016 47.293C26.3016 44.9387 24.3859 43.0234 22.032 43.0234ZM22.032 49.9621C21.425 49.9621 20.8445 49.7496 20.3531 49.3473C20.2055 49.2266 20.0258 49.1664 19.8461 49.1664C19.6664 49.1664 19.4867 49.2266 19.3391 49.3473C18.8476 49.7496 18.2672 49.9621 17.6602 49.9621C16.1883 49.9621 14.9906 48.7648 14.9906 47.293C14.9906 45.8211 16.1883 44.6234 17.6602 44.6234C18.2672 44.6234 18.8477 44.8359 19.3398 45.2383C19.6336 45.4797 20.0586 45.4797 20.3523 45.2383C20.8445 44.8359 21.425 44.6234 22.032 44.6234C23.5039 44.6234 24.7016 45.8211 24.7016 47.293C24.7016 48.7648 23.5039 49.9621 22.032 49.9621Z" fill="black"/>
<path d="M45.9207 46.0813C45.1441 46.0813 44.3988 46.293 43.7348 46.6981C43.0707 46.293 42.3254 46.0813 41.5488 46.0813C39.1949 46.0813 37.2793 47.9965 37.2793 50.3504C37.2793 52.7047 39.1949 54.62 41.5488 54.62C42.3254 54.62 43.0707 54.4082 43.7348 54.0032C44.3988 54.4082 45.1441 54.62 45.9207 54.62C48.2746 54.62 50.1902 52.7047 50.1902 50.3504C50.1902 47.9965 48.2746 46.0813 45.9207 46.0813ZM45.9207 53.02C45.3137 53.02 44.7332 52.8075 44.241 52.4051C44.0941 52.2844 43.9144 52.2243 43.7348 52.2243C43.5551 52.2243 43.3754 52.2844 43.2285 52.4051C42.7363 52.8075 42.1559 53.02 41.5488 53.02C40.077 53.02 38.8793 51.8223 38.8793 50.3504C38.8793 48.8786 40.077 47.6813 41.5488 47.6813C42.1559 47.6813 42.7363 47.8938 43.2277 48.2961C43.523 48.5375 43.9465 48.5375 44.2418 48.2961C44.7332 47.8938 45.3137 47.6813 45.9207 47.6813C47.3926 47.6813 48.5902 48.8786 48.5902 50.3504C48.5902 51.8223 47.3926 53.02 45.9207 53.02Z" fill="black"/>
</g>
<defs>
<clipPath id="clip0_318_51762">
<rect width="48" height="46.4" fill="white" transform="translate(8 9)"/>
</clipPath>
</defs>
</svg>
