<svg width="150" height="32" viewBox="0 0 150 32" fill="none" xmlns="http://www.w3.org/2000/svg">
<path d="M43.3263 5.73794C43.944 4.75175 44.6819 3.84736 45.565 3.08614C46.2305 2.51348 47.885 1.33627 47.7259 3.08941C48.3019 2.56748 48.9261 2.09054 49.5858 1.67945C50.6293 1.02908 52.3787 0.483014 51.8899 2.41163C53.8529 2.27011 55.8932 2.45254 57.7969 2.94461C56.6953 3.3876 55.46 3.51972 54.3049 3.74183C52.3587 4.11487 50.4125 4.73089 48.7183 5.77598C46.2186 7.31847 44.1612 9.77761 42.8007 12.3488C42.6567 12.6196 41.8853 14.6849 41.5335 14.3359C40.9686 13.7739 41.2738 12.3128 41.3339 11.6109C41.5159 9.5281 42.2166 7.50703 43.3263 5.73794Z" fill="#10D48E"/>
<path d="M43.1142 16.6035C42.9367 16.9205 42.4352 18.9003 42.1996 18.8937C40.9807 18.8532 43.3707 13.076 43.6329 12.6117C45.3222 9.62369 47.8382 6.9678 51.0115 5.57666C55.1179 3.7777 60.7221 4.35036 63.8124 0.563477C63.8251 2.11251 62.7354 3.59364 61.6801 4.61542C61.0698 5.20607 60.3891 5.72105 59.6741 6.17672C59.3531 6.38042 58.6597 6.5154 58.7154 6.93753C58.8111 7.66767 58.5067 8.39821 58.065 8.96514C55.9351 11.6951 51.855 11.7711 48.7835 12.5708C47.3118 12.9537 45.8507 13.584 44.7181 14.6168C44.0873 15.1911 43.5314 15.8579 43.1142 16.6035Z" fill="#10D48E"/>
<path d="M25.4307 27.9674C23.9327 27.9674 22.5976 27.6092 21.4252 26.8928C20.2746 26.1764 19.3628 25.1995 18.6898 23.962C18.0385 22.7246 17.7129 21.3134 17.7129 19.7286C17.7129 18.1438 18.0385 16.7327 18.6898 15.4953C19.3628 14.2578 20.2746 13.2809 21.4252 12.5645C22.5976 11.848 23.9327 11.4898 25.4307 11.4898C26.5161 11.4898 27.4931 11.6961 28.3615 12.1085C29.2516 12.521 29.9788 13.0963 30.5433 13.8345C31.1294 14.5509 31.4551 15.3758 31.5202 16.3094V22.9851C31.4551 23.9186 31.1403 24.7653 30.5758 25.5251C30.0114 26.2632 29.2841 26.8602 28.394 27.3161C27.5039 27.7503 26.5161 27.9674 25.4307 27.9674ZM26.3099 23.4735C27.0263 23.4735 27.645 23.3216 28.1661 23.0176C28.6871 22.692 29.0996 22.2469 29.4035 21.6825C29.7075 21.118 29.8594 20.4668 29.8594 19.7286C29.8594 18.9905 29.7075 18.3501 29.4035 17.8073C29.1213 17.2429 28.7088 16.7978 28.1661 16.4722C27.645 16.1465 27.0372 15.9837 26.3425 15.9837C25.6478 15.9837 25.029 16.1465 24.4863 16.4722C23.9653 16.7978 23.5419 17.2429 23.2163 17.8073C22.9123 18.3718 22.7604 19.0122 22.7604 19.7286C22.7604 20.445 22.9123 21.0855 23.2163 21.6499C23.5202 22.2144 23.9436 22.6594 24.4863 22.9851C25.029 23.3107 25.6369 23.4735 26.3099 23.4735ZM34.5487 27.6418H29.664V23.3758L30.413 19.5332L29.5663 15.6906V4H34.5487V27.6418Z" fill="white"/>
<path d="M46.3281 28C44.6999 28 43.2236 27.6418 41.8994 26.9254C40.5968 26.1872 39.5656 25.1886 38.8057 23.9294C38.0459 22.6703 37.666 21.2592 37.666 19.6961C37.666 18.133 38.0459 16.7327 38.8057 15.4953C39.5656 14.2578 40.5968 13.2809 41.8994 12.5645C43.2019 11.8263 44.6782 11.4573 46.3281 11.4573C47.978 11.4573 49.4543 11.8155 50.7569 12.5319C52.0595 13.2483 53.0907 14.2361 53.8505 15.4953C54.6103 16.7327 54.9903 18.133 54.9903 19.6961C54.9903 21.2592 54.6103 22.6703 53.8505 23.9294C53.0907 25.1886 52.0595 26.1872 50.7569 26.9254C49.4543 27.6418 47.978 28 46.3281 28ZM46.3281 23.4735C47.0445 23.4735 47.6741 23.3216 48.2169 23.0176C48.7596 22.692 49.1721 22.2469 49.4543 21.6825C49.7582 21.0963 49.9102 20.4342 49.9102 19.6961C49.9102 18.9579 49.7582 18.3175 49.4543 17.7748C49.1504 17.2103 48.727 16.7761 48.1843 16.4722C47.6633 16.1465 47.0445 15.9837 46.3281 15.9837C45.6334 15.9837 45.0147 16.1465 44.4719 16.4722C43.9292 16.7761 43.5059 17.2103 43.2019 17.7748C42.898 18.3392 42.746 18.9905 42.746 19.7286C42.746 20.445 42.898 21.0963 43.2019 21.6825C43.5059 22.2469 43.9292 22.692 44.4719 23.0176C45.0147 23.3216 45.6334 23.4735 46.3281 23.4735Z" fill="white"/>
<path d="M58.122 27.6418V11.8155H63.1044V27.6418H58.122ZM63.1044 18.9471L61.0203 17.3189C61.4328 15.4735 62.1275 14.0407 63.1044 13.0204C64.0813 12 65.4382 11.4898 67.1749 11.4898C67.9348 11.4898 68.5969 11.6092 69.1614 11.848C69.7475 12.0651 70.2577 12.4125 70.6919 12.8901L67.7285 16.635C67.5114 16.3962 67.2401 16.2117 66.9144 16.0814C66.5888 15.9512 66.2197 15.886 65.8072 15.886C64.9823 15.886 64.3201 16.1465 63.8208 16.6676C63.3432 17.1669 63.1044 17.9267 63.1044 18.9471Z" fill="white"/>
<path d="M80.0407 28C78.3256 28 76.7951 27.6526 75.4491 26.9579C74.1248 26.2415 73.0828 25.2537 72.3229 23.9946C71.5631 22.7354 71.1832 21.3134 71.1832 19.7286C71.1832 18.1438 71.5522 16.7327 72.2904 15.4953C73.0502 14.2361 74.0705 13.2483 75.3514 12.5319C76.6323 11.8155 78.076 11.4573 79.6825 11.4573C81.2456 11.4573 82.6241 11.7938 83.8182 12.4668C85.0122 13.1398 85.9457 14.0733 86.6187 15.2673C87.3134 16.4613 87.6608 17.829 87.6608 19.3704C87.6608 19.6526 87.6391 19.9566 87.5956 20.2822C87.5739 20.5862 87.5197 20.9444 87.4328 21.3569L73.7883 21.3894V17.9701L85.3161 17.9376L83.1669 19.3704C83.1452 18.4586 83.0041 17.7096 82.7435 17.1235C82.483 16.5156 82.0922 16.0597 81.5712 15.7558C81.0719 15.4301 80.4532 15.2673 79.715 15.2673C78.9335 15.2673 78.2496 15.4518 77.6635 15.8209C77.099 16.1683 76.654 16.6676 76.3283 17.3189C76.0244 17.9701 75.8724 18.7626 75.8724 19.6961C75.8724 20.6296 76.0353 21.4328 76.3609 22.1058C76.7083 22.7571 77.1859 23.2673 77.7937 23.6364C78.4233 23.9837 79.1614 24.1574 80.0081 24.1574C80.7897 24.1574 81.4952 24.0271 82.1248 23.7666C82.7544 23.4844 83.308 23.0719 83.7856 22.5292L86.521 25.2646C85.7395 26.1764 84.7951 26.8602 83.6879 27.3161C82.5807 27.7721 81.365 28 80.0407 28Z" fill="white"/>
<path d="M94.4013 27.6418L88.9305 11.8155H93.8152L97.2019 23.3107L95.7691 23.3433L99.514 11.8155H103.552L107.329 23.3433L105.864 23.3107L109.283 11.8155H114.168L108.697 27.6418H104.627L100.947 16.7001H102.184L98.4393 27.6418H94.4013Z" fill="white"/>
<path d="M123.038 27.9674C121.584 27.9674 120.281 27.6092 119.13 26.8928C118.002 26.1764 117.101 25.1995 116.428 23.962C115.776 22.7246 115.451 21.3134 115.451 19.7286C115.451 18.1438 115.776 16.7327 116.428 15.4953C117.101 14.2578 118.002 13.2809 119.13 12.5645C120.281 11.848 121.584 11.4898 123.038 11.4898C124.102 11.4898 125.057 11.6961 125.904 12.1085C126.772 12.521 127.478 13.0963 128.021 13.8345C128.563 14.5509 128.867 15.3758 128.932 16.3094V23.1479C128.867 24.0814 128.563 24.9172 128.021 25.6554C127.5 26.3718 126.805 26.9362 125.936 27.3487C125.068 27.7612 124.102 27.9674 123.038 27.9674ZM124.048 23.4735C125.111 23.4735 125.969 23.1262 126.62 22.4315C127.272 21.7151 127.597 20.8141 127.597 19.7286C127.597 18.9905 127.445 18.3392 127.141 17.7748C126.859 17.2103 126.447 16.7761 125.904 16.4722C125.383 16.1465 124.775 15.9837 124.08 15.9837C123.386 15.9837 122.767 16.1465 122.224 16.4722C121.703 16.7761 121.28 17.2103 120.954 17.7748C120.65 18.3392 120.498 18.9905 120.498 19.7286C120.498 20.445 120.65 21.0855 120.954 21.6499C121.258 22.2144 121.681 22.6594 122.224 22.9851C122.767 23.3107 123.375 23.4735 124.048 23.4735ZM127.402 27.6418V23.3758L128.151 19.5332L127.402 15.6906V11.8155H132.286V27.6418H127.402Z" fill="white"/>
</svg>
