<svg width="64" height="40" viewBox="0 0 64 40" fill="none" xmlns="http://www.w3.org/2000/svg">
<g clip-path="url(#clip0_449_14518)">
<path d="M37.2622 0.000281453L57.388 0.70309L62.7203 6.42126L61.7383 34.5422C61.7075 35.4253 60.995 36.1239 60.1241 36.15L60.0145 36.1497L45.3046 35.6353L45.305 38.075C45.305 38.8114 44.7081 39.4083 43.9717 39.4083H19.9717C19.2353 39.4083 18.6384 38.8114 18.6384 38.075L18.6379 35.5873L2.59554 36.148C1.71243 36.1788 0.965828 35.5168 0.879092 34.6499L0.871725 34.5405L-0.245059 2.55998C-0.275898 1.67687 0.386143 0.930269 1.25303 0.843533L1.36243 0.836166L21.4882 0.133357L26.3165 4.6358L26.2172 4.74133H35.4286L35.5384 1.60777C35.5693 0.72465 36.2818 0.0260534 37.1526 0L37.2622 0.000281453ZM39.3046 5.408L19.9717 5.40831C19.6298 5.40831 19.348 5.66567 19.3095 5.99723L19.305 6.07498L19.3046 25.408L32.6384 25.4083C33.0066 25.4083 33.305 25.7068 33.305 26.075V33.4083C33.305 33.7765 33.0066 34.075 32.6384 34.075L19.3046 34.0747L19.305 38.075C19.305 38.4169 19.5624 38.6987 19.894 38.7372L19.9717 38.7416H43.9717C44.3136 38.7416 44.5954 38.4843 44.6339 38.1527L44.6384 38.075L44.6379 10.7413L39.305 10.7416L39.3046 5.408ZM37.239 0.666542C36.7195 0.648401 36.2787 1.02984 36.2126 1.53495L36.2047 1.63103L36.0959 4.74133L39.9717 4.74165L45.305 10.075L45.3045 16.4943C46.3491 15.9623 47.5174 15.6985 48.7198 15.7405C52.5835 15.8754 55.6062 19.1169 55.4713 22.9805C55.3364 26.8442 52.0949 29.8669 48.2313 29.732C47.1972 29.6959 46.2033 29.436 45.3043 28.9785L45.3046 34.9687L60.0378 35.4834C60.5572 35.5016 60.998 35.1201 61.0641 34.615L61.0721 34.5189L62.0246 7.202L57.029 7.02775L56.3628 7.00448L56.5606 1.34L37.239 0.666542ZM20.7066 0.826667L1.38569 1.50243C0.866214 1.52057 0.453145 1.93183 0.422416 2.44031L0.421202 2.53672L1.53799 34.5172C1.55613 35.0367 1.96739 35.4498 2.47587 35.4805L2.57228 35.4817L18.6379 34.9207V34.0747L17.9717 34.075C17.6035 34.075 17.305 33.7765 17.305 33.4083L17.3046 29.298L12.3684 29.4705L11.7022 29.4945L8.37086 29.6101L7.70463 29.6341L7.21603 15.6426L18.6379 15.2433L18.6384 6.07498C18.6384 5.3386 19.2353 4.74165 19.9717 4.74165L20.8432 4.74133L20.7066 0.826667ZM38.6384 32.7416V33.4083H34.6384V32.7416H38.6384ZM20.8481 27.4083H19.305V32.075H20.174V30.3624H20.8781C21.9342 30.3624 22.7432 29.8844 22.7432 28.8497C22.7432 27.7651 21.9342 27.4083 20.8481 27.4083ZM24.9755 27.4083H23.6646V32.075H25.0204C26.4736 32.075 27.3575 31.2687 27.3575 29.7202C27.3575 28.179 26.4736 27.4083 24.9755 27.4083ZM31.305 27.4083H28.3462V32.075H29.2152V30.127H30.9979V29.4277H29.2152V28.1076H31.305V27.4083ZM24.9155 28.0791C25.9043 28.0791 26.4661 28.5785 26.4661 29.7202C26.4661 30.8231 25.9483 31.3604 25.0321 31.4017L24.9155 31.4042H24.5335V28.0791H24.9155ZM38.6384 29.4083V30.075H34.6384V29.4083H38.6384ZM20.7807 28.0719C21.5073 28.0719 21.8893 28.2646 21.8893 28.8497C21.8893 29.387 21.5774 29.6651 20.935 29.6959L20.8107 29.6988H20.174V28.0719H20.7807ZM48.3612 23.4051H48.4522L45.3048 28.2202C46.1947 28.7359 47.2009 29.0289 48.2545 29.0657C51.5242 29.1799 54.3014 26.7946 54.7467 23.6252L48.4522 23.4051C47.2533 23.3632 49.376 22.8212 48.3612 23.4051ZM11.5859 26.1632L8.25455 26.2795L8.3476 28.9439L11.6789 28.8275L11.5859 26.1632ZM17.3145 25.9627L12.2521 26.1399L12.3452 28.8043L17.3046 28.6313L17.305 26.075C17.305 26.0367 17.3083 25.9992 17.3145 25.9627ZM38.6384 26.075V26.7416H34.6384V26.075H38.6384ZM11.4695 22.8319L8.13822 22.9482L8.23129 25.6132L11.5626 25.4969L11.4695 22.8319ZM18.6379 22.5807L12.1358 22.8086L12.2289 25.4736L18.6379 25.2493V22.5807ZM38.6384 22.7416V23.4083H25.305V22.7416H38.6384ZM11.3532 19.5006L8.02189 19.6169L8.11496 22.2819L11.4463 22.1656L11.3532 19.5006ZM18.6379 19.2453L12.0195 19.4773L12.1125 22.1423L18.6379 21.914V19.2453ZM38.6384 19.4083V20.075H25.305V19.4083H38.6384ZM11.2369 16.1693L7.90556 16.2856L7.99862 18.9506L11.3299 18.8343L11.2369 16.1693ZM18.6379 15.9107L11.9031 16.146L11.9962 18.811L18.6379 18.5787V15.9107ZM39.9712 5.68467V10.0747H44.3612L39.9712 5.68467ZM57.2212 1.502L57.0519 6.36133L61.9112 6.53067L57.2212 1.502ZM21.3779 0.941333L21.5106 4.74133H25.4519L21.3779 0.941333Z" fill="black"/>
</g>
<defs>
<clipPath id="clip0_449_14518">
<rect width="64" height="40" fill="white"/>
</clipPath>
</defs>
</svg>
