<svg width="36" height="36" viewBox="0 0 36 36" fill="none" xmlns="http://www.w3.org/2000/svg">
<rect x="2" y="2" width="32" height="32" rx="16" fill="#F4EBFF"/>
<rect x="2" y="2" width="32" height="32" rx="16" stroke="#F9F5FF" stroke-width="4"/>
<path d="M18.668 11.333H14.0013C13.6477 11.333 13.3085 11.4735 13.0585 11.7235C12.8084 11.9736 12.668 12.3127 12.668 12.6663V23.333C12.668 23.6866 12.8084 24.0258 13.0585 24.2758C13.3085 24.5259 13.6477 24.6663 14.0013 24.6663H22.0013C22.3549 24.6663 22.6941 24.5259 22.9441 24.2758C23.1942 24.0258 23.3346 23.6866 23.3346 23.333V15.9997M18.668 11.333L23.3346 15.9997M18.668 11.333V15.9997H23.3346" stroke="#48A928" stroke-width="1.33333" stroke-linecap="round" stroke-linejoin="round"/>
</svg>
