<svg width="20" height="18" viewBox="0 0 20 18" fill="none" xmlns="http://www.w3.org/2000/svg">
<path d="M1.8822 5.45199C2.42844 4.57982 3.08103 3.78 3.86203 3.10679C4.45059 2.60035 5.91386 1.55924 5.77314 3.10968C6.28248 2.6481 6.8345 2.2263 7.418 1.86275C8.34081 1.28757 9.888 0.804637 9.45571 2.51027C11.1917 2.38511 12.9961 2.54645 14.6797 2.98163C13.7055 3.3734 12.613 3.49024 11.5915 3.68667C9.87028 4.01658 8.14909 4.56137 6.65074 5.48563C4.44011 6.84978 2.62052 9.0246 1.41736 11.2985C1.29002 11.538 0.607769 13.3645 0.296668 13.0559C-0.202904 12.5589 0.0669594 11.2667 0.120136 10.6459C0.281113 8.80393 0.900782 7.01654 1.8822 5.45199Z" fill="#10D48E"/>
<path d="M1.69484 15.0605C1.53784 15.3409 1.09434 17.0917 0.885971 17.0859C-0.192032 17.0501 1.92165 11.9408 2.15353 11.5302C3.64754 8.88768 5.87264 6.53886 8.67906 5.30856C12.3106 3.7176 17.2669 4.22405 19.9999 0.875C20.0111 2.24493 19.0474 3.55482 18.1141 4.45846C17.5744 4.98082 16.9725 5.43626 16.3401 5.83924C16.0561 6.01939 15.443 6.13877 15.4922 6.51209C15.5768 7.15781 15.3077 7.80389 14.917 8.30527C13.0334 10.7196 9.42498 10.7868 6.70863 11.4941C5.40707 11.8327 4.11491 12.3901 3.11324 13.3035C2.55543 13.8114 2.06382 14.4011 1.69484 15.0605Z" fill="#10D48E"/>
</svg>
