<svg width="64" height="64" viewBox="0 0 64 64" fill="none" xmlns="http://www.w3.org/2000/svg">
<rect width="64" height="64" rx="32" fill="#D4FFC6"/>
<path d="M52.2023 35.1855C52.3343 34.2013 52.4054 33.2012 52.4054 32.2034C52.4054 19.9609 42.4455 10.0005 30.2024 10.0005C17.9599 10.0005 8 19.9609 8 32.2034C8 36.4067 9.17998 40.4977 11.4119 44.0359C13.5609 47.4411 16.5881 50.1964 20.1715 52.0143C20.172 52.0149 20.1726 52.0154 20.1732 52.016C20.1827 52.0211 20.1935 52.0262 20.2031 52.0312C20.2313 52.0453 20.2583 52.0606 20.2865 52.0747L20.2882 52.0713C20.6312 52.2253 21.1117 52.3522 21.1117 52.3522C23.5873 52.214 25.2704 52.8959 27.0522 53.6179C28.1081 54.046 29.1995 54.4882 30.441 54.7279L30.4754 54.7347C31.1257 54.8565 32.2803 54.3951 32.9109 54.1092C33.7931 53.7098 34.9178 53.1057 36.254 52.3149C38.5908 50.9308 42.3496 48.4738 42.3772 48.4558C42.428 48.4242 42.4765 48.383 42.5216 48.3334C42.9238 47.8923 43.0863 46.824 42.9605 46.4506C42.7642 45.8634 42.3524 45.4663 41.8296 45.3614L41.8126 45.4669L41.8279 45.3609C41.521 45.3005 41.1888 45.3423 40.8419 45.4844L34.7644 47.9741C34.7142 47.8562 34.6521 47.7439 34.5765 47.643C34.3757 47.3756 34.1022 47.1951 33.7993 47.1286L30.6564 46.6587C29.9407 46.5228 29.3958 46.1878 28.8182 45.8341L28.6812 45.7501C27.949 45.3033 27.1972 44.8848 26.0516 44.6671C24.9867 44.4646 23.1124 44.7207 21.986 45.0749L21.6532 45.1792L21.4716 46.3902C21.4817 46.3891 21.4913 46.3874 21.5015 46.3857V46.3852C21.5026 46.3852 21.5037 46.3852 21.5049 46.3852C21.6194 46.3666 22.717 46.1031 22.717 46.1031C23.7909 45.8223 25.1898 45.6914 25.8784 45.8223C26.8227 46.0016 27.4414 46.3468 28.0957 46.7462L28.2299 46.8285C28.8769 47.2256 29.5464 47.6357 30.4906 47.8156L33.559 48.2725L33.5917 48.2775C33.6007 48.2787 33.6199 48.2933 33.6414 48.321C33.6916 48.3875 33.7412 48.5218 33.7175 48.6797C33.6876 48.8788 33.5528 49.0198 33.4287 49.0035L27.7736 48.2561C27.7545 48.7276 27.7144 49.4287 27.7144 49.4287L33.2894 50.1648L33.2967 50.1659C33.7671 50.2308 34.2026 50.0599 34.501 49.7328C34.5066 49.7266 34.5111 49.7192 34.5168 49.7125C34.7046 49.5635 34.8732 49.3819 35.0103 49.1642L41.3309 46.5752C41.4579 46.5228 41.5724 46.5008 41.6446 46.5138C41.7337 46.5324 41.7952 46.6537 41.829 46.7439C41.8341 46.9148 41.7337 47.3373 41.653 47.4924C41.1725 47.806 37.7775 50.0159 35.6183 51.2946C34.3176 52.0651 33.2296 52.65 32.3841 53.0324C31.388 53.4836 30.7817 53.5936 30.6452 53.5767C29.5092 53.3607 28.512 52.9563 27.4561 52.5287C25.7995 51.8575 24.0921 51.166 21.7451 51.1558C21.7451 51.1558 20.9972 51.2021 20.7541 51.0774C20.753 51.0769 20.7519 51.0774 20.7507 51.0769C16.4042 48.8968 13.0561 45.3908 11.0864 41.1836C23.1851 29.5096 32.3277 25.4693 49.694 24.1123C50.7324 26.6048 51.3072 29.3375 51.3072 32.2018C51.3072 33.1127 51.2457 34.0253 51.1301 34.9244L47.4108 34.0242L50.6534 39.3358L55.9656 36.0942L52.2023 35.1855ZM32.9566 11.278C33.2922 11.802 33.471 12.4061 33.471 13.0328C33.471 14.8293 32.0096 16.2907 30.2131 16.2907C28.4166 16.2907 26.9552 14.8293 26.9552 13.0328C26.9552 12.4067 27.1334 11.7992 27.4702 11.2752C28.3647 11.159 29.2768 11.0987 30.203 11.0987C31.1359 11.0981 32.0547 11.1602 32.9566 11.278ZM9.63685 27.4542C9.9059 26.2895 10.272 25.1614 10.7255 24.0784C16.8024 23.9566 22.8151 25.1856 28.2299 27.6499C26.8232 28.2608 25.4532 28.9416 24.1028 29.6991C19.3248 27.7729 14.0313 27.5574 9.63685 27.4542ZM22.88 30.4087C21.6103 31.1713 20.3531 32.006 19.0936 32.9181C15.8673 32.1786 12.5123 31.8278 9.10214 31.8735C9.11962 30.7409 9.22566 29.6303 9.41575 28.5473C13.5084 28.6415 18.4212 28.8141 22.88 30.4087ZM9.11173 32.9711C12.1119 32.9299 15.0669 33.2035 17.9243 33.7867C15.5463 35.5967 13.1441 37.691 10.6177 40.1125C9.72033 37.8772 9.20028 35.4681 9.11173 32.9711ZM29.5966 27.0825C23.9528 24.339 17.6327 22.9266 11.2258 22.9746C14.0832 17.1221 19.5696 12.7795 26.1379 11.4924C25.9529 11.9814 25.857 12.502 25.857 13.0322C25.857 13.2793 25.879 13.5212 25.9185 13.757C24.3916 14.1874 23.0255 14.5737 23.0255 14.5737C22.7339 14.6561 22.5641 14.9595 22.647 15.2512C22.7153 15.4931 22.9353 15.6505 23.175 15.6505C23.2246 15.6505 23.2748 15.6437 23.3245 15.6296C23.3245 15.6296 24.7019 15.2399 26.2366 14.8073C26.531 15.4644 26.9834 16.0352 27.5458 16.4717L26.2191 18.658C26.0618 18.9169 26.1447 19.2547 26.4036 19.4121C26.4927 19.4662 26.5908 19.4916 26.6878 19.4916C26.8734 19.4916 27.0545 19.3974 27.1577 19.2277L28.4905 17.0318C29.019 17.2603 29.6011 17.3872 30.2125 17.3872C30.8809 17.3872 31.5149 17.2355 32.0818 16.9647L33.559 19.2418C33.6639 19.4036 33.8405 19.4922 34.0198 19.4922C34.1225 19.4922 34.2257 19.4634 34.3182 19.4036C34.5726 19.2384 34.6448 18.8988 34.4801 18.6444L33.0051 16.3713C33.5111 15.9478 33.9189 15.4119 34.1907 14.8022L37.1001 15.6296C37.1503 15.6437 37.2005 15.6505 37.2507 15.6505C37.4898 15.6505 37.7098 15.4931 37.7786 15.2517C37.8615 14.9601 37.6923 14.6567 37.4007 14.5737L34.5083 13.7508C34.5472 13.5167 34.5686 13.2764 34.5686 13.0317C34.5686 12.5015 34.4722 11.9831 34.2889 11.4958C40.8763 12.7942 46.3735 17.1655 49.2174 23.0502C41.3552 23.687 35.1564 24.8799 29.5966 27.0825Z" fill="black"/>
<path d="M48.6067 29.0453L47.852 29.1429C46.7448 29.2856 46.3934 29.17 45.2275 28.7847L45.1841 28.7706C44.8959 28.6759 44.5857 28.8321 44.4909 29.1198C44.3956 29.4074 44.5524 29.7182 44.84 29.813L44.8835 29.8277C45.8198 30.1368 46.363 30.3156 47.191 30.2975C46.9428 31.0877 46.4256 32.4036 45.4757 33.569C44.1412 35.2058 41.2742 35.4354 40.9972 35.454C40.7756 35.4455 39.4625 35.4066 38.0123 35.6339C36.904 35.8082 36.0026 36.0913 35.3117 36.4805C36.0444 34.9847 37.2757 32.6738 40.4552 32.6738C40.502 32.6738 40.5494 32.6744 40.5968 32.6755C40.8929 32.6828 41.1506 32.4414 41.1574 32.1385C41.1636 31.8356 40.9233 31.5846 40.6204 31.5779C36.8679 31.5006 35.2643 34.1341 34.4549 35.7388C34.6354 34.2368 34.9992 32.4984 35.5322 31.6512C36.4155 30.249 38.4596 28.0436 42.2251 29.0329C42.4367 29.0888 42.6352 29.1423 42.8236 29.1948C43.1146 29.2766 43.4181 29.1051 43.4993 28.8129C43.5805 28.5208 43.4096 28.2184 43.1175 28.1372C42.9246 28.0836 42.7209 28.0284 42.5043 27.9714C39.2583 27.1191 36.3788 28.2472 34.6032 31.0669C34.1278 31.8221 33.7363 33.2424 33.4943 34.6767C32.7673 33.2537 31.6386 32.2677 30.1862 31.8058C26.1612 30.5243 22.0268 33.3563 21.8531 33.4776L19.2754 35.2729L22.3088 34.4584C22.3252 34.4528 24.1532 34.1809 27.238 38.2285C28.4055 39.7604 29.6447 40.536 30.9234 40.536C30.9669 40.536 31.0103 40.5349 31.0537 40.5332C32.1023 40.4903 32.9404 39.9285 33.5 39.4057C33.5079 40.0616 33.5158 40.8017 33.5242 41.5434C33.5417 43.1193 33.5592 44.6975 33.571 45.4669C33.5756 45.7669 33.8203 46.0072 34.1199 46.0072C34.1227 46.0072 34.1255 46.0072 34.1289 46.0072C34.4318 46.0021 34.6737 45.7528 34.6692 45.4499C34.6574 44.6817 34.6399 43.1052 34.6224 41.531C34.6123 40.602 34.6021 39.6753 34.5925 38.9144C34.7082 38.7689 34.8018 38.5889 34.8853 38.4005C35.645 36.6858 39.5403 36.485 40.9769 36.5522L41.0029 36.5533L41.0288 36.5522C41.1743 36.5454 44.6189 36.3581 46.3269 34.2627C47.9677 32.2497 48.4415 29.8925 48.4612 29.7933L48.6067 29.0453ZM31.0035 39.4361C30.0621 39.4773 29.0863 38.8422 28.1111 37.5629C26.2814 35.1624 24.7923 34.1116 23.7426 33.666C25.1634 32.9739 27.573 32.1261 29.854 32.8515C31.2551 33.2971 32.254 34.3141 32.8231 35.8742C32.9602 36.2498 33.0549 36.6137 33.1209 36.9385C32.9506 36.7456 32.765 36.5505 32.562 36.3519C32.3454 36.1399 31.9979 36.1438 31.7858 36.3604C31.5738 36.577 31.5777 36.9244 31.7943 37.1365C32.263 37.5951 32.6246 38.026 32.9004 38.4541C32.4858 38.8817 31.8174 39.4051 31.0035 39.4361Z" fill="black"/>
<path d="M31.3269 41.5648C30.1559 42.0702 28.95 41.7267 27.7413 40.5445C27.5247 40.3324 27.1772 40.3364 26.9651 40.553C26.7531 40.7695 26.757 41.117 26.9736 41.3291C28.184 42.513 29.3144 42.8909 30.2637 42.8909C30.8362 42.8909 31.3427 42.7538 31.7618 42.5728C32.0404 42.4527 32.1684 42.1295 32.0483 41.8514C31.9282 41.5733 31.605 41.4447 31.3269 41.5648Z" fill="black"/>
<path d="M30.6209 34.841C30.3829 34.7005 30.1443 34.5792 29.9119 34.4794C29.6333 34.3598 29.3107 34.489 29.1911 34.7682C29.0715 35.0468 29.2007 35.3695 29.4799 35.489C29.6694 35.5703 29.8662 35.6707 30.0642 35.7874C30.1516 35.8387 30.2475 35.8636 30.3423 35.8636C30.5301 35.8636 30.7134 35.7666 30.8155 35.5934C30.9689 35.3311 30.8821 34.9944 30.6209 34.841Z" fill="black"/>
</svg>
