<svg width="64" height="64" viewBox="0 0 64 64" fill="none" xmlns="http://www.w3.org/2000/svg">
<rect width="64" height="64" rx="32" fill="#D4FFC6"/>
<g clip-path="url(#clip0_318_51775)">
<path d="M22.317 15.2152H22.3158L16.3363 15.2023C16.0059 15.2018 15.7381 14.934 15.7375 14.6035L15.7246 8.60117C15.724 8.27012 15.9918 8.00059 16.3234 8H16.3246C16.6557 8 16.924 8.26777 16.9246 8.59883L16.9363 14.0035L22.3182 14.0152C22.6498 14.0158 22.9176 14.2854 22.917 14.6164C22.9164 14.9475 22.648 15.2152 22.317 15.2152Z" fill="black"/>
<path d="M51.4039 45.6834C51.2885 45.6834 51.1719 45.65 51.0688 45.5809C50.794 45.3951 50.7219 45.0219 50.9071 44.7477C53.4541 40.9771 54.8006 36.5691 54.8006 32C54.8006 19.4281 44.5725 9.2 32.0006 9.2C26.5778 9.2 21.3231 11.1365 17.2045 14.6527C16.9532 14.8666 16.5747 14.8385 16.3584 14.5859C16.1434 14.334 16.1733 13.9549 16.4252 13.7398C20.7606 10.0385 26.2918 8 32.0006 8C45.234 8 56.0006 18.7666 56.0006 32C56.0006 36.8094 54.5832 41.45 51.902 45.4191C51.786 45.5908 51.5967 45.6834 51.4039 45.6834Z" fill="black"/>
<path d="M32 56C18.7666 56 8 45.2334 8 32C8 27.1906 9.41738 22.55 12.0986 18.5809C12.2844 18.3067 12.6559 18.234 12.9318 18.4192C13.2066 18.6049 13.2787 18.9781 13.0936 19.2524C10.5465 23.0229 9.2 27.4309 9.2 32C9.2 44.5719 19.4281 54.8 32 54.8C37.5799 54.8 42.9494 52.7633 47.1207 49.0654C47.368 48.8451 47.7471 48.8668 47.9674 49.1164C48.1871 49.3643 48.1648 49.7434 47.9164 49.9631C43.526 53.8561 37.8734 56 32 56Z" fill="black"/>
<path d="M47.6373 55.9999C47.3062 55.9999 47.0379 55.7321 47.0373 55.4011L47.0262 49.9847H41.6449C41.3133 49.9847 41.0449 49.7163 41.0449 49.3847C41.0449 49.053 41.3133 48.7847 41.6449 48.7847H47.625C47.9561 48.7847 48.2244 49.0524 48.225 49.3835L48.2373 55.3987C48.2379 55.7298 47.9701 55.9993 47.6385 55.9999H47.6373Z" fill="black"/>
<path d="M32.0004 48.7946C31.6688 48.7946 31.4004 48.5263 31.4004 48.1946V26.0614C31.4004 25.7298 31.6688 25.4614 32.0004 25.4614C32.332 25.4614 32.6004 25.7298 32.6004 26.0614V48.1946C32.6004 48.5263 32.332 48.7946 32.0004 48.7946Z" fill="black"/>
<path d="M31.9993 39.109C29.6743 39.109 27.5116 37.9495 26.2143 36.0077C26.0303 35.7317 26.1047 35.3596 26.3801 35.1751C26.6561 34.9917 27.0282 35.0661 27.2127 35.3409C28.2862 36.9493 30.0756 37.909 31.9993 37.909C33.9229 37.909 35.7123 36.9493 36.7858 35.3409C36.9698 35.0661 37.3412 34.9917 37.6184 35.1751C37.8938 35.3596 37.9682 35.7317 37.7842 36.0077C36.4869 37.9495 34.3243 39.109 31.9993 39.109Z" fill="black"/>
<path d="M32 31.6256C30.3319 31.6256 28.7815 30.7942 27.851 29.402C27.667 29.126 27.7414 28.7539 28.0168 28.5694C28.2934 28.3854 28.6649 28.4604 28.8494 28.7352C29.5561 29.794 30.7338 30.4256 32 30.4256C33.2662 30.4256 34.444 29.794 35.1506 28.7352C35.3346 28.4604 35.7061 28.3854 35.9832 28.5694C36.2586 28.7539 36.333 29.126 36.1491 29.402C35.2186 30.7942 33.6682 31.6256 32 31.6256Z" fill="black"/>
<path d="M32.0008 45.229C25.4172 45.229 20.0605 39.8723 20.0605 33.2887C20.0605 24.7698 31.1518 15.72 31.624 15.3385C31.8432 15.1616 32.1584 15.1616 32.3775 15.3385C32.8498 15.72 43.941 24.7698 43.941 33.2887C43.941 39.8723 38.5844 45.229 32.0008 45.229ZM32.0008 16.5889C30.0566 18.2547 21.2605 26.186 21.2605 33.2887C21.2605 39.2108 26.0787 44.029 32.0008 44.029C37.9228 44.029 42.741 39.2108 42.741 33.2887C42.741 26.1807 33.9461 18.2547 32.0008 16.5889Z" fill="black"/>
</g>
<defs>
<clipPath id="clip0_318_51775">
<rect width="48" height="48" fill="white" transform="translate(8 8)"/>
</clipPath>
</defs>
</svg>
