<svg width="28" height="32" viewBox="0 0 28 32" fill="none" xmlns="http://www.w3.org/2000/svg">
<g clip-path="url(#clip0_394_284)">
<path d="M16.1989 30.239C16.085 30.9558 15.7176 31.3295 15.2734 31.3295C14.9905 31.3295 14.8292 31.1311 14.8766 30.8265L15.0315 29.8562C15.0903 29.4966 15.3067 29.2137 15.6933 29.2137C16.1221 29.2137 16.3167 29.5042 16.1989 30.239ZM14.682 31.6649C14.7409 31.6649 14.8842 31.9145 15.354 31.9145C16.35 31.9145 16.9196 31.1951 17.0733 30.2646C17.2717 29.119 16.7135 28.5967 16.012 28.5967C15.6818 28.5967 15.4347 28.6262 15.2555 28.7222L15.5243 27.1465H14.6973L13.8742 31.8556H14.4989C14.4989 31.8556 14.5873 31.661 14.6858 31.661H14.682V31.6649ZM23.4764 29.6591C23.6019 28.9462 23.3369 28.598 22.565 28.598C21.9876 28.598 21.7636 28.8514 21.5473 29.0678L21.569 28.671L20.8048 28.6748L20.7459 29.2623L20.3017 31.8633H21.1389L21.4078 30.1775C21.5038 29.5977 21.9032 29.1522 22.2821 29.1522C22.7007 29.1522 22.6968 29.3916 22.6316 29.759L22.268 31.8671H23.0988L23.4764 29.6591ZM26.975 28.6044H25.9983L24.8743 29.7948L24.8602 29.791L25.3083 27.1529H24.4929L23.6697 31.8582H24.4967L24.5812 31.3884L24.7502 30.3567C25.188 30.3567 25.4337 30.4041 25.6245 31.2758L25.7563 31.8594H26.6012C26.6012 31.8594 26.3913 30.9698 26.2517 30.6217C26.1084 30.2543 25.9509 30.015 25.6155 29.9497L26.975 28.6044ZM2.95093 29.7577C3.55771 29.6258 3.87006 29.1369 3.95455 28.8169C4.17089 27.9426 3.78173 27.2591 2.66547 27.2706H1.38534L0.583984 31.862H1.41734L1.74762 30.0175C2.51569 29.9958 2.61042 30.1826 2.75379 31.0786L2.88565 31.8607H3.74845C3.64604 31.3871 3.57947 30.9391 3.49499 30.5782C3.40666 30.1993 3.26328 29.9062 2.90357 29.7666L2.95093 29.7577ZM3.11991 28.6633C3.04694 29.0716 2.73075 29.357 2.34159 29.357H1.84875L2.10221 27.9055L2.55025 27.9017C3.07895 27.9068 3.18135 28.255 3.11991 28.6633ZM6.88475 29.5337C7.00636 28.8399 6.63129 28.5967 5.88114 28.5967C4.94409 28.5967 4.53701 29.0409 4.53701 29.0409L4.82375 29.526C4.82375 29.526 5.12458 29.1727 5.73136 29.1727C6.06931 29.1727 6.07699 29.3417 6.04371 29.526L5.97715 29.9407C4.77255 29.9113 4.15425 30.1686 4.01472 30.9583C3.90078 31.6047 4.38595 31.917 4.93384 31.917C5.21675 31.917 5.44461 31.8761 5.71984 31.6342C5.77489 31.789 5.87089 31.8735 5.97715 31.8914C6.14996 31.9286 6.45079 31.8876 6.53912 31.821C6.53144 31.725 6.53912 31.4793 6.64153 30.902L6.88475 29.5337ZM5.8965 30.3785C5.76464 31.3257 5.63535 31.4217 5.17963 31.4217C4.86728 31.4217 4.75335 31.2092 4.80455 30.9289C4.8788 30.5436 5.16555 30.3785 5.8965 30.3785ZM20.1046 29.5337C20.2262 28.8399 19.8511 28.5967 19.101 28.5967C18.1639 28.5967 17.7594 29.0409 17.7594 29.0409L18.0462 29.526C18.0462 29.526 18.347 29.1727 18.9538 29.1727C19.2917 29.1727 19.2994 29.3417 19.2661 29.526L19.1995 29.9407C17.9949 29.9113 17.3766 30.1686 17.2371 30.9583C17.1232 31.6047 17.6083 31.917 18.1562 31.917C18.4391 31.917 18.667 31.8761 18.9422 31.6342C18.9973 31.789 19.0933 31.8735 19.1995 31.8914C19.3724 31.9286 19.6732 31.8876 19.7615 31.821C19.7538 31.725 19.7615 31.4793 19.8639 30.902L20.1046 29.5337ZM19.1163 30.3785C18.9845 31.3257 18.8552 31.4217 18.3995 31.4217C18.0871 31.4217 17.9732 31.2092 18.0244 30.9289C18.0986 30.5436 18.3854 30.3785 19.1163 30.3785ZM8.55659 31.9183C9.55253 31.9183 10.1222 31.1977 10.2758 30.2684C10.4742 29.1228 9.91609 28.6006 9.21458 28.6006C8.88431 28.6006 8.64876 28.63 8.46186 28.726L8.73069 27.1503H7.89989L7.07677 31.8594H7.70147C7.70147 31.8594 7.7898 31.6649 7.88197 31.6649C7.94726 31.6649 8.09063 31.9183 8.55659 31.9183ZM8.90607 29.2137C9.33235 29.2137 9.51285 29.5004 9.413 30.239C9.31059 30.9916 8.93167 31.3295 8.47979 31.3295C8.19688 31.3295 8.03558 31.1311 8.09063 30.8265L8.24808 29.8562C8.30697 29.4966 8.52331 29.2137 8.90223 29.2137H8.90607ZM10.6291 30.5257C10.7571 29.3276 11.2973 28.5865 12.5839 28.5865C13.5388 28.5865 13.8512 29.3135 13.727 30.0969C13.5209 31.35 13.0357 31.9375 11.8132 31.9375C11.0144 31.9362 10.5446 31.2898 10.6291 30.5257ZM12.8514 30.1545C12.9141 29.8242 12.9769 29.1804 12.4072 29.1804C12.0257 29.1804 11.6647 29.4415 11.5034 30.3529C11.4049 30.9071 11.5111 31.3564 11.9553 31.3564C12.2856 31.3526 12.6786 31.0838 12.8514 30.1545Z" fill="#23394E"/>
<path d="M5.33722 16.2531C4.67923 17.5677 4.88917 19.4493 6.27811 20.8112C7.85778 22.3613 10.3271 23.2944 13.6887 23.2944C17.0619 23.2944 19.5299 22.3318 21.0405 20.8112C22.5242 19.32 22.5792 17.3795 21.9737 16.2083C21.7279 15.7347 21.3964 15.2969 20.9445 14.8822C21.2824 15.2265 21.5577 15.6029 21.7612 15.9984C21.7689 16.0125 21.7753 16.0317 21.783 16.0457C21.8124 16.1046 21.8419 16.1673 21.8675 16.2288C21.9929 16.5193 22.0761 16.8163 22.1171 17.1184C22.2092 17.7865 22.0876 18.4445 21.7458 19.0909C21.5359 19.4838 21.2466 19.8729 20.8677 20.2441C19.329 21.7533 16.7047 22.6838 13.6631 22.6838C10.8046 22.6838 8.32118 21.8646 6.75175 20.5168C6.64934 20.4285 6.54949 20.3363 6.45732 20.2454C5.11319 18.9257 4.86613 17.4166 5.5382 16.0457C5.55228 16.0163 5.56764 15.9869 5.58172 15.9574C5.78782 15.5683 6.06305 15.2009 6.39332 14.863C6.39716 14.8592 6.40356 14.8528 6.4074 14.8477C5.98496 15.2675 5.64573 15.6349 5.33722 16.2531Z" fill="#23394E"/>
<path d="M18.4383 13.2651C17.0122 12.6738 15.3519 12.3691 13.666 12.3691C11.9801 12.3691 10.3185 12.6738 8.89368 13.2651C7.33193 13.9115 6.12349 14.8741 5.54615 16.0466C4.87409 17.4162 5.11987 18.9266 6.46528 20.245C8.00527 21.7554 10.6282 22.6847 13.6698 22.6847C16.7114 22.6847 19.3356 21.7554 20.8744 20.245C22.2185 18.9266 22.4655 17.4162 21.7896 16.0466C21.2046 14.8741 20 13.9128 18.4383 13.2651Z" fill="#23394E"/>
<path d="M13.9595 16.2158C13.9595 16.2158 13.8238 16.253 13.6727 16.2926C13.683 16.6459 13.6945 17.0056 13.706 17.3653C13.9441 16.9941 14.1131 16.6088 14.2129 16.212C14.1797 16.2082 14.1425 16.2082 14.1105 16.2082C14.0593 16.2082 14.0068 16.212 13.9595 16.2158ZM13.6625 15.988C13.6625 16.0315 13.6663 16.0763 13.6663 16.1198C13.7073 16.061 13.747 16.0098 13.7879 15.9611C13.7739 15.9534 13.7585 15.947 13.7444 15.9394C13.7175 15.9586 13.6919 15.9726 13.6625 15.988ZM13.6625 15.8958C12.0675 15.9214 10.8078 15.9957 9.23967 16.1275C10.6171 16.1314 11.686 16.1826 13.0864 16.2926C12.0905 16.9058 11.1176 17.5598 10.169 18.2434C11.1535 17.6878 12.1571 17.163 13.1748 16.6741C13.1492 16.5602 13.1236 16.4462 13.098 16.3323L13.0903 16.2914C13.281 16.1736 13.4756 16.0558 13.6663 15.9381C13.6625 15.9253 13.6625 15.9112 13.6625 15.8958ZM13.6625 15.8958C13.6766 15.9035 13.6881 15.9099 13.7022 15.9189C13.6881 15.9266 13.6727 15.9368 13.6625 15.9445C13.6702 15.9406 13.6727 15.9368 13.6804 15.933L13.706 15.9189C13.7201 15.9112 13.7355 15.8997 13.7495 15.8933C13.7175 15.892 13.6919 15.892 13.6625 15.8958ZM13.747 15.892C13.7841 15.892 13.8174 15.892 13.8532 15.892C13.8968 15.8446 13.9416 15.796 13.9928 15.7486C13.9083 15.7973 13.8276 15.8446 13.747 15.892ZM14.2949 15.1906C14.2949 15.1944 14.2987 15.2008 14.2987 15.2046C14.2974 15.2021 14.2974 15.1944 14.2949 15.1906ZM12.4976 15.5874C12.696 15.5656 12.8983 15.5438 13.0967 15.5246C12.2928 15.0766 11.4696 14.6581 10.6273 14.2869C11.2712 14.6914 11.8908 15.1278 12.4976 15.5874ZM13.0967 15.5246C13.3092 15.6424 13.523 15.7627 13.7355 15.8882C13.7393 15.892 13.7431 15.892 13.7457 15.8958C13.7457 15.1099 13.7457 14.324 13.7457 13.533C13.5076 14.1883 13.2951 14.8565 13.0967 15.5246ZM13.7355 13.1336C11.5746 13.1336 8.11828 13.8722 7.57422 16.363C7.48206 16.7816 7.48974 17.1643 7.57422 17.5125C7.88273 18.6146 8.98108 19.371 10.2343 19.8485C11.5541 19.3826 12.5821 18.7067 13.2759 17.9234C13.2068 17.611 13.1364 17.2987 13.0634 16.9826C11.7846 17.5854 10.6235 18.1614 9.35616 18.8334C10.2522 17.9438 11.101 17.1771 12.0636 16.3618C10.6964 16.2734 9.38944 16.2555 7.99283 16.2363C9.36256 15.9381 10.7195 15.7077 12.111 15.531C11.4568 15.0165 10.8168 14.539 10.1153 14.091L10.009 14.0245C11.0638 14.292 12.0636 14.612 13.0839 14.987C13.2861 14.3842 13.4986 13.7851 13.7419 13.1976C13.7393 13.1771 13.7393 13.1554 13.7355 13.1336ZM8.89019 13.2654C7.3694 13.8978 6.18273 14.8232 5.58747 15.9586C5.57339 15.988 5.55803 16.0174 5.54395 16.0469C4.86804 17.4165 5.11767 18.9269 6.46308 20.2453C6.55909 20.3374 6.65382 20.4296 6.75751 20.5166C7.89682 20.4501 8.9286 20.2632 9.83236 19.9842C8.62393 19.4696 7.60239 18.6914 7.3374 17.5854C7.23115 17.2002 7.21579 16.7701 7.32332 16.299C7.89938 13.7237 11.4748 12.9557 13.7163 12.9557C13.7201 12.9557 13.7265 12.9557 13.7303 12.9557C13.7303 12.7496 13.7521 12.5512 13.7777 12.3682C13.738 12.3682 13.7009 12.3682 13.6599 12.3682C11.9766 12.3694 10.315 12.6741 8.89019 13.2654Z" fill="#23394E"/>
<path fill-rule="evenodd" clip-rule="evenodd" d="M10.0129 14.0235C11.0677 14.291 12.0662 14.611 13.0877 14.9861C13.29 14.3793 13.5025 13.7777 13.7496 13.1902C13.9953 13.7816 14.2091 14.3806 14.4114 14.9861C15.4291 14.611 16.4135 14.3025 17.4683 14.0389C16.7259 14.5048 16.0717 14.9835 15.3856 15.5224C16.7783 15.699 18.0828 15.9307 19.4525 16.2277C18.0853 16.1982 16.7963 16.2456 15.4329 16.3339C16.3956 17.1493 17.2187 17.939 18.1148 18.8286C16.8871 18.1272 15.7376 17.5397 14.4588 16.9368C14.213 18.0056 13.9774 19.0782 13.7496 20.1509C13.5255 19.0782 13.3156 18.0568 13.0698 16.988C11.791 17.5909 10.6299 18.1669 9.36258 18.8389C10.2587 17.9493 11.1074 17.1825 12.07 16.3672C10.7029 16.2789 9.39586 16.2609 7.99925 16.2417C9.37026 15.9448 10.7259 15.7131 12.1174 15.5365C11.4274 14.9899 10.7515 14.4907 10.0129 14.0235ZM13.7496 15.8936C13.7496 15.1077 13.7496 14.3217 13.7496 13.532C13.5102 14.1899 13.2977 14.8542 13.0993 15.5237C13.3169 15.644 13.5332 15.7694 13.7496 15.8936ZM10.6273 14.2846C11.4722 14.6558 12.2915 15.0744 13.0967 15.5224C12.8983 15.5403 12.696 15.5633 12.4976 15.5851C11.8908 15.1294 11.27 14.6929 10.6273 14.2846ZM13.7496 15.8936C15.3766 15.8974 17.0011 15.9781 18.6179 16.1393C17.1957 15.8821 15.8182 15.6875 14.396 15.5224C14.1758 15.644 13.9633 15.7656 13.7496 15.8936ZM16.8654 14.2846C16.0205 14.6558 15.1974 15.0744 14.3935 15.5224C14.3602 15.4123 14.3269 15.3022 14.2949 15.1921C15.1385 14.8542 15.9987 14.5496 16.8654 14.2846ZM13.6612 15.8936C13.6945 17.0328 13.738 18.2449 13.7457 19.347C13.9582 18.3256 14.1797 17.308 14.4139 16.2904C14.1938 16.1547 13.8853 16.0229 13.6612 15.8936ZM17.3314 18.2449C16.3841 17.5614 15.4137 16.9073 14.4178 16.2904C14.62 16.2763 14.8261 16.2571 15.0271 16.2469C15.8182 16.8856 16.5863 17.5537 17.3314 18.2449ZM13.7496 15.8936C12.1148 15.9153 10.836 15.9896 9.24225 16.1291C10.6197 16.1329 11.6886 16.1841 13.089 16.2942C13.3054 16.1585 13.5255 16.0254 13.7496 15.8936ZM10.1678 18.2449C11.1189 17.5614 12.0892 16.9073 13.0852 16.2942C13.1146 16.4222 13.1441 16.5477 13.1735 16.6757C12.152 17.1646 11.1522 17.6907 10.1678 18.2449ZM13.9083 22.3755C13.9083 21.9313 13.9083 21.4897 13.9045 21.0494C13.8571 21.0161 13.7944 20.9829 13.747 20.9496C13.6996 20.9829 13.6292 21.0161 13.5819 21.0494C13.5819 21.4897 13.5819 21.9352 13.5819 22.3755C13.6331 22.4088 13.6996 22.4459 13.747 22.4817C13.7944 22.4485 13.8609 22.4113 13.9083 22.3755ZM6.03426 19.1665C6.00866 19.2139 5.98305 19.2651 5.95745 19.3176C6.00482 19.3355 6.10083 19.3649 6.14179 19.3841C6.60519 19.1384 7.06348 18.8888 7.5192 18.6494C7.53712 18.579 7.54864 18.5393 7.56657 18.4881C7.5192 18.4766 7.47056 18.4625 7.42703 18.451C6.95979 18.6827 6.49638 18.9208 6.03426 19.1665ZM5.69247 16.444C5.64894 16.4773 5.60798 16.5105 5.56445 16.5464L5.63486 16.6424C6.06882 16.5797 6.5015 16.5285 6.93547 16.4849C6.97643 16.444 7.02379 16.4005 7.06348 16.3633L6.98667 16.2865C6.55527 16.3301 6.12515 16.3813 5.69247 16.444ZM7.35791 14.2488C7.31438 14.2667 7.26958 14.2859 7.22605 14.3038L7.23757 14.4024C7.55761 14.4459 7.87636 14.5009 8.19255 14.5637C8.23351 14.5381 8.28856 14.5048 8.32824 14.4869L8.31032 14.4024C7.99413 14.3448 7.6741 14.2936 7.35791 14.2488ZM17.1124 12.8945C16.9435 13.0008 16.7783 13.1109 16.6132 13.2184L16.6606 13.2734C16.7041 13.2734 16.7451 13.2734 16.7886 13.2734C16.9499 13.1595 17.1125 13.0494 17.2814 12.9432L17.2341 12.8958C17.1931 12.8945 17.1521 12.8945 17.1124 12.8945ZM13.6331 12.4337C13.6331 12.5656 13.6331 12.6949 13.6292 12.8229L13.7252 12.8561L13.8213 12.8229C13.8213 12.6949 13.8174 12.5617 13.8174 12.4337L13.7252 12.4043L13.6331 12.4337ZM10.1409 12.9534C10.3099 13.0597 10.4712 13.1697 10.6337 13.2875C10.6747 13.2875 10.7362 13.276 10.7771 13.276L10.8245 13.2209C10.6632 13.107 10.4981 13.0008 10.3291 12.8945C10.2881 12.8945 10.2484 12.8945 10.2075 12.8945L10.1409 12.9534ZM9.1232 21.5653C9.44707 21.1761 9.77734 20.7896 10.1038 20.4081C10.0859 20.371 10.0564 20.3057 10.041 20.2648C9.97448 20.2763 9.89383 20.2904 9.82855 20.3057C9.49443 20.6872 9.16672 21.0737 8.84413 21.459C8.85821 21.5064 8.89149 21.5512 8.90686 21.5985C8.97214 21.5793 9.05663 21.5793 9.1232 21.5653ZM21.3522 19.1665C20.8927 18.9208 20.4267 18.6814 19.9594 18.4497C19.9159 18.4613 19.8673 18.4753 19.8199 18.4869C19.8378 18.5381 19.8494 18.579 19.8673 18.6481C20.323 18.8875 20.7826 19.1371 21.2447 19.3829C21.2857 19.3649 21.3804 19.3355 21.429 19.3163C21.4034 19.2664 21.3778 19.2152 21.3522 19.1665ZM21.694 16.444C21.2639 16.3813 20.8312 16.3301 20.4011 16.2865L20.3243 16.3633C20.3652 16.4005 20.4126 16.444 20.4523 16.4849C20.8863 16.5285 21.3189 16.5809 21.7529 16.6424L21.8233 16.5464C21.7785 16.5093 21.7375 16.476 21.694 16.444ZM20.0324 14.2488C19.7124 14.2923 19.3936 14.3448 19.0736 14.4037L19.0595 14.4881C19.1005 14.5061 19.1555 14.5393 19.1952 14.5649C19.5114 14.5022 19.8314 14.4472 20.1502 14.4037L20.1643 14.3051C20.1195 14.2859 20.0759 14.268 20.0324 14.2488ZM18.2633 21.5653C18.3183 21.5729 18.4143 21.587 18.4796 21.5985C18.5014 21.555 18.5206 21.5064 18.5423 21.459C18.2185 21.0737 17.892 20.6872 17.5579 20.3057C17.4914 20.2917 17.4107 20.2763 17.3454 20.2648C17.3314 20.3057 17.3019 20.371 17.2827 20.4081C17.613 20.7896 17.9394 21.1761 18.2633 21.5653Z" fill="white"/>
<path fill-rule="evenodd" clip-rule="evenodd" d="M13.7145 15.912L13.7478 15.8903V15.9376C13.5276 16.0695 13.31 16.1988 13.0936 16.3306L13.0859 16.2896C13.2844 16.168 13.4828 16.0477 13.6812 15.93L13.7145 15.912ZM14.3942 15.5216C14.3609 15.4116 14.3277 15.3015 14.2957 15.1914V15.2311C14.3251 15.3309 14.3545 15.4295 14.384 15.528L14.3942 15.5216Z" fill="#23394E"/>
<path fill-rule="evenodd" clip-rule="evenodd" d="M13.7464 13.2294C13.9922 13.8208 14.206 14.4198 14.4083 15.0253C15.3927 14.6618 16.3413 14.3674 17.359 14.1037L17.4652 14.0371C16.4104 14.3059 15.4298 14.6106 14.4083 14.9843C14.206 14.3776 13.9935 13.7798 13.7464 13.1885C13.5007 13.7798 13.2869 14.3789 13.0846 14.9843C12.0669 14.6093 11.0646 14.2906 10.0098 14.0218L10.116 14.0883C11.1337 14.3533 12.1002 14.6618 13.0846 15.0253C13.2869 14.4186 13.4994 13.8208 13.7464 13.2294Z" fill="#23394E"/>
<path fill-rule="evenodd" clip-rule="evenodd" d="M6.0292 19.2427L5.98568 19.3233L5.95624 19.3118C5.98184 19.2606 6.00744 19.2132 6.03304 19.1608C6.49645 18.915 6.95857 18.6756 7.42582 18.444C7.47318 18.4555 7.51799 18.4696 7.56535 18.4811L7.53975 18.5617C7.50263 18.5502 7.45142 18.5438 7.4143 18.5323C6.94833 18.7652 6.49261 18.9969 6.0292 19.2427ZM5.70917 16.5035C6.13929 16.4408 6.56174 16.3896 6.99826 16.3422L7.04178 16.3857L7.06738 16.3601L6.99058 16.2833C6.55662 16.3268 6.12777 16.3832 5.69381 16.4446C5.65285 16.4817 5.60932 16.515 5.56836 16.547L5.5978 16.588L5.70917 16.5035ZM7.36437 14.3249C7.68056 14.3684 8.32703 14.4977 8.33471 14.4939L8.31679 14.4094C7.99675 14.3467 7.68056 14.2955 7.36181 14.252C7.31829 14.2699 7.27348 14.2891 7.22996 14.307L7.23764 14.3736L7.36437 14.3249Z" fill="#23394E"/>
<path fill-rule="evenodd" clip-rule="evenodd" d="M14.4137 16.2904C15.4135 16.9036 16.3825 17.5615 17.3273 18.245V18.3039C16.0779 17.404 15.0896 16.7576 14.4099 16.3391C14.1743 17.3567 13.958 18.3666 13.7455 19.388V19.3471C13.9554 18.3372 14.1833 17.2927 14.4137 16.2904ZM15.4724 16.3711L15.4288 16.334V16.3967C16.3582 17.1826 17.1007 17.8879 17.9635 18.7442L18.1107 18.8287C17.2018 17.925 16.3902 17.1493 15.4724 16.3711ZM15.3789 15.5237V15.5711C16.7013 15.74 17.9136 15.95 19.218 16.2252C19.2846 16.2252 19.3793 16.229 19.4459 16.229C18.0761 15.932 16.7717 15.7004 15.3789 15.5237ZM13.748 15.8911L13.7813 15.9128L13.8223 15.9346C15.4276 15.9384 17.0226 16.0191 18.6163 16.1804V16.1368C16.9995 15.9756 15.3751 15.8949 13.748 15.8911ZM14.3945 15.5224L14.4534 15.5301C15.2394 15.0962 16.0446 14.6892 16.8677 14.3256V14.2847C16.0215 14.6559 15.1984 15.0744 14.3945 15.5224ZM17.2338 12.9637L17.2415 12.9714L17.2825 12.9458L17.2351 12.8984C17.1941 12.8984 17.1544 12.8984 17.1135 12.8984C16.9445 13.0047 16.7794 13.1109 16.6181 13.2248L16.6552 13.2658C16.8063 13.1634 16.9599 13.0597 17.1148 12.965C17.1532 12.9637 17.1928 12.9637 17.2338 12.9637ZM10.0344 20.3199L10.0933 20.43L10.1112 20.412C10.1035 20.3941 10.0677 20.3058 10.0485 20.2687C9.98191 20.2828 9.90126 20.2981 9.83598 20.3096C9.50571 20.6911 9.17415 21.0738 8.85156 21.4629L8.87716 21.518C9.0871 21.2722 9.53515 20.732 9.86158 20.357C9.90894 20.3378 9.97935 20.3314 10.0344 20.3199ZM21.3597 19.2434L21.4032 19.324L21.4326 19.3125C21.407 19.2613 21.3814 19.214 21.3558 19.1615C20.8924 18.9157 20.4303 18.6764 19.963 18.4447C19.9157 18.4562 19.867 18.4703 19.8235 18.4818L19.8491 18.5624L19.9746 18.533C20.438 18.766 20.8962 18.9976 21.3597 19.2434ZM21.681 16.5042L21.7911 16.5887L21.8205 16.5477C21.7795 16.5144 21.736 16.4812 21.695 16.4453C21.2611 16.3826 20.8322 16.3276 20.3983 16.284L20.3215 16.3608L20.3471 16.3864L20.3906 16.3429C20.8246 16.3903 21.247 16.4415 21.681 16.5042ZM20.1538 14.373L20.1615 14.3064C20.1179 14.2885 20.0731 14.2693 20.0296 14.2514C19.7096 14.2949 19.3908 14.3474 19.0746 14.4088L19.0567 14.4933C19.0644 14.4972 19.7109 14.3679 20.027 14.3244L20.1538 14.373ZM17.3554 20.3199C17.4066 20.3314 17.4809 20.3378 17.5282 20.3608C17.8547 20.7359 18.3066 21.2722 18.5165 21.518L18.5383 21.4629C18.2144 21.0738 17.8841 20.6911 17.5538 20.3096C17.4873 20.2981 17.4066 20.284 17.3413 20.2687C17.3234 20.3058 17.2863 20.3941 17.2786 20.412L17.2965 20.43L17.3554 20.3199ZM13.8773 21.0968L13.9068 22.3756L13.9029 21.0495C13.8556 21.0162 13.7928 20.9829 13.7455 20.9509C13.6981 20.9842 13.6277 21.0175 13.5803 21.0495V22.3756L13.6098 21.0968C13.6507 21.0712 13.7058 21.0456 13.7416 21.02L13.8773 21.0968Z" fill="#23394E"/>
<path fill-rule="evenodd" clip-rule="evenodd" d="M12.062 16.4218C11.1288 17.2078 10.3645 17.899 9.49788 18.754L9.35835 18.8346C10.2404 17.9604 11.1147 17.1668 12.062 16.363V16.4218ZM13.0963 15.5246L13.0336 15.5322C12.8531 15.5502 12.6739 15.5694 12.4934 15.5911C11.8866 15.1316 11.2657 14.6951 10.6231 14.2868V14.3342C11.2657 14.7425 11.8866 15.179 12.4934 15.6385C12.6918 15.6167 12.894 15.595 13.0925 15.5758C13.287 15.682 13.4714 15.7857 13.666 15.8996H13.7428C13.5328 15.7703 13.3088 15.6423 13.0963 15.5246ZM10.1661 18.3009C11.1505 17.7466 12.1541 17.2206 13.1718 16.7329V16.6778C12.1503 17.1668 11.1505 17.6916 10.1661 18.2458V18.3009ZM12.0671 15.5361C10.6897 15.7127 9.3481 15.9444 7.99245 16.2337C8.05902 16.2337 8.13967 16.2375 8.20879 16.2375C9.51324 15.9623 10.7882 15.7447 12.1106 15.5758V15.5284L12.0671 15.5361ZM13.0848 16.2926C11.8021 16.1825 10.5271 16.1198 9.24185 16.1274V16.1684C10.5092 16.1569 11.7701 16.2196 13.0336 16.3297L13.0848 16.2926ZM10.3312 12.9505C10.4861 13.0465 10.6359 13.1566 10.787 13.259L10.8241 13.218C10.6628 13.1041 10.4977 12.994 10.3287 12.8916C10.2877 12.8916 10.248 12.8916 10.2071 12.8916L10.1405 12.9505L10.1815 12.9761L10.2109 12.9505C10.2506 12.9505 10.2903 12.9505 10.3312 12.9505ZM7.32039 16.3028C6.60352 19.5092 11.395 20.7073 13.7172 20.7073C16.0393 20.7073 20.8295 19.5092 20.1101 16.3028C19.5302 13.7274 15.9548 12.9594 13.7133 12.9594C11.4718 12.9594 7.89644 13.7236 7.32039 16.3028ZM7.55465 16.2849C6.88259 19.3671 11.4821 20.5063 13.7159 20.5063C15.9497 20.5063 20.5492 19.3671 19.8771 16.2849C19.3343 13.794 15.8767 13.0554 13.7159 13.0554C11.5563 13.0554 8.0987 13.794 7.55465 16.2849Z" fill="#23394E"/>
<path fill-rule="evenodd" clip-rule="evenodd" d="M7.34261 16.3838C7.91995 13.8046 11.3468 13.0264 13.7355 13.0264C16.1204 13.0264 19.5512 13.8046 20.1285 16.3838C20.8492 19.5902 16.0577 20.7844 13.7355 20.7844C11.4134 20.7844 6.6219 19.5902 7.34261 16.3838ZM7.57687 16.3646C8.12092 13.8737 11.5773 13.1352 13.7381 13.1352C15.8951 13.1352 19.3553 13.8737 19.8993 16.3646C20.5714 19.4468 15.9719 20.586 13.7381 20.586C11.5043 20.586 6.90481 19.443 7.57687 16.3646Z" fill="white"/>
<path d="M13.6699 16.1239C13.6699 16.1789 13.6738 16.2378 13.6738 16.2928C13.8235 16.2532 13.9605 16.216 13.9605 16.216C14.0079 16.2084 14.0565 16.2084 14.1077 16.2084C14.141 16.2084 14.1769 16.2084 14.2101 16.2122C14.214 16.202 14.214 16.1943 14.2178 16.1828C14.0783 16.1098 13.9234 16.0356 13.7877 15.9664C13.7518 16.0138 13.7109 16.065 13.6699 16.1239ZM13.99 15.7488C13.9413 15.7962 13.8939 15.8448 13.8504 15.8922C13.99 15.8922 14.1295 15.896 14.269 15.896C14.2831 15.7898 14.2946 15.6784 14.2985 15.5684C14.1999 15.6324 14.0962 15.6912 13.99 15.7488Z" fill="#23394E"/>
<path d="M16.4049 14.3634C16.3755 14.3558 16.3499 14.3481 16.3281 14.3455C16.6994 14.2354 17.077 14.133 17.4636 14.0332L17.3573 14.0998C17.3573 14.0998 17.3573 14.0998 17.3535 14.0998C17.0335 14.1881 16.7173 14.2751 16.4049 14.3634Z" fill="#23394E"/>
<path d="M20.4737 18.7082C20.3892 18.6672 20.3124 18.6275 20.2459 18.5942C20.3227 18.6314 20.3969 18.6685 20.4737 18.7082ZM15.7577 16.6154C15.6617 16.5347 15.567 16.4502 15.4748 16.3734L15.4313 16.3363V16.399C15.5017 16.4618 15.5708 16.5206 15.6413 16.5795C15.6771 16.5898 15.7168 16.6013 15.7577 16.6154ZM19.4471 16.2262C18.9542 16.12 18.4703 16.024 17.9916 15.9318C18.0031 15.9459 18.0133 15.9651 18.0248 15.983C18.4178 16.056 18.8147 16.1379 19.2192 16.2224C19.2858 16.2224 19.3805 16.2262 19.4471 16.2262ZM16.6513 16.0253C16.5706 16.0035 16.4746 15.9818 16.3722 15.9664C15.535 15.919 14.6927 15.896 13.8555 15.8934C13.8414 15.9075 13.8299 15.919 13.8184 15.9344L13.8222 15.9382C14.7657 15.9408 15.7104 15.9702 16.6513 16.0253ZM18.6124 16.184V16.1405C18.4434 16.1264 18.2706 16.1072 18.0978 16.0931C18.1093 16.1085 18.1196 16.1264 18.1311 16.1405C18.2924 16.1507 18.4511 16.1686 18.6124 16.184ZM16.641 14.4227C16.714 14.3894 16.7882 14.3562 16.8612 14.3242V14.2832C16.769 14.3242 16.6743 14.3638 16.5821 14.4086C16.6077 14.415 16.627 14.4189 16.641 14.4227Z" fill="#23394E"/>
<path d="M21.676 19.226C21.4661 19.1556 20.8977 18.9137 20.4778 18.7076C20.401 18.6667 20.3268 18.6308 20.25 18.5937C20.136 18.5348 20.0515 18.4836 20.0106 18.4465C20.0106 18.4465 19.9338 18.4056 19.8198 18.3441C20.1143 17.8808 20.2602 17.3444 20.1911 16.7236L20.3229 16.7531L21.3701 16.9105L22.1087 17.0654C22.1125 17.0833 22.1125 17.0987 22.1164 17.1166C22.1343 17.2561 22.1458 17.3956 22.1458 17.5352C22.1458 18.0574 22.0178 18.5784 21.7451 19.0891C21.7247 19.1377 21.7016 19.1825 21.676 19.226ZM16.5837 14.4107C16.6797 14.3672 16.7706 14.3224 16.8627 14.2827C16.745 14.3198 16.631 14.3556 16.5133 14.3928C16.5389 14.4004 16.5619 14.4068 16.5837 14.4107ZM16.3673 15.9646C16.2829 15.9531 16.1868 15.9428 16.0844 15.9352C15.0783 15.8468 14.6917 15.7112 14.5931 15.6779C14.4126 15.6152 14.41 15.5819 14.3025 15.5678C14.2987 15.6779 14.2884 15.788 14.2731 15.8942C14.9707 15.9057 15.6684 15.9288 16.3673 15.9646ZM18.6152 16.1374C18.4322 16.1041 18.2478 16.0708 18.0673 16.0414C18.0789 16.0555 18.0891 16.0747 18.1006 16.0888C18.2696 16.1041 18.4424 16.1195 18.6152 16.1374ZM14.2871 16.2142C14.2654 16.2027 14.2436 16.1924 14.2206 16.1771C14.2167 16.1886 14.2167 16.195 14.2129 16.2065C14.2398 16.2116 14.2615 16.2116 14.2871 16.2142ZM15.2908 16.4574C15.2024 16.387 15.1141 16.3179 15.0296 16.2449C14.8978 16.2526 14.7685 16.259 14.6405 16.2705C14.7723 16.3 14.8606 16.3256 14.8606 16.3256C14.9925 16.355 15.1768 16.4164 15.2908 16.4574ZM19.5408 18.202C19.8378 17.7502 19.9888 17.2254 19.9261 16.6187C19.775 16.5342 19.6137 16.4088 19.5216 16.2692C19.3782 16.0452 19.0262 15.6561 18.8303 15.4129C18.5615 15.0788 17.9521 14.7704 17.8638 14.6308C17.7755 14.4913 17.6283 14.2494 17.5886 14.1534C17.5476 14.0612 17.4631 13.9883 17.321 13.9883C17.3134 13.9883 17.3031 13.9883 17.2954 13.9883C17.1341 13.9998 17.1226 14.0548 16.9869 14.0612C16.969 14.0612 16.9498 14.0612 16.9319 14.0612C16.8039 14.0612 16.6605 14.0395 16.6605 14.0395C16.576 14.0254 16.521 14.0139 16.4621 14.0139C16.3814 14.1534 16.2521 14.2379 15.9398 14.2379L15.8847 14.2302C15.9142 14.2968 16.1856 14.3364 16.2483 14.3364C16.2521 14.3364 16.2521 14.3364 16.256 14.3364H16.2598C16.2739 14.3364 16.2969 14.3403 16.3264 14.348C16.6976 14.2379 17.0752 14.1355 17.4618 14.0356L17.3556 14.1022C17.3518 14.1022 17.3518 14.1022 17.3518 14.1022C17.1713 14.2161 16.9959 14.3339 16.8231 14.4516C16.8525 14.4657 16.8935 14.4849 16.9485 14.5182C17.2865 14.7089 17.7857 15.2414 17.8856 15.7048C17.8996 15.7713 17.9406 15.8481 17.9918 15.9288C18.4731 16.0171 18.9583 16.1156 19.4499 16.2232C19.3833 16.2232 19.2886 16.2193 19.222 16.2193C19.0274 16.2155 18.8329 16.2155 18.6383 16.2155C18.4872 16.2155 18.3438 16.2193 18.1979 16.2193C18.308 16.3665 18.4104 16.5099 18.4335 16.6161C17.9893 16.5867 17.4337 16.355 17.1917 16.2449C16.6118 16.2628 16.0307 16.2961 15.4316 16.3332C15.5417 16.4292 15.6517 16.524 15.758 16.6161C16.2099 16.7633 16.9408 17.0206 17.1802 17.1934C17.4119 17.3624 18.6063 17.8065 18.9212 17.9166C19.0671 17.9665 19.3167 18.0881 19.5408 18.202ZM21.9116 16.3396C21.8975 16.3025 21.886 16.2667 21.8642 16.2372C21.8386 16.1745 21.8091 16.1156 21.7797 16.0542C21.7797 16.0504 21.7759 16.0504 21.7759 16.0465V16.0427C21.7759 16.0388 21.7759 16.0388 21.7759 16.0388C21.7682 16.0273 21.7643 16.0132 21.7579 16.0017C21.7208 15.9249 21.6773 15.8468 21.6325 15.7739C21.6184 15.77 21.4379 15.7188 20.9822 15.7188C20.9387 15.7188 20.89 15.7188 20.8427 15.7188C20.8388 15.7188 20.8388 15.7188 20.835 15.7188C20.7364 15.7188 20.625 15.7444 20.625 15.7444L20.3383 15.9134C20.3012 15.9723 20.4305 16.0491 20.4305 16.0491C20.4305 16.0491 20.7902 16.0708 20.7902 16.1668C21.0552 16.3102 21.621 16.3256 21.9116 16.3396ZM18.2222 19.3707C18.3323 19.308 18.4386 19.2388 18.5461 19.1684C18.4834 19.1569 18.3951 19.1467 18.2773 19.1467C18.1749 19.1467 18.1813 19.2529 18.2222 19.3707ZM20.739 20.3704C20.7825 20.3294 20.8235 20.2897 20.8708 20.2526C21.036 20.0913 21.1793 19.9288 21.3112 19.7636C20.675 19.7496 19.7712 19.738 19.085 19.3822C19.0633 19.3118 19.0121 19.276 18.957 19.2542C18.7701 19.3976 18.5679 19.5256 18.3503 19.6472C18.3682 19.6766 18.3797 19.6984 18.3797 19.6984C18.5896 19.8379 19.3423 20.0516 19.4998 20.0734C19.6573 20.0913 20.1834 20.25 20.1834 20.25C20.1834 20.25 20.4561 20.2859 20.739 20.3704Z" fill="#23394E"/>
<path d="M19.5949 18.2301C19.577 18.2224 19.5578 18.2122 19.5398 18.2045C19.8368 17.7527 19.9879 17.2304 19.929 16.625C19.9328 16.6288 19.9367 16.6288 19.9405 16.6327C20.0212 17.2381 19.8816 17.7706 19.5949 18.2301ZM18.2495 19.4474C18.3852 19.3668 18.5145 19.2861 18.6386 19.1978C18.6169 19.1901 18.5836 19.1799 18.5426 19.1722C18.4402 19.2426 18.3301 19.3079 18.2188 19.3744C18.2316 19.3962 18.2392 19.4218 18.2495 19.4474Z" fill="#23394E"/>
<path d="M16.8233 14.456C16.7465 14.4227 16.735 14.4419 16.6428 14.4265H16.639C16.7119 14.3932 16.7862 14.36 16.863 14.328V14.287C16.7452 14.3241 16.6275 14.36 16.5135 14.3971C16.4764 14.3894 16.4406 14.3792 16.4034 14.3715C16.7158 14.2793 17.032 14.1948 17.3546 14.1104C17.1728 14.2204 16.9961 14.3382 16.8233 14.456ZM13.9904 15.7488C14.016 15.727 14.0378 15.7014 14.0672 15.6758C14.1082 15.6387 14.1338 15.599 14.1555 15.5619L14.2477 15.5657C14.2695 15.5657 14.2887 15.5696 14.3066 15.5696C14.1965 15.631 14.0941 15.6899 13.9904 15.7488ZM19.2197 16.2224C19.0251 16.2185 18.8305 16.2185 18.636 16.2185C18.4888 16.2185 18.3415 16.2185 18.1982 16.2224C18.1764 16.1929 18.1572 16.1673 18.1354 16.1379C18.2967 16.152 18.4555 16.1673 18.6168 16.1814V16.1379C18.4439 16.12 18.2711 16.1046 18.1022 16.0905C18.275 16.1046 18.4478 16.1238 18.6168 16.1379C18.4324 16.1046 18.2494 16.0713 18.065 16.0419C18.0509 16.024 18.0394 16.0009 18.0241 15.983C18.4183 16.0572 18.8152 16.1379 19.2197 16.2224ZM19.4463 16.2262C18.9534 16.12 18.4695 16.0201 17.9882 15.9318C18.4734 16.024 18.9547 16.12 19.4463 16.2262ZM13.3926 16.3619C13.4771 16.3401 13.55 16.2992 13.591 16.2339C13.6166 16.1929 13.6422 16.1571 13.664 16.1238C13.664 16.1827 13.6678 16.2377 13.6678 16.2928C13.5756 16.3184 13.4694 16.344 13.3926 16.3619ZM15.7582 16.6153C15.6622 16.5347 15.5713 16.454 15.4753 16.3734L15.4318 16.3363V16.399C15.5022 16.4579 15.5713 16.5206 15.6418 16.5795C15.4907 16.5321 15.3921 16.4988 15.3921 16.4988C15.3921 16.4988 15.3512 16.4848 15.2936 16.4617C15.2052 16.3888 15.1207 16.3184 15.0324 16.2492C14.9044 16.2569 14.7713 16.2672 14.6433 16.2748C14.5447 16.2531 14.4192 16.2313 14.2899 16.2198C14.2682 16.2083 14.2464 16.198 14.2234 16.1827C14.0838 16.1097 13.9289 16.0355 13.7933 15.9664C13.8009 15.9548 13.8112 15.9446 13.8189 15.9369L13.8227 15.9408C14.7674 15.9446 15.7109 15.974 16.6518 16.0291C16.854 16.0841 16.968 16.143 16.968 16.143L17.0665 16.1904C17.0665 16.1904 17.1139 16.2121 17.192 16.2492C16.6121 16.2672 16.0271 16.3004 15.4318 16.3376C15.5419 16.4284 15.6482 16.5206 15.7582 16.6153ZM19.815 18.3433C20.1094 17.88 20.2553 17.3436 20.19 16.7228H20.1862C20.1196 16.7088 20.0351 16.6755 19.9443 16.6268C20.0211 17.24 19.8815 17.7724 19.5948 18.2281C19.6754 18.2691 19.7522 18.31 19.815 18.3433ZM21.7825 16.047C21.7825 16.0432 21.7787 16.0432 21.7787 16.0393C21.7825 16.0432 21.7825 16.047 21.7825 16.047ZM18.3467 19.6438C18.5592 19.5222 18.7653 19.3942 18.956 19.2508C18.9086 19.2329 18.8574 19.2291 18.8126 19.2291C18.7576 19.2291 18.7141 19.2368 18.7141 19.2368C18.7141 19.2368 18.7 19.2188 18.6436 19.1958C18.5182 19.2841 18.3863 19.3648 18.2506 19.4454C18.2801 19.5222 18.3211 19.5964 18.3467 19.6438Z" fill="#23394E"/>
<path d="M16.7745 9.23757L16.5581 9.03533C16.5441 8.96877 16.617 8.87789 16.635 8.76397L16.5684 8.73837C16.5172 8.54381 16.4724 8.19053 16.5684 8.00365C16.6119 7.91149 16.667 7.79117 16.6388 7.68365C16.4621 7.08461 16.1165 6.56365 15.8746 5.99789C15.808 5.84301 15.8195 5.73293 15.808 5.57549C15.6211 5.36557 15.3996 4.82285 15.2972 4.48749C15.077 5.04173 14.9298 5.68173 14.9298 5.82893C14.9298 6.45357 15.5661 6.75821 15.3446 7.79757C15.3011 7.99981 15.2268 8.27501 15.1538 8.56173C15.2857 9.28493 15.2857 9.81101 15.4803 10.652C15.7517 10.9195 15.9757 11.2651 16.0973 11.7029C16.1703 11.9742 16.3981 12.6104 16.6926 12.7025C16.8731 12.7614 16.0794 12.9086 15.8554 12.6257C15.639 12.3544 15.2639 12.1368 15.0873 11.8501C14.9478 11.6222 14.7276 11.1294 14.588 10.899L14.4191 11.7886C14.6508 12.7397 14.5112 12.9496 14.3051 13.7214C14.2168 14.0555 13.5447 12.4939 13.5409 12.3736C13.5409 12.0357 13.5191 11.9102 13.4423 11.6094C13.3028 11.3342 13.3169 10.9451 13.3361 10.6469C13.3694 10.1515 13.3655 9.21837 13.3834 8.97133C13.2145 8.55277 12.7767 7.79885 12.7331 7.37645C12.6666 6.71469 12.7767 6.04653 12.6858 5.38477C12.5718 5.71501 12.4502 6.13357 12.1929 6.38829C11.8076 6.76717 11.4543 7.18573 11.1087 7.60429C10.9832 7.77709 11.0946 7.85773 10.8987 8.13293C10.708 8.40045 10.8104 8.28013 10.7707 8.53741C10.763 8.58093 10.7413 8.61805 10.7272 8.63341C10.6248 8.71789 10.5172 8.79085 10.3713 8.73197C10.0884 8.58861 10.0666 8.37869 10.0474 8.11117C10.0103 7.59661 10.3931 7.57101 10.6094 7.25869C11.0319 6.64557 11.2482 5.61645 11.7039 5.15437C11.7334 5.06221 11.8396 4.73197 12.0419 4.24301C12.0496 3.63373 12.1993 3.08973 12.8279 2.84013C13.0852 2.73773 13.4231 2.71213 13.4346 2.35501C13.4346 2.31149 13.427 2.20397 13.4014 2.16429C13.299 2.07981 13.2247 2.07981 13.1735 2.02093C13.0711 1.88909 12.9866 1.05069 12.9968 0.995655C13.1441 0.282695 13.4858 0.0484549 13.916 0.0663749C14.4267 0.0919749 14.8313 0.337735 14.8082 1.02125C14.7903 1.57293 14.2206 2.28077 15.0732 2.54957C15.3996 2.65197 15.4585 2.58285 15.7414 2.86189C16.0538 3.17805 16.1306 3.73613 16.1818 4.25453L16.5018 4.99693C17.0894 5.98509 16.8769 6.29741 17.0894 7.29965C17.1444 7.56077 17.2405 7.78861 17.2622 8.35821C17.2853 8.62061 17.0715 9.22733 16.7745 9.23757Z" fill="#23394E"/>
<path d="M13.2408 1.01863C13.2446 1.06215 13.2664 1.73927 13.3663 1.88263C13.5608 2.02983 13.6709 1.98503 13.6607 2.34983C13.6504 2.65447 13.4546 2.83495 13.1909 2.92967C12.7608 3.07943 12.5406 3.16775 12.3972 3.61319C12.3537 3.75271 12.3127 3.95495 12.3127 4.25191V4.27111C12.1911 4.57575 12.0336 4.92519 11.9415 5.2516C11.4128 5.78407 11.1478 6.98856 10.6114 7.49928C10.2556 7.8372 10.148 7.85896 10.2773 8.3812C10.2914 8.4324 10.4604 8.56936 10.4975 8.59112L10.6626 8.48872C10.6882 8.22376 10.6524 8.2468 10.8214 8.00359C10.9763 7.77959 10.902 7.66184 11.0377 7.46728C11.3757 7.04488 11.6957 6.61864 12.0733 6.23336C12.3268 5.97608 12.6724 5.10567 12.7531 4.80103C12.7672 4.75751 12.7928 4.73448 12.8043 4.7716C12.8555 5.35144 12.94 5.83656 12.9182 6.41C12.8747 7.61192 12.908 7.48647 13.4072 8.60647C13.4469 8.15463 13.557 7.50056 13.8181 7.2804C13.5096 8.44904 13.4904 10.1169 13.4584 10.6263C13.4392 10.8874 13.3701 11.2983 13.4955 11.5377C13.5352 11.699 13.5391 11.9447 13.5429 12.1329C13.5429 12.2468 13.5506 14.1822 13.5506 14.1822L13.3714 15.082C13.3086 15.3431 12.9707 15.777 12.7249 15.9127C12.6481 15.9562 12.4599 16.0561 12.4599 16.1406C12.4599 16.2839 13.3739 16.5489 13.5839 16.225C13.7413 15.9831 13.8706 15.85 14.0575 15.6695C14.3443 15.3943 14.0242 15.1076 14.0652 14.7364C14.1318 14.0862 14.4108 13.5204 14.503 12.9034C14.5581 12.5322 14.5465 12.2058 14.3814 11.7822L14.503 10.6071C14.6387 10.8094 14.7642 11.1332 14.8922 11.4007C15.12 11.8782 15.1239 11.923 15.5207 12.3159C15.6526 12.4478 15.7921 12.6026 15.8919 12.7639C16.0788 13.0583 16.2043 13.3514 16.1889 13.7047C16.0532 13.9505 15.9943 13.9364 15.8177 14.0862C15.8254 14.0938 15.769 14.2295 15.9355 14.2295C16.5307 14.2295 16.4578 13.9172 16.6805 13.5178C16.8277 13.2567 17.2425 12.8599 16.7867 12.7242C16.6434 12.6807 16.5077 12.595 16.4232 12.4554C16.107 11.9268 16.0929 11.9383 15.9278 11.4494C15.8279 11.1524 15.6231 10.913 15.3837 10.7223C15.2365 10.3882 15.1776 10.1527 15.1303 9.79688C15.0675 9.3156 15.024 8.97383 14.9395 8.48232C15.1712 7.56071 15.2928 7.36488 14.896 6.4804C14.8038 6.27816 14.7526 6.06183 14.7526 5.81863C14.7526 5.52424 14.9139 4.86376 15.0714 4.51816C15.1264 4.37863 15.2032 4.24679 15.3108 4.20583C15.4068 4.56295 15.737 5.29768 15.9278 5.47688C15.938 5.62024 15.9355 5.76744 15.9905 5.90311C16.2325 6.48295 16.5781 7.00904 16.7509 7.62216C16.8098 7.83208 16.7317 7.93448 16.6703 8.10344C16.6511 8.18408 16.6485 8.4196 16.6843 8.59624L16.7688 8.63976C16.7547 8.69096 16.7176 8.842 16.6882 8.90728C16.6997 8.99175 16.8021 9.03656 16.8021 9.03656C16.934 9.00712 17.126 8.52584 17.1183 8.33512C17.0965 7.7476 16.9749 7.48264 16.9378 7.30984C16.7432 6.314 16.8533 6.0388 16.299 5.0724L15.9828 4.28648C15.9431 3.88583 15.7844 2.96807 15.2698 2.80295C15.1815 2.77735 15.097 2.76967 14.9651 2.72999C14.2931 2.51367 14.2931 1.99527 14.4761 1.42951C14.6413 0.926475 14.6605 0.335115 13.9218 0.272395C13.9001 0.268555 13.8783 0.268555 13.8553 0.268555C13.4648 0.280075 13.3355 0.625675 13.2408 1.01863Z" fill="#23394E"/>
</g>
<defs>
<clipPath id="clip0_394_284">
<rect width="26.496" height="32" fill="white" transform="translate(0.529297)"/>
</clipPath>
</defs>
</svg>
