<svg width="183" height="22" viewBox="0 0 183 22" fill="none" xmlns="http://www.w3.org/2000/svg">
<path d="M154.568 0.583984H153.553V21.9173H154.568V0.583984Z" fill="#23394E"/>
<path d="M8.21721 6.77309C7.57666 5.66217 6.80923 5.02161 5.43218 5.02161C4.00253 5.02161 2.76165 6.04588 2.76165 7.52195C2.76165 8.91137 4.19439 9.55193 5.28365 10.0409L6.35743 10.4865C8.45239 11.4148 10.2255 12.4545 10.2255 15.0199C10.2273 15.6817 10.097 16.3373 9.84224 16.9481C9.58751 17.559 9.21348 18.1129 8.74204 18.5774C8.2706 19.0419 7.71122 19.4077 7.09666 19.6534C6.4821 19.8991 5.82471 20.0197 5.16296 20.0082C2.57598 20.0082 0.651214 18.3402 0.140625 15.8399L1.8921 15.3479C2.12728 16.9941 3.38983 18.3402 5.11964 18.3402C6.84945 18.3402 8.43073 17.0158 8.43073 15.1993C8.43073 13.3179 6.95776 12.6774 5.46003 11.9935L4.47289 11.5664C2.59764 10.7093 0.97304 9.74997 0.97304 7.44149C0.97304 4.94116 3.08966 3.33822 5.48479 3.33822C6.34333 3.32803 7.18774 3.55713 7.92341 3.99984C8.65907 4.44255 9.25692 5.08138 9.64996 5.84474L8.21721 6.77309Z" fill="#23394E"/>
<path d="M14.0316 2.10059V10.8611L14.0749 10.9013C14.3891 10.4329 14.8158 10.0506 15.3158 9.78955C15.8158 9.52846 16.3733 9.39682 16.9373 9.40665C19.7223 9.40665 20.3412 11.415 20.3412 13.7668V19.7267H18.6454V14.0669C18.6454 12.4423 18.5186 10.9725 16.5319 10.9725C14.1801 10.9725 14.0316 13.1386 14.0316 14.9489V19.7267H12.3203V2.10059H14.0316Z" fill="#23394E"/>
<path d="M23.9072 15.0691C23.9258 16.9258 25.2502 18.4236 27.1967 18.4236C28.6511 18.4236 29.5887 17.5478 30.2509 16.3503L31.7053 17.1858C31.2784 18.0473 30.6154 18.7698 29.7936 19.2689C28.9717 19.768 28.025 20.0233 27.0636 20.0048C24.0712 20.0048 22.1465 17.718 22.1465 14.8371C22.1465 11.8664 23.8794 9.40625 27.0203 9.40625C30.2447 9.40625 31.9715 12.0768 31.7858 15.0691H23.9072ZM29.9941 13.6178C29.8927 12.9049 29.5433 12.2505 29.0074 11.7695C28.4715 11.2885 27.7833 11.0116 27.0636 10.9875C26.3282 11.0039 25.6213 11.2751 25.0636 11.7549C24.506 12.2346 24.1323 12.8931 24.0063 13.6178H29.9941Z" fill="#23394E"/>
<path d="M35.9562 2.10059H34.248V19.7298H35.9562V2.10059Z" fill="#23394E"/>
<path d="M40.7835 2.10059H39.0723V19.7298H40.7835V2.10059Z" fill="#23394E"/>
<path d="M51.4452 5.28413V10.0713H56.8079V11.7361H51.4452V19.7292H49.6504V3.61621H56.9781V5.28413H51.4452Z" fill="#23394E"/>
<path d="M57.5157 14.7284C57.512 13.6834 57.8186 12.6608 58.3965 11.7901C58.9745 10.9194 59.7979 10.2399 60.7624 9.83757C61.7269 9.43524 62.7891 9.32823 63.8145 9.53007C64.8398 9.73192 65.7822 10.2336 66.5223 10.9714C67.2623 11.7093 67.7667 12.6502 67.9716 13.675C68.1764 14.6997 68.0725 15.7623 67.673 16.7279C67.2735 17.6936 66.5964 18.519 65.7275 19.0995C64.8585 19.6801 63.8368 19.9896 62.7917 19.989C62.0996 19.9911 61.4139 19.8565 60.7738 19.593C60.1338 19.3296 59.5521 18.9424 59.0619 18.4537C58.5718 17.965 58.1829 17.3844 57.9176 16.7451C57.6522 16.1059 57.5157 15.4205 57.5157 14.7284ZM59.2238 14.7068C59.2238 16.7584 60.6751 18.4201 62.7917 18.4201C64.9084 18.4201 66.3628 16.7584 66.3628 14.7068C66.3628 12.6551 64.9115 10.9934 62.7948 10.9934C60.6782 10.9934 59.2269 12.683 59.2269 14.7068" fill="#23394E"/>
<path d="M71.4914 15.2825C71.4914 16.9721 71.6832 18.4234 73.7565 18.4234C75.8298 18.4234 76.0217 16.9721 76.0217 15.2825V9.68457H77.7298V15.4743C77.7298 18.148 76.7272 20.0047 73.7565 20.0047C70.7858 20.0047 69.7832 18.148 69.7832 15.4743V9.68457H71.4914V15.2825Z" fill="#23394E"/>
<path d="M81.4679 10.9005H81.5236C81.8382 10.4316 82.2653 10.0491 82.7659 9.788C83.2665 9.52689 83.8246 9.39549 84.3891 9.40584C87.1741 9.40584 87.793 11.4142 87.793 13.766V19.7259H86.0849V14.0661C86.0849 12.4415 85.9549 10.9716 83.9683 10.9716C81.6195 10.9716 81.4679 13.1378 81.4679 14.9481V19.7259H79.7598V9.68434H81.4679V10.9005Z" fill="#23394E"/>
<path d="M97.9446 18.3404H97.9043C97.4967 18.8684 96.9713 19.2939 96.3702 19.5829C95.769 19.872 95.1086 20.0166 94.4416 20.0052C91.4926 20.0052 89.6328 17.5049 89.6328 14.7446C89.6328 11.8822 91.4493 9.42212 94.4633 9.42212C95.1275 9.42014 95.7833 9.57093 96.38 9.86282C96.9767 10.1547 97.4982 10.5799 97.9043 11.1055H97.9446V2.10059H99.6558V19.7391H97.9446V18.3404ZM91.3874 14.5992C91.3874 16.5642 92.5416 18.424 94.6768 18.424C96.877 18.424 98.0312 16.6508 98.0312 14.6208C98.0312 12.5909 96.7718 10.9879 94.6551 10.9879C92.6685 10.9879 91.3874 12.7208 91.3874 14.5992Z" fill="#23394E"/>
<path d="M112.134 19.7265H110.423V18.3402H110.38C109.975 18.8719 109.451 19.3 108.849 19.5894C108.247 19.8789 107.585 20.0213 106.917 20.005C103.971 20.005 102.111 17.5047 102.111 14.7444C102.111 11.882 103.928 9.42189 106.939 9.42189C107.603 9.41991 108.259 9.5707 108.855 9.86259C109.452 10.1545 109.974 10.5797 110.38 11.1053H110.423V9.68493H112.134V19.7265ZM103.863 14.599C103.863 16.564 105.017 18.4237 107.152 18.4237C109.356 18.4237 110.507 16.6506 110.507 14.6206C110.507 12.5906 109.247 10.9877 107.134 10.9877C105.147 10.9877 103.863 12.7206 103.863 14.599Z" fill="#23394E"/>
<path d="M117.22 19.7292H115.512V11.2658H114.463V9.6845H115.512V6.07324H117.22V9.6845H119.015V11.2658H117.22V19.7292Z" fill="#23394E"/>
<path d="M122.952 5.90379C122.952 6.22715 122.824 6.53727 122.595 6.76592C122.366 6.99457 122.056 7.12302 121.733 7.12302C121.41 7.12302 121.099 6.99457 120.871 6.76592C120.642 6.53727 120.514 6.22715 120.514 5.90379C120.514 5.58044 120.642 5.27032 120.871 5.04167C121.099 4.81302 121.41 4.68457 121.733 4.68457C122.056 4.68457 122.366 4.81302 122.595 5.04167C122.824 5.27032 122.952 5.58044 122.952 5.90379ZM122.587 19.7268H120.879V9.68525H122.587V19.7268Z" fill="#23394E"/>
<path d="M124.49 14.7284C124.487 13.6835 124.793 12.661 125.371 11.7904C125.949 10.9198 126.772 10.2403 127.736 9.83787C128.701 9.43545 129.763 9.32825 130.788 9.52985C131.813 9.73145 132.756 10.2328 133.496 10.9703C134.236 11.7079 134.741 12.6485 134.946 13.6731C135.151 14.6976 135.048 15.7601 134.649 16.7258C134.25 17.6915 133.573 18.5171 132.704 19.098C131.836 19.6789 130.814 19.989 129.769 19.989C129.077 19.9915 128.391 19.8572 127.751 19.5939C127.11 19.3307 126.528 18.9435 126.038 18.4548C125.547 17.9661 125.158 17.3853 124.892 16.7459C124.627 16.1064 124.49 15.4208 124.49 14.7284ZM126.202 14.7068C126.202 16.7584 127.653 18.4201 129.769 18.4201C131.886 18.4201 133.337 16.7553 133.337 14.7068C133.337 12.6582 131.883 10.9934 129.769 10.9934C127.656 10.9934 126.202 12.683 126.202 14.7068Z" fill="#23394E"/>
<path d="M138.188 10.9005H138.231C138.545 10.4315 138.972 10.0488 139.472 9.78764C139.972 9.52647 140.53 9.3952 141.094 9.40588C143.879 9.40588 144.513 11.4142 144.513 13.766V19.726H142.796V14.0662C142.796 12.4416 142.669 10.9717 140.682 10.9717C138.33 10.9717 138.182 13.1378 138.182 14.9481V19.726H136.471V9.68438H138.182L138.188 10.9005Z" fill="#23394E"/>
<path d="M171.298 19.8039H166.347L165.886 16.1276L162.878 13.9367C162.745 13.2943 162.679 12.64 162.68 11.9841C162.681 10.6185 162.969 9.2683 163.524 8.02059C164.079 6.77287 164.889 5.65531 165.903 4.73993C166.916 3.82455 168.11 3.13166 169.408 2.70593C170.705 2.28019 172.078 2.13105 173.436 2.26812C174.795 2.40518 176.11 2.82542 177.296 3.50174C178.483 4.17806 179.514 5.09545 180.324 6.19479C181.135 7.29414 181.705 8.55104 182 9.88448C182.295 11.2179 182.307 12.5983 182.036 13.9367L179.028 16.1276L178.564 19.8039H173.612L173.328 20.0112C173.076 20.1923 172.773 20.2897 172.463 20.2897C172.153 20.2897 171.85 20.1923 171.598 20.0112L171.298 19.8039Z" stroke="#23394E" stroke-width="1.10473" stroke-miterlimit="40"/>
<path fill-rule="evenodd" clip-rule="evenodd" d="M172.447 2.20898C169.855 2.20981 167.369 3.23998 165.536 5.07306C163.703 6.90613 162.673 9.39208 162.672 11.9844C162.671 12.6404 162.737 13.2947 162.87 13.9371L165.878 16.1279L166.339 19.8042H171.29L171.575 20.0115C171.826 20.1928 172.128 20.2903 172.438 20.2903C172.748 20.2903 173.05 20.1928 173.301 20.0115L173.589 19.8042H178.54L179.005 16.1279L182.012 13.9371C182.3 12.5159 182.269 11.0485 181.92 9.64104C181.572 8.23354 180.914 6.92114 179.996 5.79875C179.078 4.67635 177.922 3.77203 176.612 3.1512C175.302 2.53036 173.87 2.20853 172.419 2.20898H172.447ZM180.382 13.0211L177.414 15.1872L177.049 18.0991H173.431L172.899 18.4859C172.766 18.585 172.604 18.6391 172.438 18.6407C172.273 18.6396 172.112 18.5853 171.98 18.4859L171.445 18.0991H167.861L167.502 15.1872L164.529 13.0211C164.442 12.6823 164.399 12.3341 164.399 11.9844C164.397 11.4008 164.521 10.8237 164.761 10.2918L170.021 15.605L164.891 9.29534C165.09 8.47744 165.535 7.74006 166.166 7.18181L170.752 15.0882L166.689 6.42366C167.215 5.72428 167.951 5.21144 168.79 4.95998L171.575 14.7788L169.529 4.56698C170.152 4.20885 170.857 4.01901 171.575 4.01616C171.726 4.01506 171.877 4.02333 172.027 4.04092L172.444 14.6735L172.862 4.04092C173.013 4.02336 173.165 4.01509 173.317 4.01616C174.032 4.01673 174.734 4.20222 175.356 4.5546L173.308 14.7664L176.111 4.9476C176.947 5.20447 177.68 5.72028 178.203 6.42057L174.143 15.0851L178.726 7.17872C179.355 7.73856 179.8 8.47518 180.004 9.29224L174.895 15.605L180.156 10.2918C180.534 11.1508 180.613 12.1116 180.382 13.0211Z" fill="#23394E"/>
</svg>
