<svg className='h-5 w-5' viewBox="0 0 24 25" fill="currentColor" xmlns="http://www.w3.org/2000/svg">
<g clip-path="url(#clip0_277_24928)">
<path d="M23.7663 13.1825C23.7663 12.3668 23.7001 11.5466 23.559 10.7441H12.2402V15.3651H18.722C18.453 16.8555 17.5888 18.1739 16.3233 19.0116V22.01H20.1903C22.4611 19.92 23.7663 16.8334 23.7663 13.1825Z" fill="#4285F4"/>
<path d="M12.2391 24.9071C15.4756 24.9071 18.205 23.8444 20.1936 22.0101L16.3266 19.0118C15.2507 19.7437 13.8618 20.1582 12.2435 20.1582C9.11291 20.1582 6.45849 18.0462 5.50607 15.2065H1.51562V18.2975C3.55274 22.3497 7.70192 24.9071 12.2391 24.9071Z" fill="#34A853"/>
<path d="M5.50277 15.2065C5.00011 13.7161 5.00011 12.1023 5.50277 10.6119V7.521H1.51674C-0.185266 10.9118 -0.185266 14.9066 1.51674 18.2974L5.50277 15.2065Z" fill="#FBBC04"/>
<path d="M12.2391 5.65591C13.9499 5.62945 15.6034 6.27322 16.8425 7.45492L20.2685 4.02887C18.0991 1.99175 15.2198 0.871784 12.2391 0.907059C7.70192 0.907059 3.55274 3.46447 1.51562 7.52106L5.50166 10.612C6.44967 7.76798 9.1085 5.65591 12.2391 5.65591Z" fill="#EA4335"/>
</g>
<defs>
<clipPath id="clip0_277_24928">
<rect width="24" height="24" fill="white" transform="translate(0 0.90625)"/>
</clipPath>
</defs>
</svg>