<svg width="64" height="64" viewBox="0 0 64 64" fill="none" xmlns="http://www.w3.org/2000/svg">
<rect width="64" height="64" rx="32" fill="#D4FFC6"/>
<g clip-path="url(#clip0_318_51795)">
<g clip-path="url(#clip1_318_51795)">
<path d="M29.9595 41.1654C29.7646 40.6195 29.4548 39.2323 30.7891 38.139L31.8388 37.2794H9.9697V15.4326H44.3086V23.4161H45.2783V14.4629H9V38.2491H23.6114C24.7993 39.3235 24.5084 40.6374 24.3198 41.1654C23.8558 42.4643 22.6451 43.3715 21.3753 43.3715H18.9709V47.4568H35.3084V43.3715H32.9035C31.6342 43.371 30.4235 42.4643 29.9595 41.1654ZM25.2327 41.4913C25.6448 40.3368 25.511 39.1863 24.8885 38.2486H29.3903C28.7678 39.1863 28.6339 40.3373 29.0465 41.4913C29.3147 42.2418 29.7874 42.8823 30.3697 43.3705H23.9091C24.4919 42.8823 24.9646 42.2423 25.2327 41.4913ZM34.3387 44.3407V46.4866H19.9401V44.3407H34.3387Z" fill="black"/>
<path d="M16.0381 35.6314V27.9189H11.7578V35.6319L16.0381 35.6314ZM12.7275 28.8886H15.0679V34.6622H12.7275V28.8886Z" fill="black"/>
<path d="M29.2798 35.6314V17.1912H25V35.6314H29.2798ZM25.9697 18.1609H28.3101V34.6617H25.9697V18.1609Z" fill="black"/>
<path d="M22.6587 35.6313V24.2407H18.3789V35.6318L22.6587 35.6313ZM19.3486 25.2104H21.689V34.6621H19.3486V25.2104Z" fill="black"/>
<path d="M38.2402 35.6314H42.5195V27.9189H38.2402V35.6314ZM39.2099 28.8886H41.5498V34.6622H39.2099V28.8886Z" fill="black"/>
<path d="M46.7458 36.3027L45.4158 37.6327L44.2187 36.4356C45.4769 35.0131 46.1717 33.2084 46.1717 31.2928C46.1717 29.2143 45.362 27.2603 43.8924 25.7907C42.4233 24.3212 40.4689 23.5115 38.3909 23.5115C36.3128 23.5115 34.3589 24.3207 32.8888 25.7907C29.8551 28.8244 29.8546 33.7607 32.8883 36.7949C34.3579 38.2644 36.3123 39.0741 38.3904 39.0741C40.306 39.0741 42.1111 38.3789 43.5327 37.1212L44.7298 38.3183L43.4003 39.6472L53.3707 49.6177L56.7157 46.2732L46.7458 36.3027ZM33.5749 26.4768C33.986 26.0661 34.4432 25.7214 34.9305 25.4324V34.6615H32.4786C30.9989 32.0618 31.3596 28.6916 33.5749 26.4768ZM33.5744 36.1098C33.4212 35.9566 33.2781 35.7961 33.1424 35.6317H35.9002V24.9554C36.6837 24.6475 37.5244 24.4821 38.3913 24.4821C40.2105 24.4821 41.9206 25.1905 43.2073 26.4773C44.4941 27.7641 45.2025 29.4741 45.2025 31.2938C45.2025 33.1129 44.4936 34.824 43.2073 36.1103C41.921 37.3966 40.2105 38.1054 38.3909 38.1054C36.5712 38.1049 34.8607 37.3961 33.5744 36.1098ZM44.7715 39.6472L46.7453 37.6739L55.3446 46.2732L53.3707 48.2465L44.7715 39.6472Z" fill="black"/>
</g>
</g>
<defs>
<clipPath id="clip0_318_51795">
<rect width="48" height="48" fill="white" transform="translate(8 8)"/>
</clipPath>
<clipPath id="clip1_318_51795">
<rect width="48" height="35.8788" fill="white" transform="translate(9 14)"/>
</clipPath>
</defs>
</svg>
