<svg width="48" height="39" viewBox="0 0 48 39" fill="none" xmlns="http://www.w3.org/2000/svg">
<path d="M4.51845 10.9829C5.82942 8.88971 7.39563 6.97015 9.27006 5.35444C10.6826 4.13898 14.1944 1.64032 13.8567 5.36139C15.0791 4.25358 16.404 3.24127 17.8044 2.36873C20.0191 0.98831 23.7324 -0.170726 22.6949 3.92279C26.8613 3.6224 31.1919 4.00961 35.2324 5.05405C32.8944 5.9943 30.2725 6.27472 27.8207 6.74615C23.6898 7.53794 19.559 8.84544 15.9629 11.0637C10.6574 14.3376 6.29043 19.5572 3.40283 25.0146C3.09723 25.5894 1.45982 29.9729 0.713177 29.2323C-0.485794 28.0394 0.161877 24.9382 0.289501 23.4484C0.675846 19.0276 2.16305 14.7378 4.51845 10.9829Z" fill="#10D48E"/>
<path d="M4.0676 34.0452C3.69081 34.7181 2.62641 38.9201 2.12633 38.9062C-0.46088 38.8203 4.61195 26.558 5.16846 25.5726C8.75409 19.2304 14.0943 13.5933 20.8298 10.6405C29.5455 6.82224 41.4406 8.03771 47.9998 0C48.0267 3.28784 45.7138 6.43156 43.4739 8.6003C42.1786 9.85397 40.7339 10.947 39.2163 11.9142C38.5348 12.3465 37.0632 12.633 37.1812 13.529C37.3844 15.0787 36.7385 16.6293 35.8008 17.8326C31.2802 23.6269 22.62 23.7884 16.1007 25.4857C12.977 26.2984 9.87579 27.6363 7.47178 29.8284C6.13303 31.0474 4.95316 32.4625 4.0676 34.0452Z" fill="#10D48E"/>
</svg>
