<svg width="17" height="32" viewBox="0 0 17 32" fill="none" xmlns="http://www.w3.org/2000/svg">
<g clip-path="url(#clip0_394_251)">
<path d="M0.259766 16.2627H7.88999V23.8943H0.259766V16.2627Z" fill="#23394E"/>
<path d="M2.20703 17.4735V20.4735C2.20703 22.0525 2.99636 22.6314 4.04881 22.6314C5.15388 22.6314 5.94321 21.9998 5.94321 20.4209V17.4209H5.31174V20.4735C5.31174 21.5788 4.78552 22.1051 4.04881 22.1051C3.36472 22.1051 2.8385 21.6314 2.8385 20.4735V17.4735H2.20703Z" fill="white"/>
<path d="M8.36328 16.2627H15.9935V23.8943H8.36328V16.2627Z" fill="#23394E"/>
<path d="M10.8895 22.6308V20.4729C10.8895 19.6308 10.8895 18.9992 10.8369 18.3676C11.1 18.9465 11.4157 19.5255 11.7841 20.0518L13.4154 22.6308H14.0995V17.5781H13.5206V19.736C13.5206 20.5255 13.5206 21.1571 13.6259 21.8413C13.4154 21.315 13.0996 20.7887 12.7313 20.1571L11.1 17.5781H10.3633V22.6834L10.8895 22.6308Z" fill="white"/>
<path d="M8.36328 24.3682H15.9935V31.9997H8.36328V24.3682Z" fill="#23394E"/>
<path d="M13.4668 25.9992C13.1511 25.736 12.6775 25.5781 11.9934 25.5781C11.4672 25.5781 11.0462 25.6308 10.7305 25.6834V30.736H11.3619V28.6834C11.5198 28.736 11.6777 28.736 11.8882 28.736C12.5196 28.736 13.0985 28.5255 13.4142 28.1571C13.6773 27.8939 13.8352 27.5255 13.8352 27.0518C13.9404 26.6308 13.7826 26.2623 13.4668 25.9992Z" fill="white"/>
<path d="M11.9945 28.2103C11.784 28.2103 11.5735 28.2103 11.4157 28.1576V26.2103C11.5209 26.2103 11.7314 26.1576 12.0471 26.1576C12.7839 26.1576 13.2575 26.4734 13.2575 27.1576C13.2575 27.8418 12.7839 28.2103 11.9945 28.2103ZM0.259766 24.3682H7.88999V31.9997H0.259766V24.3682Z" fill="#23394E"/>
<path d="M5.62736 26.2097C5.20639 25.7887 4.5223 25.5781 3.5751 25.5781C3.04887 25.5781 2.57527 25.6308 2.1543 25.6834V30.736C2.47003 30.7887 2.89101 30.7887 3.36461 30.7887C4.36443 30.7887 5.15376 30.5255 5.62736 30.0518C6.10096 29.5781 6.36407 28.8939 6.36407 28.1044C6.36407 27.2097 6.10096 26.6308 5.62736 26.2097Z" fill="white"/>
<path d="M3.52234 30.2105C3.25923 30.2105 2.99612 30.2105 2.83825 30.1579V26.1579C2.99612 26.1053 3.25923 26.0526 3.62759 26.0526C5.04839 26.0526 5.67985 26.7895 5.67985 28C5.67985 29.4211 4.89052 30.2632 3.52234 30.2105ZM0.259766 0H16.0464V15.7895H0.259766V0Z" fill="#23394E"/>
<path d="M13.7828 8.20996C13.5723 8.52575 13.2566 8.78891 13.0987 9.15733C13.0987 8.89417 13.1513 8.57838 13.0461 8.36786C12.8882 7.84154 12.7304 7.36786 12.6777 6.73628V6.52575C12.783 7.1047 13.3618 7.52575 13.3092 8.15733C13.3092 8.31522 13.2566 8.47312 13.204 8.57838V8.52575C13.3092 8.20996 13.3092 7.89417 13.4671 7.57838C13.6776 7.15733 13.888 6.73628 13.7828 6.20996C14.2038 6.84154 14.0985 7.63101 13.7828 8.20996Z" fill="white"/>
<path d="M13.4682 4.94728C13.8366 5.4736 13.9418 6.26307 13.6261 6.84202C13.5209 7.10518 13.4682 7.36834 13.4156 7.6315C13.4156 7.57886 13.4156 7.52623 13.363 7.4736C13.2577 6.89465 12.6789 6.4736 12.4684 5.99992C12.3632 5.84202 12.3632 5.68413 12.3105 5.42097C12.521 5.84202 13.0999 6.05255 13.3104 6.57886C13.4156 6.68413 13.363 6.84202 13.4156 6.99992C13.3104 6.4736 13.363 5.99992 13.4156 5.52623C13.4156 5.26307 13.363 4.99992 13.2577 4.78939C13.3104 4.73676 13.363 4.84202 13.4682 4.94728Z" fill="white"/>
<path d="M13.2041 4.8419C13.3094 5.26295 13.1515 5.684 13.2567 6.15769C12.9936 5.684 12.52 5.47348 12.1517 5.10506C11.9412 4.89453 11.8359 4.57874 11.8359 4.31558C12.0464 4.78927 12.5726 4.89453 12.8884 5.31558C12.9936 5.42085 12.9936 5.52611 13.0989 5.63137C12.941 5.26295 12.8358 4.8419 12.7831 4.36822L12.4674 3.89453C12.7831 3.99979 13.0989 4.42085 13.2041 4.8419Z" fill="white"/>
<path d="M12.0989 3.84211C12.4146 4.15789 12.5199 4.47368 12.6251 4.84211L12.6778 4.94737C12.2568 4.63158 11.8358 4.15789 11.5201 3.73684L11.2043 3.36842C11.4674 3.47368 11.8358 3.57895 12.0989 3.84211ZM6.25784 3.47368C6.83668 3.15789 7.52077 3.05263 8.15224 3C9.73091 3 11.257 3.94737 11.941 5.36842C12.362 6.21053 12.5199 7.36842 12.2568 8.31579C11.941 9.47368 10.9938 10.5789 9.88877 11.0526C8.62584 11.6316 6.88931 11.5263 5.78424 10.7368C4.2582 9.73684 3.62673 7.89474 4.10033 6.10526C4.36344 5.05263 5.2054 3.94737 6.25784 3.47368ZM5.04753 3.47368C4.7318 3.73684 4.52131 4.10526 4.2582 4.42105C4.04771 4.63158 3.7846 4.84211 3.52148 5.05263C3.67935 4.73684 3.67935 4.42105 3.88984 4.21053C4.15295 3.73684 4.62655 3.63158 5.04753 3.47368Z" fill="white"/>
<path d="M3.30987 4.42116C3.41512 4.21063 3.62561 4.10537 3.88872 4.05273C3.46774 4.36852 3.52036 4.84221 3.3625 5.31589C3.30987 5.42116 3.25725 5.63168 3.20463 5.73694C3.30987 5.57905 3.41512 5.42116 3.52036 5.21063C3.8361 4.89484 4.25707 4.73694 4.41494 4.31589C4.41494 4.89484 3.94134 5.31589 3.46774 5.63168C3.25725 5.78958 3.09939 5.94747 2.99414 6.21063V5.78958C3.04676 5.31589 2.99414 4.73694 3.30987 4.42116Z" fill="white"/>
<path d="M2.52282 6.05222C2.52282 5.5259 2.73331 5.15748 2.99642 4.78906C2.68069 5.26275 2.9438 5.89433 2.89118 6.42064L2.83856 6.99959C2.83856 6.89433 2.83856 6.89433 2.89118 6.78906C2.99642 6.31538 3.36478 5.99959 3.68051 5.6838C3.78576 5.57854 3.78576 5.5259 3.83838 5.42064C3.78576 5.63117 3.73313 5.89433 3.62789 6.10485C3.36478 6.63117 2.83856 7.05222 2.78593 7.63117C2.83856 7.10485 2.41758 6.63117 2.52282 6.05222Z" fill="white"/>
<path d="M2.25916 6.78911L2.41703 6.31543C2.31178 6.94701 2.73276 7.47332 2.89063 7.99964L3.04849 8.63122C2.83801 8.05227 3.15374 7.47332 3.46947 6.94701C3.57472 6.84175 3.57472 6.68385 3.62734 6.52596C3.67996 6.78911 3.57472 7.1049 3.52209 7.36806C3.41685 7.68385 3.31161 8.1049 3.20636 8.42069C3.10112 8.63122 3.15374 8.89438 3.20636 9.1049C2.99587 8.68385 2.52227 8.31543 2.41703 7.84175C2.25916 7.57859 2.15392 7.15753 2.25916 6.78911Z" fill="white"/>
<path d="M2.20703 8.05263C2.25965 8.73684 2.99636 9.10526 3.36472 9.73684C3.46996 9.84211 3.52259 9.94737 3.68045 10.0526C3.68045 9.94737 3.57521 9.94737 3.57521 9.84211C3.46996 9.57895 3.41734 9.31579 3.46996 9.05263C3.52259 8.73684 3.62783 8.36842 3.57521 8C3.89094 8.63158 3.7857 9.47368 3.94356 10.1579C3.99619 10.3158 4.04881 10.4737 4.15405 10.5789C3.52259 10.1579 2.68063 9.78947 2.41752 8.94737C2.20703 8.68421 2.20703 8.36842 2.20703 8.05263Z" fill="white"/>
<path d="M2.62695 9.63168C2.94269 10.4212 3.88989 10.4738 4.41611 10.9475C4.46873 11.0527 4.6266 11.158 4.73184 11.158C4.6266 11.0527 4.41611 10.8948 4.36349 10.7369C4.04775 10.2633 4.153 9.57905 3.88989 9.05273C4.10038 9.36852 4.31086 9.63168 4.46873 10.0001C4.67922 10.5264 4.78446 11.1054 5.25806 11.4738C4.73184 11.3159 4.10038 11.3685 3.62678 11.0527C3.15318 10.7369 2.67958 10.2633 2.62695 9.63168Z" fill="white"/>
<path d="M3.52148 11.1577C4.10033 11.7893 4.99491 11.5788 5.73162 11.7367C5.83686 11.7367 5.94211 11.7893 6.04735 11.7893C5.94211 11.7367 5.83686 11.7367 5.73162 11.6841C5.15277 11.4735 5.04753 10.8946 4.7318 10.4209C5.15277 10.6841 5.46851 11.0525 5.83686 11.4209C6.09997 11.6314 6.41571 11.7367 6.78406 11.842C6.67882 11.8946 6.57357 11.842 6.46833 11.8946C5.83686 12.0525 5.2054 12.263 4.52131 12.0525C4.15295 11.842 3.73197 11.5262 3.52148 11.1577Z" fill="white"/>
<path d="M11.0992 12.5785C10.4677 12.789 9.83622 12.5785 9.31 12.2101C9.09951 12.1048 8.94164 11.8943 8.67853 11.8943H8.41542C8.88902 12.1048 9.36262 12.4206 9.73097 12.8416C9.62573 12.9469 9.57311 12.9995 9.46786 13.0522C9.09951 12.6311 8.67853 12.2627 8.15231 11.9995C8.04706 11.9995 7.99444 12.1048 7.88919 12.1048C7.52084 12.368 7.09986 12.6837 6.83675 13.1048L6.57364 12.8416C6.99462 12.4206 7.41559 12.1048 7.88919 11.8943C7.41559 11.7364 7.09986 12.1574 6.73151 12.368C6.31053 12.6837 5.73168 12.789 5.20546 12.5785C4.88973 12.4732 4.62662 12.3153 4.46875 12.0522C4.88973 12.368 5.46857 12.368 5.94217 12.1574C6.57364 11.8943 7.20511 11.5785 7.94182 11.7364C8.04706 11.7364 8.15231 11.8416 8.25755 11.7364C8.83639 11.6311 9.41524 11.6837 9.94146 11.9469L10.4677 12.1574C10.9413 12.3153 11.4675 12.2627 11.9411 11.9995C11.6254 12.3153 11.4149 12.5258 11.0992 12.5785Z" fill="white"/>
<path d="M11.7824 11.9471C11.0457 12.2103 10.3616 11.8945 9.67751 11.7892H9.57227C9.888 11.684 10.2037 11.6313 10.4668 11.3682C10.8352 10.9997 11.2036 10.6313 11.6245 10.3682C11.3088 10.7892 11.3088 11.3682 10.7826 11.6313C10.6773 11.7366 10.4668 11.7366 10.3616 11.7892C10.5721 11.7892 10.6773 11.684 10.9404 11.684C11.6245 11.5787 12.4139 11.684 12.8875 11.105C12.6244 11.4734 12.1508 11.8418 11.7824 11.9471Z" fill="white"/>
<path d="M12.1519 11.2106C11.8362 11.3159 11.4152 11.3159 11.0469 11.4738C11.6257 10.9475 11.6257 10.158 11.9941 9.57905C12.0993 9.42116 12.2046 9.26326 12.3624 9.05273C12.0993 9.52642 12.2572 10.158 11.9415 10.6317C11.8362 10.8422 11.6783 11.0001 11.5205 11.158C11.5731 11.158 11.6257 11.1054 11.6783 11.0527C12.1519 10.6317 12.6782 10.4738 13.2044 10.1054C13.4149 9.94747 13.5727 9.78958 13.678 9.52642C13.6254 10.3159 12.836 11.0001 12.1519 11.2106Z" fill="white"/>
<path d="M13.0452 9.94716C12.7295 10.1051 12.4663 10.263 12.2559 10.5261C12.6768 9.8419 12.4663 8.89453 12.7295 8.15769L12.8347 7.89453C12.7821 8.36822 12.9926 8.73664 12.9399 9.21032C12.9399 9.52611 12.8347 9.73664 12.6768 9.99979C12.8873 9.73664 12.9926 9.42085 13.2557 9.21032C13.624 8.89453 13.9924 8.47348 14.045 7.99979C14.2029 8.78927 13.7293 9.52611 13.0452 9.94716Z" fill="white"/>
<path d="M9.88985 9.89463C10.0477 9.78937 10.2056 9.68411 10.3108 9.57885H10.2056C10.1003 9.57885 10.1003 9.47358 10.1003 9.47358L9.83723 9.21042V9.15779C9.83723 9.21042 9.7846 9.26306 9.73198 9.26306C9.73198 9.31569 9.73198 9.36832 9.7846 9.36832C9.88985 9.42095 9.99509 9.47358 9.99509 9.52621C9.94247 9.63148 9.7846 9.68411 9.88985 9.842C9.94247 9.842 9.83723 9.842 9.88985 9.89463ZM8.41643 6.47358C8.46905 6.52621 8.52167 6.47358 8.52167 6.42095C8.57429 6.42095 8.62691 6.47358 8.62691 6.52621H8.73216C8.73216 6.36832 8.99527 6.42095 9.04789 6.21042H8.99527C8.99527 6.21042 8.94265 6.21042 8.94265 6.15779L9.04789 6.05253C8.8374 5.94727 8.67954 5.842 8.46905 5.78937C8.3638 5.78937 8.31118 5.78937 8.20594 5.73674C8.25856 5.842 8.20594 6.05253 8.25856 6.15779L8.3638 6.21042C8.41643 6.10516 8.46905 6.10516 8.52167 6.05253H8.62691V6.21042C8.62691 6.42095 8.46905 6.42095 8.41643 6.47358ZM10.6266 7.89463C10.5213 8.21042 10.4161 8.47358 10.2582 8.68411C10.153 8.78937 10.153 8.89463 10.0477 8.94727L10.2582 9.10516V9.05253C10.2582 9.05253 10.2582 8.9999 10.3108 8.9999C10.4161 8.9999 10.4161 9.10516 10.4161 9.10516C10.4161 9.21042 10.4687 9.21042 10.4687 9.31569C10.9949 8.73674 11.258 8.05253 11.3106 7.31569L11.3633 7.26306H10.7318C10.7318 7.36832 10.7318 7.52621 10.6792 7.63148L10.7844 7.73674V7.842C10.6792 7.94727 10.6792 7.94727 10.6266 7.89463ZM10.1003 6.05253C9.99509 5.94727 9.94247 5.78937 9.7846 5.68411C9.57412 5.89463 9.36363 6.10516 9.20576 6.31569L9.25838 6.36832C9.25838 6.31569 9.311 6.26306 9.311 6.26306C9.36363 6.15779 9.41625 6.26306 9.52149 6.26306H9.83723C9.94247 6.31569 9.94247 6.36832 9.99509 6.42095V6.52621C9.99509 6.68411 10.1003 6.47358 10.153 6.52621C10.2056 6.52621 10.2582 6.52621 10.2582 6.57885C10.2582 6.68411 10.3634 6.63148 10.3634 6.68411C10.3634 6.73674 10.3108 6.73674 10.3108 6.73674C10.3108 6.842 10.2056 6.842 10.2582 6.89463C10.3634 6.89463 10.3634 6.78937 10.4161 6.73674C10.3634 6.63148 10.3634 6.52621 10.3108 6.42095C10.2056 6.42095 10.2056 6.31569 10.153 6.31569C9.99509 6.21042 10.153 6.15779 10.1003 6.05253ZM8.25856 10.421C8.41643 10.3683 8.57429 10.3683 8.78478 10.3157C8.73216 10.3157 8.67954 10.3157 8.67954 10.2631C8.57429 10.2631 8.57429 10.1578 8.52167 10.0525C8.52167 9.9999 8.52167 9.94727 8.57429 9.89463C8.52167 9.78937 8.41643 9.89464 8.31118 9.842C8.31118 9.842 8.25856 9.78937 8.20594 9.78937L8.25856 9.842V10.421ZM8.41643 8.78937C8.46905 8.78937 8.41643 8.89463 8.46905 8.89463C8.57429 8.842 8.62692 8.9999 8.67954 8.89463C8.67954 8.78937 8.78478 8.78937 8.8374 8.78937C8.94265 8.73674 9.04789 8.68411 9.04789 8.52621C8.94265 8.52621 8.94265 8.57885 8.94265 8.63148C8.89003 8.68411 8.8374 8.52621 8.8374 8.57885V8.63148C8.73216 8.73674 8.73216 8.57885 8.67954 8.63148V8.68411C8.62692 8.57885 8.57429 8.63148 8.52167 8.57885H8.41643C8.41643 8.63148 8.31118 8.57885 8.31118 8.63148C8.25856 8.63148 8.25856 8.73674 8.20594 8.73674C8.10069 8.73674 8.10069 8.842 8.04807 8.78937V8.842H8.15332C8.20594 8.73674 8.31118 8.842 8.41643 8.78937ZM8.99527 7.9999C8.99527 8.05253 8.99527 8.10516 9.04789 8.10516C9.15314 8.10516 9.10051 8.21042 9.15314 8.21042C9.20576 8.21042 9.15314 8.15779 9.15314 8.10516C9.15314 7.9999 9.10052 7.9999 8.99527 7.9999C9.04789 7.9999 9.04789 7.9999 8.99527 7.9999C9.04789 7.94727 9.04789 7.94727 8.99527 7.9999ZM8.94265 5.05253C8.73216 4.94727 8.52167 4.94727 8.25856 4.94727V5.57885H8.31118C8.62692 5.63148 8.99527 5.73674 9.25838 5.94727V5.9999C9.36363 5.89463 9.46887 5.73674 9.57412 5.63148L9.67936 5.57885H9.62674C9.41625 5.31569 9.15314 5.15779 8.94265 5.05253ZM4.99598 7.42095L5.0486 7.78937C5.0486 7.89463 5.15385 8.10516 5.15385 8.21042C5.15385 8.15779 5.15385 8.10516 5.25909 8.10516C5.25909 8.05253 5.31172 7.9999 5.25909 7.9999C5.25909 7.89463 5.31172 7.78937 5.36434 7.68411C5.46958 7.68411 5.46958 7.57885 5.57483 7.52621C5.62745 7.52621 5.68007 7.63148 5.68007 7.63148C5.57483 7.52621 5.57483 7.42095 5.62745 7.31569H4.94336L4.99598 7.42095ZM8.78478 8.42095C8.8374 8.36832 8.94265 8.36832 8.94265 8.31569C8.89003 8.26306 8.89003 8.31569 8.78478 8.42095C8.73216 8.42095 8.73216 8.36832 8.78478 8.42095ZM10.1003 7.31569L10.2056 7.42095C10.3108 7.47358 10.2056 7.52621 10.3108 7.57885C10.4161 7.63148 10.4161 7.68411 10.4161 7.78937V7.73674C10.4687 7.63148 10.4161 7.47358 10.4687 7.42095C10.3634 7.36832 10.2056 7.36832 10.1003 7.31569ZM9.25838 8.842C9.36363 8.842 9.36363 8.94727 9.46887 8.94727C9.57412 8.89463 9.67936 8.94727 9.73198 8.89463C9.73198 8.78937 9.7846 8.78937 9.83723 8.68411C9.88985 8.73674 9.88985 8.78937 9.88985 8.842C9.94247 8.73674 9.99509 8.73674 10.0477 8.63148C10.153 8.42095 10.3108 8.21042 10.3634 7.9999C10.3108 7.9999 10.2582 7.9999 10.2056 8.05253C10.153 8.05253 10.1003 8.10516 9.99509 8.05253H9.94247C9.94247 8.10516 9.88985 8.15779 9.83723 8.10516C9.7846 8.10516 9.7846 8.05253 9.7846 7.9999V8.10516C9.73198 8.15779 9.73198 8.21042 9.67936 8.21042C9.62674 8.26306 9.57412 8.26306 9.52149 8.31569C9.52149 8.42095 9.41625 8.42095 9.36363 8.42095H9.46887C9.57412 8.42095 9.57412 8.31569 9.57412 8.31569C9.62674 8.31569 9.67936 8.26306 9.67936 8.31569C9.73198 8.36832 9.73198 8.42095 9.73198 8.52621C9.67936 8.57885 9.73198 8.63148 9.67936 8.73674C9.67936 8.842 9.57412 8.842 9.57412 8.89463C9.52149 8.94727 9.46887 8.94727 9.46887 8.94727C9.311 8.842 9.15314 8.842 8.94265 8.842C8.94265 8.842 8.89003 8.842 8.94265 8.89463C9.10052 8.78937 9.15314 8.78937 9.25838 8.842ZM7.99545 10.6841C7.15349 10.6315 6.41678 10.3683 5.83794 9.73674L5.41696 10.1578C6.04843 10.7367 6.83776 11.1052 7.67972 11.1578C7.78496 11.1578 7.99545 11.1578 8.10069 11.2104L8.04807 11.1578L7.99545 10.6841ZM7.15349 8.42095C7.36398 8.57885 7.62709 8.73674 7.94283 8.73674V8.57885C7.94283 8.52621 8.04807 8.52621 8.04807 8.52621C8.04807 8.52621 8.10069 8.47358 8.04807 8.47358C7.99545 8.47358 7.99545 8.36832 7.99545 8.36832C7.99545 8.36832 8.04807 8.36832 8.04807 8.31569C7.99545 8.26306 8.04807 8.21042 8.04807 8.21042L8.10069 8.15779C7.99545 8.21042 7.83758 8.15779 7.73234 8.05253L7.62709 7.94727L7.15349 8.42095ZM6.943 7.73674C6.89038 7.73674 6.89038 7.73674 6.943 7.73674H6.83776C6.83776 7.63148 6.73252 7.68411 6.67989 7.63148L6.83776 7.94727C6.89038 8.05253 6.943 8.10516 6.99563 8.21042C7.04825 8.10516 7.10087 8.10516 7.15349 7.9999V7.89463C7.15349 7.842 7.15349 7.78937 7.10087 7.78937C7.04825 7.78937 7.10087 7.89463 7.10087 7.89463H7.04825C6.99563 7.89463 6.943 7.842 6.943 7.78937C6.99563 7.78937 6.943 7.78937 6.943 7.73674ZM7.36398 7.78937C7.36398 7.842 7.31136 7.89463 7.25874 7.89463C7.31136 7.842 7.36398 7.78937 7.4166 7.78937H7.36398ZM7.99545 9.842C7.46923 9.842 7.04825 9.63148 6.62727 9.31569C6.62727 9.36832 6.73252 9.42095 6.67989 9.42095C6.62727 9.47358 6.57465 9.47358 6.52203 9.47358C6.41678 9.47358 6.31154 9.57885 6.20629 9.57885C6.10105 9.63148 6.10105 9.47358 5.9958 9.47358C6.57465 9.9999 7.25874 10.2631 8.04807 10.3157L8.10069 10.3683V9.73674L7.99545 9.842Z" fill="#23394E"/>
<path d="M5.67828 9.57828C5.57303 9.52565 5.57303 9.47302 5.46779 9.36775C5.36254 9.36775 5.36254 9.26249 5.30992 9.26249V9.15723V9.20986C5.20468 9.26249 5.20468 9.15723 5.15205 9.10459C5.04681 9.05196 5.09943 8.89407 4.99419 8.9467C4.94156 8.9467 4.94156 8.89407 4.88894 8.89407C4.7837 8.89407 4.7837 8.78881 4.7837 8.78881V8.84144C4.67845 8.84144 4.67845 8.73617 4.62583 8.73617H4.57321C4.52059 8.68354 4.46796 8.63091 4.46796 8.52565C4.36272 8.42038 4.41534 8.31512 4.46796 8.20986C4.46796 8.20986 4.52059 8.15723 4.52059 8.10459C4.52059 8.05196 4.62583 8.05196 4.62583 8.05196C4.62583 8.05196 4.67845 8.05196 4.67845 8.10459C4.73108 8.10459 4.7837 8.10459 4.7837 8.05196C4.83632 7.99933 4.88894 7.99933 4.88894 7.99933C4.94156 8.05196 4.94156 8.10459 4.99419 8.10459L4.94156 8.05196C4.88894 7.84144 4.83632 7.63091 4.83632 7.42038V7.26249H4.09961C4.15223 7.9467 4.3101 8.52565 4.62583 9.10459C4.73108 9.42038 4.99419 9.63091 5.20468 9.89407L5.62565 9.47302L5.67828 9.57828ZM6.36237 4.63091C6.25712 4.73617 6.09925 4.84144 5.99401 4.9467C6.15188 5.05196 6.30974 5.20986 6.41499 5.31512V5.36775C6.73072 5.05196 7.20432 4.84144 7.6253 4.73617C7.73054 4.73617 7.83579 4.68354 7.94103 4.73617V4.15723C7.36219 4.15723 6.88859 4.36775 6.36237 4.63091ZM5.83614 6.89407C5.83614 6.99933 5.83614 7.10459 5.78352 7.20986C5.88876 7.15723 5.94139 7.20986 6.04663 7.20986C5.99401 7.20986 6.04663 7.10459 5.99401 7.10459C5.99401 7.05196 5.99401 6.99933 6.04663 6.9467C6.04663 6.84144 6.15188 6.84144 6.15188 6.73617C6.15188 6.63091 6.25712 6.68354 6.30974 6.63091C6.36236 6.63091 6.30974 6.57828 6.30974 6.52565C6.36236 6.47302 6.41499 6.47302 6.46761 6.42038L6.57285 6.31512C6.6781 6.31512 6.6781 6.15723 6.83596 6.15723C6.6781 6.05196 6.52023 5.84144 6.36237 5.73617C6.15188 6.05196 5.94139 6.42038 5.83614 6.89407ZM5.94139 7.73617C5.94139 7.68354 5.88876 7.68354 5.88876 7.63091C5.94139 7.52565 5.88876 7.42038 5.99401 7.42038C5.88876 7.42038 5.88876 7.47302 5.78352 7.42038L5.83614 7.47302C5.83614 7.57828 5.88876 7.73617 5.88876 7.89407C5.88876 7.78881 5.88876 7.73617 5.94139 7.73617Z" fill="#23394E"/>
<path d="M5.83621 5.1048L5.62572 5.42059C5.25736 5.94691 5.04688 6.52585 5.04688 7.15743H5.67834V7.1048C5.73096 6.52585 5.94145 5.94691 6.36243 5.52585C6.15194 5.36796 5.99408 5.2627 5.83621 5.1048ZM7.57274 9.05217C7.62536 8.99954 7.67799 8.94691 7.73061 8.94691C7.52012 8.99954 7.41487 8.84164 7.20439 8.78901C7.09914 8.73638 6.9939 8.68375 6.94127 8.57848C6.83603 8.73638 6.67816 8.89427 6.5203 8.99954C6.62554 8.99954 6.62554 9.1048 6.67816 9.1048C6.9939 9.36796 7.41487 9.47322 7.73061 9.57849L7.62536 9.52585C7.52012 9.42059 7.4675 9.31533 7.41488 9.21006C7.57274 9.15743 7.57274 9.1048 7.57274 9.05217ZM6.15194 7.36796V7.47322C6.15194 7.57849 6.0467 7.47322 6.0467 7.52585V7.63112C5.99407 7.73638 6.15194 7.78901 6.15194 7.94691C6.20456 8.05217 6.15194 8.1048 6.25719 8.21006C6.25719 8.31533 6.25719 8.52585 6.36243 8.63112V8.73638C6.36243 8.84164 6.25719 8.84164 6.25719 8.84164C6.25719 8.84164 6.30981 8.84164 6.30981 8.89427C6.46767 8.68375 6.62554 8.52585 6.88865 8.31533L6.78341 8.21006C6.67816 7.99954 6.5203 7.73638 6.46767 7.47322L6.41505 7.42059C6.41505 7.52585 6.36243 7.52585 6.36243 7.63112C6.30981 7.63112 6.25719 7.57849 6.25719 7.57849C6.25719 7.57849 6.20456 7.52585 6.25719 7.47322H6.30981V7.36796C6.30981 7.31533 6.25719 7.2627 6.30981 7.2627C6.36243 7.2627 6.41505 7.31533 6.41505 7.36796C6.46767 7.36796 6.5203 7.36796 6.5203 7.31533C6.5203 7.2627 6.57292 7.21006 6.5203 7.21006C6.57292 7.1048 6.5203 7.05217 6.5203 6.94691C6.46767 6.89427 6.41505 6.94691 6.36243 6.94691C6.20456 6.99954 6.41505 7.1048 6.36243 7.2627C6.25719 7.42059 6.20456 7.31533 6.15194 7.36796ZM11.5194 7.36796C11.4668 8.1048 11.2037 8.68375 10.8353 9.2627C10.7301 9.36796 10.7301 9.47322 10.5722 9.52585C10.7301 9.63112 10.8879 9.84164 11.0458 9.99954C11.6773 9.2627 12.0456 8.42059 12.0456 7.42059V7.36796H11.5194ZM5.83621 4.84164C6.46768 4.2627 7.15176 3.94691 7.99372 3.89427V3.2627C7.15176 3.31533 6.41505 3.57848 5.73096 4.05217C5.62572 4.15743 5.52047 4.2627 5.36261 4.36796C5.5731 4.47322 5.73096 4.63112 5.83621 4.84164ZM7.99372 4.94691C7.4675 4.99954 6.9939 5.21006 6.57292 5.52585C6.73079 5.63112 6.88865 5.84164 6.9939 5.94691C6.9939 5.94691 6.9939 5.89427 7.04652 5.89427C7.25701 5.78901 7.4675 5.63112 7.67799 5.57849C7.78323 5.57849 7.88847 5.52585 7.99372 5.52585V4.94691ZM7.99372 5.73638C7.62536 5.78901 7.36225 5.94691 7.09914 6.21006H7.15176C7.20439 6.2627 7.25701 6.2627 7.30963 6.31533C7.30963 6.36796 7.25701 6.36796 7.25701 6.42059H7.30963C7.36225 6.42059 7.36225 6.42059 7.36225 6.36796C7.41487 6.31533 7.41487 6.42059 7.4675 6.42059H7.57274C7.62536 6.36796 7.67799 6.42059 7.67799 6.36796C7.78323 6.2627 7.73061 6.21006 7.78323 6.15743C7.83585 6.15743 7.78323 6.21006 7.78323 6.2627C7.88847 6.31533 7.88847 6.21006 7.99372 6.2627V5.73638ZM8.04634 6.68375C7.9411 6.78901 7.88847 6.78901 7.78323 6.84164C7.73061 6.89427 7.78323 6.94691 7.67799 6.94691C7.67799 6.99954 7.57274 7.05217 7.57274 7.05217C7.52012 7.15743 7.57274 7.21006 7.52012 7.31533C7.41488 7.42059 7.41487 7.21006 7.36225 7.21006H7.20439C7.15176 7.2627 7.09914 7.31533 7.15176 7.31533C7.15176 7.36796 7.04652 7.31533 7.04652 7.42059C7.15176 7.42059 7.15176 7.42059 7.25701 7.36796H7.36225C7.36225 7.36796 7.41488 7.36796 7.41488 7.42059C7.4675 7.42059 7.4675 7.31533 7.4675 7.31533C7.4675 7.2627 7.52012 7.2627 7.57274 7.2627C7.62536 7.2627 7.57274 7.31533 7.57274 7.31533C7.67799 7.36796 7.57274 7.42059 7.52012 7.47322C7.52012 7.52585 7.52012 7.57849 7.41488 7.57849V7.52585C7.41488 7.57849 7.41487 7.63112 7.4675 7.63112C7.52012 7.57849 7.52012 7.52585 7.57274 7.52585C7.62536 7.47322 7.57274 7.42059 7.62536 7.36796C7.73061 7.36796 7.83585 7.31533 7.9411 7.42059V7.52585C7.9411 7.57849 7.88847 7.63112 7.83585 7.63112V7.73638C7.78323 7.84164 7.67799 7.84164 7.57274 7.84164C7.67799 7.94691 7.88847 7.94691 8.04634 7.94691C8.15159 7.94691 8.09896 7.84164 8.15159 7.78901C8.20421 7.68375 8.30945 7.73638 8.4147 7.68375C8.46732 7.57849 8.51994 7.57849 8.51994 7.47322C8.4147 7.42059 8.4147 7.36796 8.4147 7.31533C8.36207 7.2627 8.36207 7.21006 8.30945 7.21006V7.15743C8.30945 7.1048 8.36207 7.1048 8.36207 7.05217C8.30945 6.99954 8.30945 6.94691 8.30945 6.94691C8.20421 6.94691 8.20421 6.84164 8.15159 6.84164C8.15159 6.78901 8.04634 6.78901 8.04634 6.73638C7.9411 6.78901 7.9411 6.63112 7.83585 6.63112V6.52585C7.88847 6.47322 7.9411 6.52585 7.9411 6.52585H7.88847C7.83585 6.47322 7.78323 6.52585 7.73061 6.52585C8.04634 6.63112 7.99372 6.63112 8.04634 6.68375Z" fill="#23394E"/>
<path d="M4.78392 7.15754V7.05227C4.83655 6.36806 5.04703 5.78911 5.41539 5.2628C5.52063 5.15753 5.57326 4.99964 5.73112 4.94701L5.31015 4.52596C4.7313 5.21017 4.31032 5.99964 4.2577 6.84175C4.2577 6.94701 4.2577 7.1049 4.20508 7.21017C4.36294 7.1049 4.62606 7.1049 4.78392 7.15754ZM10.5197 9.68385C10.4671 9.78911 10.3093 9.89438 10.204 9.99964C10.0988 10.1049 9.88828 10.1575 9.78303 10.3681C9.67779 10.4733 9.67779 10.526 9.57255 10.5786C9.51992 10.6839 9.4673 10.6839 9.36206 10.7365C9.20419 10.8944 9.04632 10.6312 8.94108 10.6312L8.62535 10.6839C8.5201 10.6839 8.41486 10.7365 8.30961 10.6839V11.3154H8.36223C9.36206 11.2628 10.2566 10.8944 10.9933 10.2102L10.5197 9.78911V9.68385ZM8.25699 3.84175C8.30961 3.78911 8.30961 3.78911 8.36223 3.84175V3.94701H8.41486C8.88846 3.99964 9.36206 4.1049 9.73041 4.36806C9.83566 4.31543 9.9409 4.2628 9.99352 4.36806C10.0988 4.31543 10.0988 4.47332 10.204 4.47332C10.2566 4.47332 10.3619 4.63122 10.3619 4.73648C10.3619 4.78911 10.4671 4.84175 10.4671 4.84175C10.5724 4.73648 10.6776 4.57859 10.7829 4.47332L10.8881 4.42069C10.2566 3.84175 9.4673 3.47332 8.67797 3.36806C8.57272 3.36806 8.36223 3.36806 8.25699 3.31543V3.84175Z" fill="#23394E"/>
<path d="M8.25781 4.73695C8.36306 4.68431 8.41568 4.73695 8.52092 4.73695C8.9419 4.84221 9.31026 4.94747 9.67861 5.21063C9.62599 5.158 9.57337 5.10537 9.57337 5.05273C9.57337 4.94747 9.46812 4.94747 9.46812 4.89484H9.52075C9.62599 5.0001 9.62599 5.0001 9.67861 5.10537C9.73123 5.10537 9.78386 5.10537 9.78386 5.158C9.78386 5.21063 9.78386 5.26326 9.8891 5.31589C9.8891 5.42116 10.047 5.52642 10.047 5.63168C10.047 5.68431 10.0996 5.63168 10.0996 5.63168L10.2048 5.78958V5.89484C10.2575 5.89484 10.3101 5.84221 10.3101 5.84221C10.4153 5.89484 10.3101 5.94747 10.3101 6.0001H10.4153C10.4153 6.05273 10.3627 6.10537 10.3627 6.10537C10.3627 6.158 10.4153 6.158 10.4679 6.158C10.5206 6.158 10.5206 6.21063 10.5206 6.26326C10.6258 6.36852 10.4679 6.47379 10.5206 6.57905C10.5732 6.68431 10.5206 6.68431 10.4679 6.78958C10.4679 6.89484 10.3627 6.89484 10.3627 7.0001H10.2575C10.2048 7.05273 10.3101 7.10537 10.2575 7.158H10.4679C10.4153 7.05273 10.4679 6.94747 10.5206 6.84221C10.5732 6.73695 10.5732 6.68431 10.6258 6.63168C10.6258 6.63168 10.6784 6.57905 10.6784 6.63168C10.6784 6.73695 10.6784 6.78958 10.6258 6.84221C10.7311 6.94747 10.6784 7.05273 10.7311 7.158H11.3625V7.10537C11.3099 6.73695 11.2573 6.31589 11.0994 6.0001C11.0468 6.0001 10.9942 6.05273 10.9942 6.0001C10.9942 6.0001 10.9415 6.0001 10.9942 5.94747C10.8889 5.84221 10.8889 5.78958 10.7837 5.68431C10.6784 5.68431 10.6258 5.57905 10.5206 5.57905C10.4153 5.57905 10.4679 5.42116 10.3627 5.47379C10.3101 5.47379 10.2575 5.36852 10.2575 5.36852C10.2575 5.26326 10.2575 5.158 10.1522 5.05273C10.047 5.0001 10.047 5.158 9.99435 5.10537C9.94172 5.10537 9.99435 5.0001 9.94172 5.0001C9.94172 4.94747 9.8891 4.94747 9.8891 4.89484C9.99435 4.78958 9.78386 4.78958 9.78386 4.63168C9.78386 4.52642 9.67861 4.52642 9.62599 4.42116C9.31026 4.31589 8.99452 4.158 8.62617 4.10537C8.52092 4.10537 8.4683 4.10537 8.36306 4.05273V4.10537C8.25781 4.36852 8.25781 4.52642 8.25781 4.73695Z" fill="#23394E"/>
<path d="M10.5195 4.94644C10.5722 4.94644 10.5722 5.05171 10.6248 5.05171C10.7826 5.15697 10.8353 5.31486 10.9405 5.3675C11.0458 5.52539 11.2036 5.68329 11.2036 5.84118C11.3615 6.26223 11.5194 6.63065 11.5194 7.15697H12.1508C12.0982 7.10434 12.1508 7.05171 12.0982 6.94644C11.993 5.99907 11.6246 5.2096 10.9931 4.52539C10.8879 4.68329 10.73 4.84118 10.5195 4.94644Z" fill="#23394E"/>
<path d="M8.31055 3.73612C8.31055 3.68349 8.41579 3.73612 8.41579 3.73612L8.73152 3.63086C8.83677 3.63086 8.99464 3.63086 9.04726 3.73612C8.94201 3.84139 8.88939 3.84139 8.78415 3.84139C8.62628 3.84139 8.46841 3.89402 8.31055 3.73612ZM10.0997 4.10454C10.1523 4.10454 10.2049 4.15718 10.2049 4.20981C10.2049 4.26244 10.2576 4.31507 10.2049 4.31507C10.0997 4.3677 10.0997 4.20981 9.99446 4.20981V4.15718C10.0471 4.05191 10.0471 4.15718 10.0997 4.10454Z" fill="white"/>
</g>
<defs>
<clipPath id="clip0_394_251">
<rect width="15.7867" height="32" fill="white" transform="translate(0.259766)"/>
</clipPath>
</defs>
</svg>
