<svg width="80" height="26" viewBox="0 0 80 26" fill="none" xmlns="http://www.w3.org/2000/svg">
<g clip-path="url(#clip0_394_219)">
<path d="M52.2561 0.199219C46.6417 0.199219 41.6008 3.12063 41.6008 8.48157C41.6008 14.6557 50.5054 15.0773 50.5054 18.1493C50.5054 19.4444 48.9961 20.619 46.4606 20.619C42.8384 20.619 40.1217 18.9926 40.1217 18.9926L38.9747 24.4138C38.9747 24.4138 42.0837 25.7992 46.2493 25.7992C52.407 25.7992 57.2366 22.7573 57.2366 17.2759C57.2366 10.7705 48.3019 10.3489 48.3019 7.48769C48.3019 6.46369 49.5394 5.34934 52.075 5.34934C54.9426 5.34934 57.297 6.52392 57.297 6.52392L58.444 1.28345C58.4138 1.28345 55.8481 0.199219 52.2561 0.199219ZM0.820847 0.590748L0.669922 1.37381C0.669922 1.37381 3.02435 1.79545 5.16749 2.66887C7.91432 3.66275 8.09543 4.23498 8.57839 6.01192L13.6193 25.3776H20.3807L30.7342 0.590748H24.0029L17.332 17.4566L14.6154 3.15075C14.3739 1.5244 13.1061 0.590748 11.5365 0.590748H0.820847ZM33.4508 0.590748L28.1685 25.3776H34.5979L39.8501 0.590748H33.4508ZM69.2503 0.590748C67.7108 0.590748 66.8958 1.40392 66.2921 2.84957L56.8744 25.3776H63.6057L64.9036 21.6129H73.1139L73.8987 25.3776H79.8452L74.6836 0.590748H69.2503ZM70.1256 7.30698L72.1178 16.6133H66.7751L70.1256 7.30698Z" fill="#23394E"/>
</g>
<defs>
<clipPath id="clip0_394_219">
<rect width="79.1753" height="25.6" fill="white" transform="translate(0.669922 0.199219)"/>
</clipPath>
</defs>
</svg>
