<svg width="163" height="32" viewBox="0 0 163 32" fill="none" xmlns="http://www.w3.org/2000/svg">
<mask id="mask0_394_221" style="mask-type:luminance" maskUnits="userSpaceOnUse" x="6" y="1" width="30" height="30">
<path d="M24.4154 25.4895C26.3766 25.4653 28.2381 25.1783 29.8856 24.6249C30.3 24.4851 30.6961 24.3303 31.0705 24.1631C30.6121 25.2823 29.9389 26.2159 29.061 26.9099C27.3294 28.1846 25.2866 29.0592 23.069 29.3929C23.6232 28.4343 24.0709 27.0796 24.4154 25.4895ZM15.1849 28.2088C15.1441 28.1747 15.1 28.143 15.0501 28.1197C14.2787 27.7436 13.9667 26.0237 14.3686 23.3934C15.8514 24.0599 17.4657 24.5883 19.1623 24.9503C20.4479 25.2248 21.7294 25.3946 22.9817 25.4603C22.3676 28.1297 21.5804 29.5318 21.0587 29.5318C21.0254 29.5318 20.9929 29.5376 20.9613 29.5426C18.8944 29.5285 16.9356 29.0534 15.1849 28.2088ZM8.02296 19.7055C7.90397 19.2545 7.82991 18.7944 7.79912 18.3267C8.26344 18.9874 8.82843 19.6315 9.5016 20.2539C10.5184 21.1925 11.725 22.0329 13.0697 22.7535C12.7951 24.2896 12.7177 25.6817 12.8908 26.8033C10.5734 25.0509 8.83925 22.5704 8.02296 19.7055ZM25.2899 15.9752C25.2899 15.4327 25.2816 14.8876 25.2658 14.3451C26.9941 14.2303 28.5942 13.7809 29.9039 13.0279C31.1171 15.4277 31.7678 17.9598 31.7629 20.3496C31.762 21.0419 31.7021 21.7001 31.5923 22.3216C30.9682 22.7036 30.2501 23.0348 29.4421 23.3077C28.0076 23.7903 26.3916 24.0532 24.6783 24.0973C25.0911 21.6285 25.2899 18.7619 25.2899 15.9752ZM19.4536 23.5931C17.7328 23.2245 16.1068 22.6778 14.6348 21.9863C15.1183 19.8112 16.0186 17.1759 17.4449 14.2502C17.6521 13.8267 17.8634 13.4098 18.0789 13.0021C19.0766 13.4498 20.1625 13.8051 21.3008 14.048C22.1654 14.2336 23.0308 14.3343 23.877 14.3634C23.8928 14.8843 23.8995 15.421 23.8995 15.9752C23.8995 19.2462 23.6382 21.9613 23.2604 24.0832C22.0189 24.0291 20.74 23.8669 19.4536 23.5931ZM10.4452 19.2345C9.26529 18.1445 8.45399 16.9895 8.04043 15.8429C8.36828 14.5581 9.00234 13.2684 9.93513 12.0327C10.8197 10.8611 11.9205 9.80598 13.1828 8.89899C13.5473 9.55719 14.0574 10.1996 14.7072 10.8087C15.3247 11.387 16.0444 11.9112 16.8424 12.3697C16.6227 12.7866 16.4081 13.2101 16.1984 13.6411C14.966 16.1666 13.96 18.8767 13.3692 21.3348C12.2717 20.7165 11.2856 20.0126 10.4452 19.2345ZM24.3463 6.32613C25.9256 7.50189 27.3735 9.01881 28.5842 10.7929C28.8139 11.129 29.0302 11.471 29.2358 11.8163C28.1266 12.4579 26.722 12.8415 25.2084 12.9488C25.0802 10.5515 24.7965 8.24496 24.3463 6.32613ZM21.5921 12.6901C20.5869 12.4762 19.6316 12.1675 18.7513 11.7806C20.0477 9.51308 21.4647 7.54183 22.8635 6.0765C23.3004 7.79562 23.6665 10.1072 23.8213 12.973C23.0849 12.9422 22.336 12.8498 21.5921 12.6901ZM15.6567 9.79517C15.0817 9.25763 14.6457 8.69679 14.3519 8.13346C15.6533 7.35045 17.0937 6.71222 18.6281 6.25041C19.5409 5.97581 20.4646 5.77278 21.3857 5.63215C20.056 7.12245 18.728 9.01549 17.5106 11.154C16.815 10.7521 16.1917 10.2969 15.6567 9.79517ZM12.6694 5.36921C12.6503 5.43911 12.6303 5.51067 12.6145 5.58389C12.4739 6.23876 12.4905 6.91027 12.6553 7.57595C11.1608 8.60692 9.86107 9.82595 8.82594 11.1956C8.51057 11.6125 8.22849 12.0385 7.97303 12.467C8.74273 9.62292 10.4169 7.14825 12.6694 5.36921ZM13.9725 5.87346C14.1264 5.15286 14.56 4.50882 15.2298 3.97627C16.8516 3.49199 18.7379 3.60848 20.7208 4.33407C19.8862 4.47886 19.0516 4.67191 18.2287 4.92071C16.6968 5.38003 15.2506 6.0091 13.9259 6.77297C13.8959 6.46925 13.9101 6.16803 13.9725 5.87346ZM25.2417 4.04367C25.7185 3.73496 26.1578 3.52361 26.5248 3.43624C27.2212 3.71499 27.9119 4.07196 28.5667 4.52296C27.5158 4.26002 26.3983 4.10025 25.2417 4.04367ZM22.9018 2.5567C23.4651 2.61994 24.0667 2.71647 24.685 2.86042C24.2981 3.06845 23.897 3.32806 23.4884 3.6401C23.307 3.22987 23.1115 2.86874 22.9018 2.5567ZM21.3965 3.10173C20.7683 2.86125 20.1475 2.67486 19.5351 2.54173C20.026 2.48681 20.5228 2.45519 21.0287 2.45519C21.265 2.45768 21.5554 2.74226 21.8592 3.29228C21.7052 3.22655 21.5513 3.16164 21.3965 3.10173ZM6.11328 15.9993C6.11328 17.4189 6.31715 18.791 6.6891 20.0933C6.71156 20.1806 6.7332 20.268 6.75899 20.3554C6.76399 20.3712 6.77147 20.3862 6.7773 20.4036C8.66118 26.4955 14.3461 30.9331 21.0479 30.9331C24.1483 30.9331 27.0299 29.9828 29.4196 28.3602C29.4438 28.3461 29.4679 28.3344 29.4895 28.3194C29.631 28.2229 29.7683 28.1214 29.9014 28.0149C32.6499 25.9854 34.6785 23.0373 35.5339 19.6265C35.5822 19.47 35.6238 19.3103 35.6588 19.1488C35.6671 19.1097 35.6696 19.0731 35.6712 19.0348C35.8751 18.0538 35.9816 17.0386 35.9816 16.0002C35.9816 13.9848 35.5872 12.0285 34.8075 10.1879C34.6577 9.83428 34.2508 9.66869 33.8972 9.8193C33.5436 9.96741 33.3788 10.376 33.5277 10.7288C34.2342 12.3972 34.592 14.1712 34.592 16.0002C34.592 17.121 34.453 18.2094 34.1943 19.252C33.9887 19.9094 33.6284 20.5176 33.13 21.0702C33.1425 20.8347 33.15 20.5967 33.1508 20.3529C33.1566 17.6885 32.4194 14.8743 31.0531 12.2291C32.0549 11.3687 32.6948 10.3052 32.9136 9.11617C32.9835 8.73923 32.7339 8.37726 32.357 8.30737C31.9792 8.23664 31.6172 8.48627 31.5473 8.86404C31.4026 9.65038 30.994 10.3718 30.3549 10.9842C30.1561 10.6556 29.9497 10.3302 29.7309 10.0098C28.5118 8.22249 27.0631 6.67644 25.478 5.44244C27.5707 5.58056 29.5045 6.08732 31.0622 6.9577C31.306 7.09666 31.6305 7.0925 31.8594 6.90194C32.1539 6.65647 32.1939 6.21712 31.9467 5.92256C29.7092 2.79302 25.8391 1.06641 21.0462 1.06641C12.8134 1.06557 6.11328 7.76483 6.11328 15.9993Z" fill="white"/>
</mask>
<g mask="url(#mask0_394_221)">
<path d="M35.9816 1.06543H6.11328V30.9329H35.9816V1.06543Z" fill="url(#paint0_radial_394_221)"/>
</g>
<path d="M41.918 25.1095V20.0361H42.9182V25.1095H41.918Z" fill="#23394E"/>
<path d="M43.8105 25.1095V20.0361H45.7302C46.7678 20.0361 47.3678 20.4289 47.3678 21.3758C47.3678 22.2753 46.8327 22.4293 46.5781 22.4293V22.4426C46.9184 22.4426 47.7098 22.7405 47.7098 23.6866C47.7098 24.7467 46.876 25.1095 45.9407 25.1095H43.8105ZM45.6154 22.1538C46.1579 22.1538 46.3393 21.8851 46.3393 21.494C46.3393 21.0871 46.0705 20.8491 45.4756 20.8491H44.8091V22.1538H45.6154ZM45.7219 24.2973C46.2228 24.2973 46.6006 24.1401 46.6006 23.5809C46.6006 23.0583 46.2153 22.857 45.7019 22.857H44.8099V24.2973H45.7219Z" fill="#23394E"/>
<path d="M52.5481 25.0953C52.5481 25.0953 52.3609 25.1452 52.0264 25.1452C50.4895 25.1452 50.9105 23.2106 49.8371 23.2106H49.3029V25.1095H48.3027V20.0361H50.0843C51.3308 20.0361 51.9981 20.4938 51.9981 21.6321C51.9981 22.3785 51.5121 22.7746 51.1202 22.921C51.642 23.3487 51.6719 24.3331 52.3376 24.3331H52.5473L52.5481 25.0953ZM49.9686 22.4576C50.571 22.4576 51.0129 22.1805 51.0129 21.6604C51.0129 21.1536 50.6576 20.8466 50.0493 20.8466H49.3029V22.4576H49.9686Z" fill="#23394E"/>
<path d="M52.9883 25.1095V20.0361H54.4744C55.8066 20.0361 56.9957 20.7551 56.9957 22.6606C56.9957 24.4646 55.9223 25.1086 54.6899 25.1086H52.9883V25.1095ZM54.6824 24.2973C55.4596 24.2973 56.0013 23.7323 56.0013 22.6456C56.0013 21.5214 55.5245 20.8474 54.4586 20.8474H53.9876V24.2973H54.6824Z" fill="#23394E"/>
<path d="M59.9677 23.9503C59.4459 23.9503 59.0332 23.5301 59.0332 23.0075C59.0332 22.4858 59.4459 22.0664 59.9677 22.0664C60.4886 22.0664 60.9088 22.4858 60.9088 23.0075C60.9088 23.5301 60.4886 23.9503 59.9677 23.9503Z" fill="#23394E"/>
<path d="M63.1758 25.1095V20.0361H64.176V25.1095H63.1758Z" fill="#23394E"/>
<path d="M65.0645 25.1095V20.0361H66.5498C67.8836 20.0361 69.0719 20.7551 69.0719 22.6606C69.0719 24.4646 68.0001 25.1086 66.7678 25.1086H65.0645V25.1095ZM66.7611 24.2973C67.5375 24.2973 68.0817 23.7323 68.0817 22.6456C68.0817 21.5214 67.6032 20.8474 66.5381 20.8474H66.0671V24.2973H66.7611Z" fill="#23394E"/>
<path d="M72.3784 23.843H70.5786L70.1509 25.1086H69.1074L70.9705 20.0361H71.9915L73.8546 25.1086H72.8186L72.3784 23.843ZM70.8482 23.0808H72.1238L71.4789 21.2394L70.8482 23.0808Z" fill="#23394E"/>
<path d="M39.2676 7.72363H46.8081V9.27051H44.0389V17.029H42.0393V9.27051H39.2684L39.2676 7.72363Z" fill="#23394E"/>
<path d="M47.8672 17.029V7.72363H49.8659V11.3965H53.3849V7.72363H55.4077V17.029H53.4107V12.9426H49.8659V17.029H47.8672Z" fill="#23394E"/>
<path d="M57.0352 7.72363H63.2743V9.27051H59.0347V11.449H63.0047V12.995H59.0347V15.483H63.4166V17.029H57.036L57.0352 7.72363Z" fill="#23394E"/>
<path d="M73.201 7.72363H75.4552L77.0795 14.7224H77.1053L78.6014 7.72363H80.5086L78.1371 17.029H75.9212L74.2462 9.93952H74.2204L72.4139 17.029H70.1472L67.8789 7.72363H69.9417L71.3712 14.7224H71.3987L73.201 7.72363Z" fill="#23394E"/>
<path d="M81.1875 12.3771C81.1875 9.63202 82.5788 7.5293 85.6584 7.5293C88.7372 7.5293 90.1309 9.63119 90.1309 12.3771C90.1309 15.1231 88.7372 17.2216 85.6584 17.2216C82.5771 17.2216 81.1875 15.1222 81.1875 12.3771ZM83.3119 12.3771C83.3119 13.9731 83.6863 15.7779 85.6576 15.7779C87.6296 15.7779 88.0041 13.9731 88.0041 12.3771C88.0041 10.7778 87.6296 8.97216 85.6576 8.97216C83.6863 8.97216 83.3119 10.7787 83.3119 12.3771Z" fill="#23394E"/>
<path d="M93.4479 17.029H91.4492V7.72363H95.405C97.0043 7.73611 98.6411 8.25119 98.6411 10.1475C98.6411 11.3583 97.8548 12.1587 96.7081 12.4025V12.4292C98.2425 12.5964 98.2425 13.5367 98.4098 14.8265C98.5013 15.4198 98.577 16.5156 98.9506 17.029H96.7464C96.58 16.2053 96.4884 15.3673 96.3994 14.5286C96.347 14.0143 96.2172 13.3054 95.5615 13.2804H93.4488V17.029H93.4479ZM93.4479 11.7319H95.1213C96 11.7169 96.5142 11.2809 96.5142 10.4546C96.5142 9.63081 96 9.28216 95.1213 9.26968H93.4479V11.7319Z" fill="#23394E"/>
<path d="M100.166 17.029V7.72363H102.165V15.483H106.199V17.029H100.166Z" fill="#23394E"/>
<path d="M107.283 7.72395H110.455C113.353 7.69899 115.158 9.14102 115.158 12.3771C115.158 15.6115 113.353 17.0543 110.455 17.0285H107.283V7.72395ZM109.28 15.4825H110.311C112.684 15.5083 113.033 13.8574 113.033 12.3771C113.033 10.8943 112.684 9.24504 110.311 9.27083H109.28V15.4825Z" fill="#23394E"/>
<path d="M120.215 17.0292V7.72376H123.708C125.371 7.62058 127.072 8.31788 127.072 10.1344C127.072 11.152 126.362 11.8618 125.435 12.1697V12.1963C126.609 12.4418 127.483 13.2539 127.483 14.6186C127.483 16.4617 125.162 17.1332 123.733 17.0292H120.215ZM123.772 15.4823C124.713 15.4823 125.357 15.3142 125.357 14.2449C125.357 13.1757 124.714 13.0076 123.772 13.0076H122.211V15.4831H123.772V15.4823ZM123.772 11.4624C124.61 11.4624 125.073 11.1137 125.073 10.3665C125.073 9.61762 124.609 9.27147 123.772 9.27147H122.211V11.4632L123.772 11.4624Z" fill="#23394E"/>
<path d="M128.107 17.029L131.472 7.72363H133.844L137.077 17.029H135.069L134.398 15.057H130.712L130.015 17.029H128.107ZM133.895 13.5109L132.619 9.54095H132.592L131.227 13.5109H133.895Z" fill="#23394E"/>
<path d="M143.669 17.0299L139.995 9.29631L139.97 9.32293V17.0299H138.102V7.72446H141.065L144.611 15.0453L144.636 15.0178V7.72363H146.505V17.0299H143.669Z" fill="#23394E"/>
<path d="M150.143 11.7452H150.169L153.262 7.72363H155.595L152.179 11.8866L155.892 17.029H153.405L150.169 12.2861H150.144V17.029H148.146V7.72363H150.144V11.7452H150.143Z" fill="#23394E"/>
<defs>
<radialGradient id="paint0_radial_394_221" cx="0" cy="0" r="1" gradientUnits="userSpaceOnUse" gradientTransform="translate(34.6579 6.62921) scale(24.7362 24.7363)">
<stop stop-color="white"/>
<stop offset="0.0598" stop-color="#E7F6FD"/>
<stop offset="0.1829" stop-color="#23394E"/>
<stop offset="0.3588" stop-color="#23394E"/>
<stop offset="0.3589" stop-color="#23394E"/>
<stop offset="0.544" stop-color="#23394E"/>
<stop offset="1" stop-color="#002F54"/>
</radialGradient>
</defs>
</svg>
